<svg xmlns="http://www.w3.org/2000/svg" viewBox="0 0 360 360"><defs><style>.cls-1{fill:#fff;}.cls-2{fill:none;}</style></defs><title>Eidetic_FInalLogoSubmission_SvgFile_Feb142018</title><g id="Layer_1" data-name="Layer 1"><polygon class="cls-1" points="277.82 319.2 128.79 319.2 152.08 301.79 172.76 317.27 225.73 275.4 277.82 319.2"/><path class="cls-1" d="M253,232.78,284.66,311l-58.72-49.38-53.36,42.18-20.5-15.34L111,319.16v0h-41l35-86.42H253ZM137.34,264.69c2.79-1.69,5.36-4.49,5.27-8.11s-2.82-6.29-5.7-7.83a21,21,0,0,0-19.49.52c-2.79,1.68-5.36,4.48-5.27,8.1s2.81,6.29,5.69,7.83a21,21,0,0,0,19.5-.51Z"/><path class="cls-1" d="M200.81,102.43A22.33,22.33,0,1,1,178.53,80,22.44,22.44,0,0,1,200.81,102.43Z"/><path class="cls-1" d="M249.91,63.78c.1,1.09,0,2.18,0,3.27v72.37c0,.44,0,.89,0,1.33a6.4,6.4,0,0,1-1.2,3.76,5.12,5.12,0,0,1-3,2,8.12,8.12,0,0,1-2.14.29c-1.6,0-3.19,0-4.79,0H115.12c-1.82,0-3.54.15-5.3-.78a5,5,0,0,1-2.29-2.35A6.52,6.52,0,0,1,107,142c-.06-.33-.1-.65-.13-1-.06-1,0-2,0-3q0-29.91,0-59.82V70.61c0-2.16,0-4.32,0-6.49a6.41,6.41,0,0,1,.32-1.94,5.06,5.06,0,0,1,2.1-2.83,6.44,6.44,0,0,1,3.9-1h36.1c.28-2.27.62-4.54.88-6.81a28.92,28.92,0,0,1,.5-3.93,8.64,8.64,0,0,1,2.4-4.28A8.11,8.11,0,0,1,157.28,41a17,17,0,0,1,3.7-.21h7.08q14.16,0,28.33,0a15.08,15.08,0,0,1,2.32.11,8.62,8.62,0,0,1,1.64.43,8.34,8.34,0,0,1,2.8,1.68A9.22,9.22,0,0,1,206.1,49c.16,1.54.29,3.09.5,4.63s.42,3.07.61,4.61c0,.05,0,.14,0,.14h36.27c3,0,5.47,1.17,6.21,4.34A8.26,8.26,0,0,1,249.91,63.78Zm-13,10.2V64.92H218.24V74Zm-58.42,65a36.51,36.51,0,0,0-.1-73c-20.24-.09-36.14,16.63-36.33,36.58S158.57,139,178.47,139Z"/><path class="cls-1" d="M75.53,255.68A83.22,83.22,0,0,1,59,254.8c-9.56-1.71-15.93-9.75-16-19.49-.19-38.22-.27-76.44,0-114.66.1-12.35,9.88-21.35,22.13-21.55,10-.16,20,0,31,0q0,20.54,0,41.08a19,19,0,0,0,1.07,6.38,16.1,16.1,0,0,0,9.78,9.77,18.94,18.94,0,0,0,6.37,1.07H243.48a18.94,18.94,0,0,0,6.37-1.07,16,16,0,0,0,9.79-9.76,18.71,18.71,0,0,0,1.07-6.38v-40h.05v-.74c13.45,0,26.23-.83,38.84.26,10,.86,17.38,10.74,17.43,21.52q.29,57,0,114c-.07,11.17-8.5,19.44-19.55,20.48H281.13c-5-.13-6.89-2-8.36-4.86l-12.5-28.73H97.92v0L85.42,250.85c-.21.47-.26.57-.31.67-.8,1.65-2.54,4-6.92,4.1ZM289.14,126.74a7.55,7.55,0,1,0-10.62-1A7.54,7.54,0,0,0,289.14,126.74Z"/><path class="cls-2" d="M279.5,115.13a7.55,7.55,0,1,1-1,10.62A7.55,7.55,0,0,1,279.5,115.13Z"/><path class="cls-2" d="M85.42,250.85c-.21.47-.26.57-.31.67-.8,1.65-2.54,4-6.92,4.1l-2.66.06A83.22,83.22,0,0,1,59,254.8c-9.56-1.71-15.93-9.75-16-19.49-.19-38.22-.27-76.44,0-114.66.1-12.35,9.88-21.35,22.13-21.55,10-.16,20,0,31,0q0,20.54,0,41.08a19,19,0,0,0,1.07,6.38,16.1,16.1,0,0,0,9.78,9.77,18.94,18.94,0,0,0,6.37,1.07H243.48a18.94,18.94,0,0,0,6.37-1.07,16,16,0,0,0,9.79-9.76,18.71,18.71,0,0,0,1.07-6.38V99.46"/><path class="cls-2" d="M260.76,100.2v-.74c13.45,0,26.23-.83,38.84.26,10,.86,17.38,10.74,17.43,21.52q.29,57,0,114c-.07,11.17-8.5,19.44-19.55,20.48"/><path class="cls-2" d="M281.13,255.68c-5-.13-6.89-2-8.36-4.86"/><path class="cls-2" d="M149.25,58.33c.28-2.27.62-4.54.88-6.81a28.92,28.92,0,0,1,.5-3.93,8.64,8.64,0,0,1,2.4-4.28A8.11,8.11,0,0,1,157.28,41a17,17,0,0,1,3.7-.21h7.08q14.16,0,28.33,0a15.08,15.08,0,0,1,2.32.11,8.62,8.62,0,0,1,1.64.43,8.34,8.34,0,0,1,2.8,1.68A9.22,9.22,0,0,1,206.1,49c.16,1.54.29,3.09.5,4.63s.42,3.07.61,4.61c0,.05,0,.14,0,.14h36.27c3,0,5.47,1.17,6.21,4.34a8.26,8.26,0,0,1,.17,1.11c.1,1.09,0,2.18,0,3.27v72.37c0,.44,0,.89,0,1.33a6.4,6.4,0,0,1-1.2,3.76,5.12,5.12,0,0,1-3,2,8.12,8.12,0,0,1-2.14.29c-1.6,0-3.19,0-4.79,0H115.12c-1.82,0-3.54.15-5.3-.78a5,5,0,0,1-2.29-2.35A6.52,6.52,0,0,1,107,142c-.06-.33-.1-.65-.13-1-.06-1,0-2,0-3q0-29.91,0-59.82V70.61c0-2.16,0-4.32,0-6.49a6.41,6.41,0,0,1,.32-1.94,5.06,5.06,0,0,1,2.1-2.83,6.44,6.44,0,0,1,3.9-1h36.1Z"/><path class="cls-2" d="M178.47,139a36.51,36.51,0,0,0-.1-73c-20.24-.09-36.14,16.63-36.33,36.58S158.57,139,178.47,139Z"/><path class="cls-2" d="M156.16,102.33a22.33,22.33,0,1,1,22.27,22.47A22.27,22.27,0,0,1,156.16,102.33Z"/><line class="cls-2" x1="272.77" y1="250.82" x2="260.27" y2="222.09"/><polyline class="cls-2" points="128.79 319.2 152.08 301.79 172.76 317.27 225.73 275.4 277.82 319.2"/><polyline class="cls-2" points="111.03 319.16 152.08 288.48 172.59 303.82 225.94 261.64 284.66 311.02"/><polyline class="cls-2" points="284.66 311.02 252.96 232.78 134.03 232.78"/><rect class="cls-2" x="218.24" y="64.92" width="18.65" height="9.06"/></g></svg>