<svg xmlns="http://www.w3.org/2000/svg" data-name="Layer 1" width="265" height="265" style=""><rect id="backgroundrect" width="100%" height="100%" x="0" y="0" fill="none" stroke="none"/><defs><style>.cls-1{fill:#fff;}.cls-2{opacity:0.09;}.cls-3{fill:#90278e;}</style></defs><title>Eidetic_SocialMediaInfoGraphics_Feb182018-01-01</title><g class="currentLayer" style=""><title>Layer 1</title><path class="cls-1" d="M88.46000091552733,212.30999664306643 a5,5 0 0 1 0.17,-1.71 a2.13,2.13 0 0 1 3.83,-0.45 a0.47000000000000003,0.47000000000000003 0 0 1 0.07,0.25 a0.35000000000000003,0.35000000000000003 0 0 1 -0.37000000000000005,0.37000000000000005 a0.41000000000000003,0.41000000000000003 0 0 1 -0.36000000000000004,-0.22000000000000003 a1.26,1.26 0 0 0 -1.13,-0.6500000000000001 a1.25,1.25 0 0 0 -1.26,0.9500000000000001 a4.51,4.51 0 0 0 -0.14,1.46 a4.63,4.63 0 0 0 0.14,1.47 a1.25,1.25 0 0 0 1.26,0.9500000000000001 a1.26,1.26 0 0 0 1.13,-0.6500000000000001 a0.42000000000000004,0.42000000000000004 0 0 1 0.36000000000000004,-0.23 a0.36000000000000004,0.36000000000000004 0 0 1 0.37000000000000005,0.37000000000000005 a0.45,0.45 0 0 1 -0.07,0.25 a2.13,2.13 0 0 1 -3.83,-0.45 A5,5 0 0 1 88.46000091552733,212.30999664306643 z" id="svg_1"/><path class="cls-1" d="M94.17000091552734,209.60999664306638 a0.37000000000000005,0.37000000000000005 0 0 1 0.38000000000000006,-0.4 a0.37000000000000005,0.37000000000000005 0 0 1 0.38000000000000006,0.4 V211.5199966430664 h0 a1.36,1.36 0 0 1 1.2,-0.5900000000000001 a1.45,1.45 0 0 1 1.5,1.62 v2.43 a0.38000000000000006,0.38000000000000006 0 0 1 -0.38000000000000006,0.41000000000000003 a0.37000000000000005,0.37000000000000005 0 0 1 -0.38000000000000006,-0.41000000000000003 v-2.25 c0,-0.6900000000000002 -0.32000000000000006,-1.09 -1,-1.09 a1,1 0 0 0 -1,1.05 v2.29 a0.38000000000000006,0.38000000000000006 0 0 1 -0.38000000000000006,0.41000000000000003 a0.37000000000000005,0.37000000000000005 0 0 1 -0.38000000000000006,-0.41000000000000003 z" id="svg_2"/><path class="cls-1" d="M99.41000091552735,214.30999664306643 a3.15,3.15 0 0 1 -0.15000000000000002,-1.1 a3.21,3.21 0 0 1 0.15000000000000002,-1.09 a1.83,1.83 0 0 1 3.4,0 a3.21,3.21 0 0 1 0.15000000000000002,1.09 a3.15,3.15 0 0 1 -0.15000000000000002,1.1 a1.83,1.83 0 0 1 -3.4,0 zm2.67,-0.21000000000000002 a2.94,2.94 0 0 0 0.1,-0.8900000000000001 a2.79,2.79 0 0 0 -0.1,-0.8700000000000001 a1,1 0 0 0 -1.94,0 a2.79,2.79 0 0 0 -0.1,0.8700000000000001 a2.94,2.94 0 0 0 0.1,0.8900000000000001 a1,1 0 0 0 1.94,0 z" id="svg_3"/><path class="cls-1" d="M104.54000091552734,214.30999664306643 a3.19,3.19 0 0 1 -0.14,-1.1 a3.24,3.24 0 0 1 0.14,-1.09 a1.83,1.83 0 0 1 3.41,0 a3.52,3.52 0 0 1 0.14,1.09 a3.46,3.46 0 0 1 -0.14,1.1 a1.83,1.83 0 0 1 -3.41,0 zm2.68,-0.21000000000000002 a3,3 0 0 0 0.09000000000000002,-0.8900000000000001 a2.85,2.85 0 0 0 -0.09000000000000002,-0.8700000000000001 a1,1 0 0 0 -1,-0.6700000000000002 a1,1 0 0 0 -1,0.6700000000000002 a2.79,2.79 0 0 0 -0.1,0.8700000000000001 a2.94,2.94 0 0 0 0.1,0.8900000000000001 a1,1 0 0 0 1,0.6700000000000002 A1,1 0 0 0 107.18000091552733,214.0999966430664 z" id="svg_4"/><path class="cls-1" d="M109.60000091552735,214.99999664306642 a0.4,0.4 0 0 1 -0.18000000000000002,-0.32000000000000006 a0.35000000000000003,0.35000000000000003 0 0 1 0.36000000000000004,-0.3400000000000001 a0.51,0.51 0 0 1 0.25,0.08000000000000002 a2.25,2.25 0 0 0 1.2,0.38000000000000006 c0.6300000000000001,0 0.9500000000000001,-0.27 0.9500000000000001,-0.6500000000000001 s-0.16000000000000003,-0.54 -0.8500000000000001,-0.6100000000000001 l-0.45,0 c-0.8400000000000001,-0.09000000000000002 -1.28,-0.52 -1.28,-1.21 s0.5800000000000001,-1.32 1.59,-1.32 a2.67,2.67 0 0 1 1.29,0.32000000000000006 a0.3400000000000001,0.3400000000000001 0 0 1 0.22000000000000003,0.31000000000000005 a0.32000000000000006,0.32000000000000006 0 0 1 -0.32000000000000006,0.33000000000000007 a0.6700000000000002,0.6700000000000002 0 0 1 -0.27,-0.07 a2.19,2.19 0 0 0 -1,-0.23 c-0.54,0 -0.8200000000000001,0.24000000000000002 -0.8200000000000001,0.5900000000000001 s0.2,0.53 0.8500000000000001,0.5900000000000001 l0.45,0.05000000000000001 c0.9,0.09000000000000002 1.3,0.52 1.3,1.22 s-0.6200000000000001,1.4 -1.7600000000000002,1.4 A2.79,2.79 0 0 1 109.60000091552735,214.99999664306642 z" id="svg_5"/><path class="cls-1" d="M114.46000091552733,214.29999664306638 a3.21,3.21 0 0 1 -0.15000000000000002,-1.09 a3.34,3.34 0 0 1 0.14,-1.09 a1.6600000000000001,1.6600000000000001 0 0 1 1.6800000000000002,-1.1600000000000001 a1.6400000000000001,1.6400000000000001 0 0 1 1.6900000000000002,1.1600000000000001 a3.09,3.09 0 0 1 0.15000000000000002,1 a0.28,0.28 0 0 1 -0.30000000000000004,0.29000000000000004 H115.14000091552734 s0,0 0,0.05000000000000001 a1.4300000000000002,1.4300000000000002 0 0 0 0.07,0.52 a1.06,1.06 0 0 0 1.09,0.7500000000000001 a1.53,1.53 0 0 0 1,-0.37000000000000005 a0.42000000000000004,0.42000000000000004 0 0 1 0.26,-0.11000000000000001 a0.32000000000000006,0.32000000000000006 0 0 1 0.32000000000000006,0.32000000000000006 a0.38000000000000006,0.38000000000000006 0 0 1 -0.12000000000000001,0.27 a2.23,2.23 0 0 1 -1.55,0.5900000000000001 A1.6500000000000001,1.6500000000000001 0 0 1 114.46000091552733,214.29999664306638 zm2.68,-1.45 s0.05000000000000001,0 0.05000000000000001,-0.06000000000000001 a1.61,1.61 0 0 0 -0.06000000000000001,-0.48000000000000004 a1.06,1.06 0 0 0 -2,0 a1.34,1.34 0 0 0 -0.06000000000000001,0.48000000000000004 s0,0.06000000000000001 0,0.06000000000000001 z" id="svg_6"/><path class="cls-1" d="M123.54000091552734,215.41999664306638 c-0.8800000000000001,0 -1.2,-0.37000000000000005 -1.2,-1.27 v-2.42 a0.05000000000000001,0.05000000000000001 0 0 0 -0.06000000000000001,-0.06000000000000001 h-0.24000000000000002 a0.28,0.28 0 0 1 -0.32000000000000006,-0.30000000000000004 a0.29000000000000004,0.29000000000000004 0 0 1 0.32000000000000006,-0.31000000000000005 h0.24000000000000002 s0.06000000000000001,0 0.06000000000000001,-0.05000000000000001 v-0.9500000000000001 a0.37000000000000005,0.37000000000000005 0 0 1 0.38000000000000006,-0.4 a0.37000000000000005,0.37000000000000005 0 0 1 0.38000000000000006,0.4 v0.9500000000000001 s0,0.05000000000000001 0.05000000000000001,0.05000000000000001 h0.5700000000000001 a0.30000000000000004,0.30000000000000004 0 0 1 0.32000000000000006,0.31000000000000005 a0.29000000000000004,0.29000000000000004 0 0 1 -0.32000000000000006,0.30000000000000004 h-0.5700000000000001 s-0.05000000000000001,0 -0.05000000000000001,0.06000000000000001 v2.39 c0,0.46 0.11000000000000001,0.6000000000000001 0.5700000000000001,0.6000000000000001 a0.33000000000000007,0.33000000000000007 0 0 1 0.37000000000000005,0.35000000000000003 c0,0.21000000000000002 -0.13,0.35000000000000003 -0.4,0.35000000000000003 z" id="svg_7"/><path class="cls-1" d="M125.54000091552734,209.60999664306638 a0.37000000000000005,0.37000000000000005 0 0 1 0.38000000000000006,-0.4 a0.37000000000000005,0.37000000000000005 0 0 1 0.38000000000000006,0.4 V211.5199966430664 h0 a1.36,1.36 0 0 1 1.2,-0.5900000000000001 a1.45,1.45 0 0 1 1.5,1.62 v2.43 a0.38000000000000006,0.38000000000000006 0 0 1 -0.38000000000000006,0.41000000000000003 a0.37000000000000005,0.37000000000000005 0 0 1 -0.38000000000000006,-0.41000000000000003 v-2.25 c0,-0.6900000000000002 -0.32000000000000006,-1.09 -1,-1.09 a1,1 0 0 0 -1,1.05 v2.29 a0.38000000000000006,0.38000000000000006 0 0 1 -0.38000000000000006,0.41000000000000003 a0.37000000000000005,0.37000000000000005 0 0 1 -0.38000000000000006,-0.41000000000000003 z" id="svg_8"/><path class="cls-1" d="M130.81000091552735,214.29999664306638 a3.21,3.21 0 0 1 -0.15000000000000002,-1.09 a3.34,3.34 0 0 1 0.14,-1.09 a1.81,1.81 0 0 1 3.38,0 a3.4,3.4 0 0 1 0.14,1 a0.28,0.28 0 0 1 -0.30000000000000004,0.29000000000000004 H131.54000091552734 a0,0 0 0 0 0,0.05000000000000001 a1.6800000000000002,1.6800000000000002 0 0 0 0.07,0.52 a1.06,1.06 0 0 0 1.09,0.7500000000000001 a1.58,1.58 0 0 0 1,-0.37000000000000005 a0.42000000000000004,0.42000000000000004 0 0 1 0.26,-0.11000000000000001 a0.31000000000000005,0.31000000000000005 0 0 1 0.31000000000000005,0.32000000000000006 a0.3400000000000001,0.3400000000000001 0 0 1 -0.12000000000000001,0.27 A2.2,2.2 0 0 1 132.54000091552734,215.5199966430664 A1.6600000000000001,1.6600000000000001 0 0 1 130.81000091552735,214.29999664306638 zm2.68,-1.45 a0.05000000000000001,0.05000000000000001 0 0 0 0.06000000000000001,-0.06000000000000001 a1.32,1.32 0 0 0 -0.07,-0.48000000000000004 a1,1 0 0 0 -1,-0.6800000000000002 a1,1 0 0 0 -1,0.6800000000000002 a1.61,1.61 0 0 0 -0.06000000000000001,0.48000000000000004 s0,0.06000000000000001 0,0.06000000000000001 z" id="svg_9"/><path class="cls-1" d="M138.61000091552734,211.41999664306638 a0.38000000000000006,0.38000000000000006 0 1 1 0.7600000000000001,0 V211.5199966430664 h0 a1.51,1.51 0 0 1 2.46,0.09000000000000002 h0 a1.59,1.59 0 0 1 1.4,-0.6800000000000002 a1.46,1.46 0 0 1 1.54,1.62 v2.43 a0.38000000000000006,0.38000000000000006 0 0 1 -0.38000000000000006,0.41000000000000003 a0.37000000000000005,0.37000000000000005 0 0 1 -0.38000000000000006,-0.41000000000000003 v-2.25 c0,-0.6900000000000002 -0.31000000000000005,-1.09 -1,-1.09 a1,1 0 0 0 -1,1.05 v2.29 a0.38000000000000006,0.38000000000000006 0 1 1 -0.7600000000000001,0 v-2.25 c0,-0.6900000000000002 -0.31000000000000005,-1.09 -1,-1.09 a1,1 0 0 0 -1,1.05 v2.29 a0.38000000000000006,0.38000000000000006 0 1 1 -0.7600000000000001,0 z" id="svg_10"/><path class="cls-1" d="M146.54000091552734,214.30999664306643 a3.19,3.19 0 0 1 -0.14,-1.1 a3.24,3.24 0 0 1 0.14,-1.09 a1.83,1.83 0 0 1 3.4,0 a3.21,3.21 0 0 1 0.15000000000000002,1.09 a3.15,3.15 0 0 1 -0.15000000000000002,1.1 a1.83,1.83 0 0 1 -3.4,0 zm2.67,-0.21000000000000002 a2.94,2.94 0 0 0 0.1,-0.8900000000000001 a2.79,2.79 0 0 0 -0.1,-0.8700000000000001 a1,1 0 0 0 -1.94,0 a2.79,2.79 0 0 0 -0.1,0.8700000000000001 a2.94,2.94 0 0 0 0.1,0.8900000000000001 a1,1 0 0 0 1.94,0 z" id="svg_11"/><path class="cls-1" d="M151.76000091552734,211.41999664306638 a0.37000000000000005,0.37000000000000005 0 0 1 0.38000000000000006,-0.4 a0.37000000000000005,0.37000000000000005 0 0 1 0.38000000000000006,0.4 V211.5199966430664 h0 a1.51,1.51 0 0 1 2.46,0.09000000000000002 h0 a1.59,1.59 0 0 1 1.4,-0.6800000000000002 a1.46,1.46 0 0 1 1.54,1.62 v2.43 a0.38000000000000006,0.38000000000000006 0 0 1 -0.38000000000000006,0.41000000000000003 a0.37000000000000005,0.37000000000000005 0 0 1 -0.38000000000000006,-0.41000000000000003 v-2.25 c0,-0.6900000000000002 -0.31000000000000005,-1.09 -1,-1.09 a1,1 0 0 0 -1,1.05 v2.29 a0.38000000000000006,0.38000000000000006 0 0 1 -0.38000000000000006,0.41000000000000003 a0.37000000000000005,0.37000000000000005 0 0 1 -0.38000000000000006,-0.41000000000000003 v-2.25 c0,-0.6900000000000002 -0.31000000000000005,-1.09 -1,-1.09 a1,1 0 0 0 -1,1.05 v2.29 a0.38000000000000006,0.38000000000000006 0 0 1 -0.38000000000000006,0.41000000000000003 a0.37000000000000005,0.37000000000000005 0 0 1 -0.38000000000000006,-0.41000000000000003 z" id="svg_12"/><path class="cls-1" d="M159.70000091552734,214.29999664306638 a3.21,3.21 0 0 1 -0.15000000000000002,-1.09 a3.34,3.34 0 0 1 0.14,-1.09 a1.81,1.81 0 0 1 3.38,0 a3.4,3.4 0 0 1 0.14,1 a0.28,0.28 0 0 1 -0.30000000000000004,0.29000000000000004 h-2.5300000000000002 a0,0 0 0 0 -0.05000000000000001,0.05000000000000001 a1.6800000000000002,1.6800000000000002 0 0 0 0.07,0.52 a1.06,1.06 0 0 0 1.09,0.7500000000000001 a1.58,1.58 0 0 0 1,-0.37000000000000005 a0.42000000000000004,0.42000000000000004 0 0 1 0.26,-0.11000000000000001 a0.31000000000000005,0.31000000000000005 0 0 1 0.31000000000000005,0.32000000000000006 a0.3400000000000001,0.3400000000000001 0 0 1 -0.12000000000000001,0.27 a2.2,2.2 0 0 1 -1.54,0.5900000000000001 A1.6500000000000001,1.6500000000000001 0 0 1 159.70000091552734,214.29999664306638 zm2.68,-1.45 a0.05000000000000001,0.05000000000000001 0 0 0 0.06000000000000001,-0.06000000000000001 a1.32,1.32 0 0 0 -0.07,-0.48000000000000004 a1,1 0 0 0 -1,-0.6800000000000002 a1,1 0 0 0 -1,0.6800000000000002 a1.61,1.61 0 0 0 -0.06000000000000001,0.48000000000000004 s0,0.06000000000000001 0.05000000000000001,0.06000000000000001 z" id="svg_13"/><path class="cls-1" d="M164.87000091552736,211.41999664306638 a0.37000000000000005,0.37000000000000005 0 0 1 0.38000000000000006,-0.4 a0.37000000000000005,0.37000000000000005 0 0 1 0.38000000000000006,0.4 V211.5199966430664 h0 a1.37,1.37 0 0 1 1.2,-0.5900000000000001 a1.45,1.45 0 0 1 1.5,1.62 v2.43 a0.37000000000000005,0.37000000000000005 0 0 1 -0.38000000000000006,0.41000000000000003 a0.38000000000000006,0.38000000000000006 0 0 1 -0.38000000000000006,-0.41000000000000003 v-2.25 c0,-0.6900000000000002 -0.31000000000000005,-1.09 -1,-1.09 a1,1 0 0 0 -1,1.05 v2.29 a0.37000000000000005,0.37000000000000005 0 0 1 -0.38000000000000006,0.41000000000000003 a0.38000000000000006,0.38000000000000006 0 0 1 -0.38000000000000006,-0.41000000000000003 z" id="svg_14"/><path class="cls-1" d="M171.54000091552734,215.41999664306638 c-0.8800000000000001,0 -1.2,-0.37000000000000005 -1.2,-1.27 v-2.42 a0.05000000000000001,0.05000000000000001 0 0 0 -0.06000000000000001,-0.06000000000000001 h-0.24000000000000002 a0.28,0.28 0 0 1 -0.32000000000000006,-0.30000000000000004 a0.29000000000000004,0.29000000000000004 0 0 1 0.32000000000000006,-0.31000000000000005 h0.24000000000000002 s0.06000000000000001,0 0.06000000000000001,-0.05000000000000001 v-0.9500000000000001 a0.38000000000000006,0.38000000000000006 0 1 1 0.7500000000000001,0 v0.9500000000000001 s0,0.05000000000000001 0.06000000000000001,0.05000000000000001 h0.5700000000000001 a0.30000000000000004,0.30000000000000004 0 0 1 0.32000000000000006,0.31000000000000005 a0.29000000000000004,0.29000000000000004 0 0 1 -0.32000000000000006,0.30000000000000004 h-0.5700000000000001 a0.05000000000000001,0.05000000000000001 0 0 0 -0.06000000000000001,0.06000000000000001 v2.39 c0,0.46 0.12000000000000001,0.6000000000000001 0.5800000000000001,0.6000000000000001 a0.3400000000000001,0.3400000000000001 0 0 1 0.37000000000000005,0.35000000000000003 c0,0.21000000000000002 -0.14,0.35000000000000003 -0.4,0.35000000000000003 z" id="svg_15"/><path class="cls-1" d="M173.42000091552734,214.99999664306642 a0.4,0.4 0 0 1 -0.18000000000000002,-0.32000000000000006 a0.35000000000000003,0.35000000000000003 0 0 1 0.35000000000000003,-0.3400000000000001 a0.51,0.51 0 0 1 0.26,0.08000000000000002 a2.25,2.25 0 0 0 1.2,0.38000000000000006 c0.6200000000000001,0 1,-0.27 1,-0.6500000000000001 s-0.16000000000000003,-0.54 -0.8500000000000001,-0.6100000000000001 l-0.45,0 c-0.8400000000000001,-0.09000000000000002 -1.29,-0.52 -1.29,-1.21 s0.5900000000000001,-1.32 1.6,-1.32 a2.6,2.6 0 0 1 1.28,0.32000000000000006 a0.3400000000000001,0.3400000000000001 0 0 1 0.23,0.31000000000000005 a0.32000000000000006,0.32000000000000006 0 0 1 -0.32000000000000006,0.33000000000000007 a0.6300000000000001,0.6300000000000001 0 0 1 -0.27,-0.07 a2.23,2.23 0 0 0 -1,-0.23 c-0.54,0 -0.8200000000000001,0.24000000000000002 -0.8200000000000001,0.5900000000000001 s0.2,0.53 0.8500000000000001,0.5900000000000001 l0.45,0.05000000000000001 c0.9,0.09000000000000002 1.3,0.52 1.3,1.22 s-0.6200000000000001,1.4 -1.7600000000000002,1.4 A2.79,2.79 0 0 1 173.42000091552734,214.99999664306642 z" id="svg_16"/><path class="cls-1" d="M60.80000091552735,227.79999664306638 a0.36000000000000004,0.36000000000000004 0 1 1 0,-0.7100000000000001 c0.35000000000000003,0 0.56,-0.13 0.7400000000000001,-0.6500000000000001 l0.15000000000000002,-0.39000000000000007 l-1.47,-3.7 a0.5700000000000001,0.5700000000000001 0 0 1 0,-0.18000000000000002 a0.37000000000000005,0.37000000000000005 0 0 1 0.7300000000000001,-0.08000000000000002 l1.13,3 h0 l1.08,-3 a0.37000000000000005,0.37000000000000005 0 0 1 0.7200000000000001,0.08000000000000002 a0.5800000000000001,0.5800000000000001 0 0 1 0,0.18000000000000002 l-1.62,4.25 c-0.38000000000000006,1 -0.7200000000000001,1.2 -1.34,1.2 z" id="svg_17"/><path class="cls-1" d="M65.18000091552734,225.10999664306638 a4.35,4.35 0 0 1 0,-2.19 a1.83,1.83 0 0 1 3.4,0 a4.07,4.07 0 0 1 0,2.19 a1.83,1.83 0 0 1 -3.4,0 zm2.67,-0.21000000000000002 a2.6500000000000004,2.6500000000000004 0 0 0 0.1,-0.8900000000000001 a2.52,2.52 0 0 0 -0.1,-0.8700000000000001 a1,1 0 0 0 -1.94,0 a2.79,2.79 0 0 0 -0.1,0.8700000000000001 a2.94,2.94 0 0 0 0.1,0.8900000000000001 a1,1 0 0 0 1.94,0 z" id="svg_18"/><path class="cls-1" d="M73.77000091552735,225.80999664306643 a0.38000000000000006,0.38000000000000006 0 1 1 -0.7600000000000001,0 v-0.12000000000000001 h0 a1.32,1.32 0 0 1 -1.19,0.5800000000000001 a1.44,1.44 0 0 1 -1.48,-1.62 V222.2199966430664 a0.37000000000000005,0.37000000000000005 0 0 1 0.38000000000000006,-0.4 a0.37000000000000005,0.37000000000000005 0 0 1 0.38000000000000006,0.4 V224.5199966430664 c0,0.7000000000000001 0.30000000000000004,1.1 1,1.1 a1,1 0 0 0 1,-1.05 v-2.3 a0.38000000000000006,0.38000000000000006 0 1 1 0.7600000000000001,0 z" id="svg_19"/><path class="cls-1" d="M78.20000091552734,225.10999664306638 a3.41,3.41 0 0 1 -0.14,-1.1 a3.47,3.47 0 0 1 0.14,-1.09 a1.82,1.82 0 0 1 3.07,-0.53 a0.42000000000000004,0.42000000000000004 0 0 1 0.11000000000000001,0.28 a0.33000000000000007,0.33000000000000007 0 0 1 -0.33000000000000007,0.3400000000000001 a0.46,0.46 0 0 1 -0.33000000000000007,-0.18000000000000002 a1,1 0 0 0 -0.8200000000000001,-0.36000000000000004 a0.9400000000000001,0.9400000000000001 0 0 0 -1,0.6700000000000002 a3,3 0 0 0 -0.1,0.8700000000000001 a3,3 0 0 0 0.1,0.8900000000000001 a0.9400000000000001,0.9400000000000001 0 0 0 1,0.6700000000000002 a1,1 0 0 0 0.8200000000000001,-0.36000000000000004 a0.43000000000000005,0.43000000000000005 0 0 1 0.33000000000000007,-0.18000000000000002 a0.33000000000000007,0.33000000000000007 0 0 1 0.33000000000000007,0.33000000000000007 a0.42000000000000004,0.42000000000000004 0 0 1 -0.11000000000000001,0.28 a1.6800000000000002,1.6800000000000002 0 0 1 -1.37,0.6300000000000001 A1.6600000000000001,1.6600000000000001 0 0 1 78.20000091552734,225.10999664306638 z" id="svg_20"/><path class="cls-1" d="M83.02000091552733,220.4099966430664 a0.38000000000000006,0.38000000000000006 0 1 1 0.7500000000000001,0 v1.94 h0 a1.3900000000000001,1.3900000000000001 0 0 1 1.21,-0.5900000000000001 a1.44,1.44 0 0 1 1.49,1.62 v2.43 a0.38000000000000006,0.38000000000000006 0 1 1 -0.7500000000000001,0 V223.5199966430664 c0,-0.6900000000000002 -0.32000000000000006,-1.09 -1,-1.09 a1,1 0 0 0 -1,1.05 v2.29 a0.38000000000000006,0.38000000000000006 0 1 1 -0.7500000000000001,0 z" id="svg_21"/><path class="cls-1" d="M88.26000091552734,225.0999966430664 a3.21,3.21 0 0 1 -0.15000000000000002,-1.09 a3.3,3.3 0 0 1 0.14,-1.09 a1.6600000000000001,1.6600000000000001 0 0 1 1.6800000000000002,-1.1600000000000001 a1.6400000000000001,1.6400000000000001 0 0 1 1.6900000000000002,1.1600000000000001 a3.09,3.09 0 0 1 0.15000000000000002,1 a0.28,0.28 0 0 1 -0.30000000000000004,0.29000000000000004 H88.94000091552735 a0,0 0 0 0 -0.05000000000000001,0 a1.6800000000000002,1.6800000000000002 0 0 0 0.07,0.52 a1.06,1.06 0 0 0 1.09,0.7500000000000001 a1.53,1.53 0 0 0 1,-0.37000000000000005 a0.42000000000000004,0.42000000000000004 0 0 1 0.26,-0.11000000000000001 a0.31000000000000005,0.31000000000000005 0 0 1 0.32000000000000006,0.32000000000000006 a0.3400000000000001,0.3400000000000001 0 0 1 -0.12000000000000001,0.27 a2.23,2.23 0 0 1 -1.55,0.5900000000000001 A1.6500000000000001,1.6500000000000001 0 0 1 88.26000091552734,225.0999966430664 zm2.68,-1.46 s0,0 0,-0.05000000000000001 a1.4300000000000002,1.4300000000000002 0 0 0 -0.06000000000000001,-0.49000000000000005 a1.07,1.07 0 0 0 -2,0 a1.73,1.73 0 0 0 -0.06000000000000001,0.49000000000000005 s0,0.05000000000000001 0.05000000000000001,0.05000000000000001 z" id="svg_22"/><path class="cls-1" d="M93.43000091552733,225.80999664306643 V222.2199966430664 a0.38000000000000006,0.38000000000000006 0 1 1 0.7600000000000001,0 v0.2 h0 a1.1600000000000001,1.1600000000000001 0 0 1 1.1,-0.6600000000000001 a1.24,1.24 0 0 1 0.6400000000000001,0.16000000000000003 a0.3400000000000001,0.3400000000000001 0 0 1 0.22000000000000003,0.32000000000000006 a0.36000000000000004,0.36000000000000004 0 0 1 -0.38000000000000006,0.38000000000000006 a0.54,0.54 0 0 1 -0.19000000000000003,-0.05000000000000001 a1.34,1.34 0 0 0 -0.49000000000000005,-0.1 c-0.6500000000000001,0 -0.91,0.54 -0.91,1.26 v2.08 a0.38000000000000006,0.38000000000000006 0 1 1 -0.7600000000000001,0 z" id="svg_23"/><path class="cls-1" d="M97.43000091552733,220.5199966430664 a0.48000000000000004,0.48000000000000004 0 0 1 0.49000000000000005,-0.49000000000000005 a0.49000000000000005,0.49000000000000005 0 0 1 0.5,0.49000000000000005 a0.51,0.51 0 0 1 -0.5,0.5 A0.5,0.5 0 0 1 97.43000091552733,220.5199966430664 zm0.11000000000000001,1.7200000000000002 a0.37000000000000005,0.37000000000000005 0 0 1 0.38000000000000006,-0.4 a0.37000000000000005,0.37000000000000005 0 0 1 0.38000000000000006,0.4 v3.59 a0.37000000000000005,0.37000000000000005 0 0 1 -0.38000000000000006,0.41000000000000003 a0.38000000000000006,0.38000000000000006 0 0 1 -0.38000000000000006,-0.41000000000000003 z" id="svg_24"/><path class="cls-1" d="M100.12000091552736,225.79999664306638 a0.37000000000000005,0.37000000000000005 0 0 1 -0.18000000000000002,-0.32000000000000006 a0.3400000000000001,0.3400000000000001 0 0 1 0.35000000000000003,-0.3400000000000001 a0.51,0.51 0 0 1 0.25,0.08000000000000002 a2.25,2.25 0 0 0 1.21,0.38000000000000006 c0.6200000000000001,0 0.9400000000000001,-0.27 0.9400000000000001,-0.6500000000000001 s-0.16000000000000003,-0.54 -0.8400000000000001,-0.6100000000000001 l-0.45,-0.05000000000000001 c-0.8500000000000001,-0.09000000000000002 -1.29,-0.52 -1.29,-1.21 s0.5800000000000001,-1.32 1.59,-1.32 a2.6100000000000003,2.6100000000000003 0 0 1 1.29,0.32000000000000006 a0.36000000000000004,0.36000000000000004 0 0 1 0.23,0.31000000000000005 a0.33000000000000007,0.33000000000000007 0 0 1 -0.33000000000000007,0.33000000000000007 a0.6000000000000001,0.6000000000000001 0 0 1 -0.27,-0.08000000000000002 a2.3200000000000003,2.3200000000000003 0 0 0 -1,-0.22000000000000003 c-0.54,0 -0.8200000000000001,0.24000000000000002 -0.8200000000000001,0.5900000000000001 s0.2,0.53 0.8400000000000001,0.5900000000000001 l0.45,0 c0.9,0.1 1.3,0.53 1.3,1.23 s-0.6100000000000001,1.4 -1.7600000000000002,1.4 A2.7800000000000002,2.7800000000000002 0 0 1 100.12000091552736,225.79999664306638 z" id="svg_25"/><path class="cls-1" d="M105.09000091552736,220.4099966430664 a0.38000000000000006,0.38000000000000006 0 1 1 0.7500000000000001,0 v1.94 h0 a1.3800000000000001,1.3800000000000001 0 0 1 1.21,-0.5900000000000001 a1.45,1.45 0 0 1 1.49,1.62 v2.43 a0.38000000000000006,0.38000000000000006 0 1 1 -0.7500000000000001,0 V223.5199966430664 c0,-0.6900000000000002 -0.32000000000000006,-1.09 -1,-1.09 a1,1 0 0 0 -1,1.05 v2.29 a0.38000000000000006,0.38000000000000006 0 1 1 -0.7500000000000001,0 z" id="svg_26"/><path class="cls-1" d="M116.60000091552735,225.85999664306638 a0.36000000000000004,0.36000000000000004 0 0 1 -0.39000000000000007,0.36000000000000004 a0.39000000000000007,0.39000000000000007 0 0 1 -0.33000000000000007,-0.19000000000000003 l-0.17,-0.27 h0 a1.6700000000000002,1.6700000000000002 0 0 1 -1.33,0.51 c-1,0 -1.52,-0.47000000000000003 -1.52,-1.29 s0.6200000000000001,-1.34 1.6900000000000002,-1.34 h1 s0.05000000000000001,0 0.05000000000000001,-0.05000000000000001 v-0.21000000000000002 c0,-0.6000000000000001 -0.28,-0.9400000000000001 -1,-0.9400000000000001 a2.2,2.2 0 0 0 -0.8900000000000001,0.21000000000000002 a0.47000000000000003,0.47000000000000003 0 0 1 -0.21000000000000002,0.07 a0.31000000000000005,0.31000000000000005 0 0 1 -0.33000000000000007,-0.33000000000000007 a0.35000000000000003,0.35000000000000003 0 0 1 0.18000000000000002,-0.30000000000000004 a2.42,2.42 0 0 1 1.32,-0.33000000000000007 c1.15,0 1.6900000000000002,0.55 1.6900000000000002,1.61 v1.55 a0.8400000000000001,0.8400000000000001 0 0 0 0.08000000000000002,0.44000000000000006 l0.16000000000000003,0.28 A0.6000000000000001,0.6000000000000001 0 0 1 116.60000091552735,225.85999664306638 zm-1,-1.08 v-0.48000000000000004 a0,0 0 0 0 -0.05000000000000001,0 h-0.8700000000000001 c-0.7300000000000001,0 -1.07,0.21000000000000002 -1.07,0.7000000000000001 s0.33000000000000007,0.6800000000000002 0.9,0.6800000000000002 S115.54000091552734,225.30999664306643 115.54000091552734,224.7799966430664 z" id="svg_27"/><path class="cls-1" d="M118.20000091552734,222.2199966430664 a0.37000000000000005,0.37000000000000005 0 0 1 0.38000000000000006,-0.4 a0.37000000000000005,0.37000000000000005 0 0 1 0.38000000000000006,0.4 v0.13 h0 a1.3900000000000001,1.3900000000000001 0 0 1 1.21,-0.5900000000000001 a1.44,1.44 0 0 1 1.49,1.62 v2.43 a0.38000000000000006,0.38000000000000006 0 1 1 -0.7500000000000001,0 V223.5199966430664 c0,-0.6900000000000002 -0.32000000000000006,-1.09 -1,-1.09 a1,1 0 0 0 -1,1.05 v2.29 a0.38000000000000006,0.38000000000000006 0 0 1 -0.38000000000000006,0.41000000000000003 a0.37000000000000005,0.37000000000000005 0 0 1 -0.38000000000000006,-0.41000000000000003 z" id="svg_28"/><path class="cls-1" d="M126.16000091552735,225.80999664306643 v-0.11000000000000001 h0 a1.32,1.32 0 0 1 -1.23,0.5700000000000001 a1.48,1.48 0 0 1 -1.48,-1.08 a3.62,3.62 0 0 1 -0.16000000000000003,-1.18 a3.68,3.68 0 0 1 0.16000000000000003,-1.17 a1.49,1.49 0 0 1 1.48,-1.08 a1.33,1.33 0 0 1 1.23,0.5800000000000001 h0 v-1.9300000000000002 a0.38000000000000006,0.38000000000000006 0 1 1 0.7500000000000001,0 v5.4 a0.38000000000000006,0.38000000000000006 0 1 1 -0.7500000000000001,0 zm-0.1,-0.91 a2.8,2.8 0 0 0 0.1,-0.8900000000000001 a2.66,2.66 0 0 0 -0.1,-0.8700000000000001 a0.9400000000000001,0.9400000000000001 0 0 0 -1,-0.6700000000000002 a0.91,0.91 0 0 0 -0.9400000000000001,0.6700000000000002 a2.66,2.66 0 0 0 -0.1,0.8700000000000001 a2.8,2.8 0 0 0 0.1,0.8900000000000001 a0.91,0.91 0 0 0 0.9400000000000001,0.6700000000000002 A0.9400000000000001,0.9400000000000001 0 0 0 126.06000091552735,224.8999966430664 z" id="svg_29"/><path class="cls-1" d="M131.46000091552733,220.4099966430664 a0.37000000000000005,0.37000000000000005 0 0 1 0.38000000000000006,-0.4 a0.37000000000000005,0.37000000000000005 0 0 1 0.38000000000000006,0.4 v1.94 h0 a1.3800000000000001,1.3800000000000001 0 0 1 1.21,-0.5900000000000001 a1.45,1.45 0 0 1 1.49,1.62 v2.43 a0.37000000000000005,0.37000000000000005 0 0 1 -0.38000000000000006,0.41000000000000003 a0.38000000000000006,0.38000000000000006 0 0 1 -0.38000000000000006,-0.41000000000000003 V223.5199966430664 c0,-0.6900000000000002 -0.31000000000000005,-1.09 -1,-1.09 a1,1 0 0 0 -1,1.05 v2.29 a0.37000000000000005,0.37000000000000005 0 0 1 -0.38000000000000006,0.41000000000000003 a0.38000000000000006,0.38000000000000006 0 0 1 -0.38000000000000006,-0.41000000000000003 z" id="svg_30"/><path class="cls-1" d="M136.70000091552734,225.10999664306638 a4.35,4.35 0 0 1 0,-2.19 a1.83,1.83 0 0 1 3.41,0 a4.35,4.35 0 0 1 0,2.19 a1.83,1.83 0 0 1 -3.41,0 zm2.68,-0.21000000000000002 a2.94,2.94 0 0 0 0.1,-0.8900000000000001 a2.79,2.79 0 0 0 -0.1,-0.8700000000000001 a1,1 0 0 0 -2,0 a2.79,2.79 0 0 0 -0.1,0.8700000000000001 a2.94,2.94 0 0 0 0.1,0.8900000000000001 a1,1 0 0 0 2,0 z" id="svg_31"/><path class="cls-1" d="M141.91000091552735,227.43999664306642 V222.2199966430664 a0.37000000000000005,0.37000000000000005 0 0 1 0.38000000000000006,-0.4 a0.37000000000000005,0.37000000000000005 0 0 1 0.38000000000000006,0.4 v0.12000000000000001 h0 a1.31,1.31 0 0 1 1.22,-0.5800000000000001 a1.51,1.51 0 0 1 1.49,1.08 a3.72,3.72 0 0 1 0.15000000000000002,1.18 a3.62,3.62 0 0 1 -0.15000000000000002,1.17 a1.5,1.5 0 0 1 -1.49,1.08 a1.31,1.31 0 0 1 -1.22,-0.5700000000000001 h0 v1.7400000000000002 a0.37000000000000005,0.37000000000000005 0 0 1 -0.38000000000000006,0.4 A0.37000000000000005,0.37000000000000005 0 0 1 141.91000091552735,227.43999664306642 zm2.7600000000000002,-2.54 a2.77,2.77 0 0 0 0.1,-0.8800000000000001 a2.6900000000000004,2.6900000000000004 0 0 0 -0.1,-0.8800000000000001 a1,1 0 0 0 -1.9,0 a2.6900000000000004,2.6900000000000004 0 0 0 -0.1,0.8800000000000001 a2.77,2.77 0 0 0 0.1,0.8800000000000001 a1,1 0 0 0 1.9,0 z" id="svg_32"/><path class="cls-1" d="M147.09000091552736,225.0999966430664 a3.26,3.26 0 0 1 -0.14,-1.09 a3.35,3.35 0 0 1 0.13,-1.09 a1.81,1.81 0 0 1 3.38,0 a3.4,3.4 0 0 1 0.14,1 a0.28,0.28 0 0 1 -0.30000000000000004,0.29000000000000004 h-2.5300000000000002 a0,0 0 0 0 0,0 a1.6800000000000002,1.6800000000000002 0 0 0 0.07,0.52 a1.06,1.06 0 0 0 1.09,0.7500000000000001 a1.58,1.58 0 0 0 1,-0.37000000000000005 a0.42000000000000004,0.42000000000000004 0 0 1 0.26,-0.11000000000000001 a0.31000000000000005,0.31000000000000005 0 0 1 0.31000000000000005,0.32000000000000006 a0.3400000000000001,0.3400000000000001 0 0 1 -0.12000000000000001,0.27 a2.2,2.2 0 0 1 -1.54,0.5900000000000001 A1.6600000000000001,1.6600000000000001 0 0 1 147.09000091552736,225.0999966430664 zm2.68,-1.46 s0.06000000000000001,0 0.06000000000000001,-0.05000000000000001 a1.4100000000000001,1.4100000000000001 0 0 0 -0.07,-0.49000000000000005 a1,1 0 0 0 -1,-0.6700000000000002 a1,1 0 0 0 -1,0.6700000000000002 a1.73,1.73 0 0 0 -0.06000000000000001,0.49000000000000005 s0,0.05000000000000001 0,0.05000000000000001 z" id="svg_33"/><path class="cls-1" d="M156.19000091552735,226.2199966430664 c-0.8800000000000001,0 -1.21,-0.37000000000000005 -1.21,-1.27 V222.5199966430664 s0,-0.06000000000000001 -0.05000000000000001,-0.06000000000000001 h-0.25 a0.29000000000000004,0.29000000000000004 0 0 1 -0.32000000000000006,-0.30000000000000004 a0.30000000000000004,0.30000000000000004 0 0 1 0.32000000000000006,-0.31000000000000005 h0.25 a0,0 0 0 0 0.05000000000000001,0 v-1 a0.38000000000000006,0.38000000000000006 0 1 1 0.7600000000000001,0 v1 a0,0 0 0 0 0.05000000000000001,0 h0.5700000000000001 a0.29000000000000004,0.29000000000000004 0 0 1 0.32000000000000006,0.31000000000000005 a0.28,0.28 0 0 1 -0.32000000000000006,0.30000000000000004 h-0.5700000000000001 s-0.05000000000000001,0 -0.05000000000000001,0.06000000000000001 v2.39 c0,0.46 0.11000000000000001,0.6000000000000001 0.5700000000000001,0.6000000000000001 a0.33000000000000007,0.33000000000000007 0 0 1 0.37000000000000005,0.35000000000000003 c0,0.21000000000000002 -0.13,0.35000000000000003 -0.4,0.35000000000000003 z" id="svg_34"/><path class="cls-1" d="M158.09000091552736,225.10999664306638 a4.07,4.07 0 0 1 0,-2.19 a1.83,1.83 0 0 1 3.4,0 a4.35,4.35 0 0 1 0,2.19 a1.83,1.83 0 0 1 -3.4,0 zm2.67,-0.21000000000000002 a2.94,2.94 0 0 0 0.1,-0.8900000000000001 a2.79,2.79 0 0 0 -0.1,-0.8700000000000001 a1,1 0 0 0 -1.94,0 a2.52,2.52 0 0 0 -0.1,0.8700000000000001 a2.6500000000000004,2.6500000000000004 0 0 0 0.1,0.8900000000000001 a1,1 0 0 0 1.94,0 z" id="svg_35"/><path class="cls-1" d="M165.93000091552733,227.43999664306642 V222.2199966430664 a0.38000000000000006,0.38000000000000006 0 1 1 0.7500000000000001,0 v0.12000000000000001 h0 a1.33,1.33 0 0 1 1.23,-0.5800000000000001 a1.5,1.5 0 0 1 1.48,1.08 a3.72,3.72 0 0 1 0.15000000000000002,1.18 a3.62,3.62 0 0 1 -0.15000000000000002,1.17 a1.48,1.48 0 0 1 -1.48,1.08 a1.32,1.32 0 0 1 -1.23,-0.5700000000000001 h0 v1.7400000000000002 a0.38000000000000006,0.38000000000000006 0 1 1 -0.7500000000000001,0 zm2.75,-2.54 a2.77,2.77 0 0 0 0.1,-0.8800000000000001 a2.6900000000000004,2.6900000000000004 0 0 0 -0.1,-0.8800000000000001 a1,1 0 0 0 -1.9,0 a2.6900000000000004,2.6900000000000004 0 0 0 -0.1,0.8800000000000001 a2.77,2.77 0 0 0 0.1,0.8800000000000001 a1,1 0 0 0 1.9,0 z" id="svg_36"/><path class="cls-1" d="M171.22000091552735,225.80999664306643 V222.2199966430664 a0.38000000000000006,0.38000000000000006 0 1 1 0.7500000000000001,0 v0.2 h0 a1.17,1.17 0 0 1 1.11,-0.6600000000000001 a1.27,1.27 0 0 1 0.6400000000000001,0.16000000000000003 a0.36000000000000004,0.36000000000000004 0 0 1 0.22000000000000003,0.32000000000000006 a0.37000000000000005,0.37000000000000005 0 0 1 -0.38000000000000006,0.38000000000000006 a0.45,0.45 0 0 1 -0.19000000000000003,-0.05000000000000001 a1.3900000000000001,1.3900000000000001 0 0 0 -0.5,-0.1 c-0.6400000000000001,0 -0.91,0.54 -0.91,1.26 v2.08 a0.38000000000000006,0.38000000000000006 0 1 1 -0.7500000000000001,0 z" id="svg_37"/><path class="cls-1" d="M175.05000091552733,225.0999966430664 a3.26,3.26 0 0 1 -0.14,-1.09 a3.35,3.35 0 0 1 0.13,-1.09 a1.6800000000000002,1.6800000000000002 0 0 1 1.6900000000000002,-1.1600000000000001 a1.6500000000000001,1.6500000000000001 0 0 1 1.6900000000000002,1.1600000000000001 a3.11,3.11 0 0 1 0.14,1 a0.28,0.28 0 0 1 -0.30000000000000004,0.29000000000000004 H175.74000091552733 s-0.06000000000000001,0 -0.06000000000000001,0 a1.6800000000000002,1.6800000000000002 0 0 0 0.07,0.52 a1.06,1.06 0 0 0 1.09,0.7500000000000001 a1.56,1.56 0 0 0 1,-0.37000000000000005 a0.42000000000000004,0.42000000000000004 0 0 1 0.26,-0.11000000000000001 a0.31000000000000005,0.31000000000000005 0 0 1 0.31000000000000005,0.32000000000000006 a0.37000000000000005,0.37000000000000005 0 0 1 -0.11000000000000001,0.27 a2.23,2.23 0 0 1 -1.55,0.5900000000000001 A1.6600000000000001,1.6600000000000001 0 0 1 175.05000091552733,225.0999966430664 zm2.68,-1.46 s0.06000000000000001,0 0.06000000000000001,-0.05000000000000001 a1.4100000000000001,1.4100000000000001 0 0 0 -0.07,-0.49000000000000005 a1,1 0 0 0 -1,-0.6700000000000002 a1,1 0 0 0 -1,0.6700000000000002 a1.73,1.73 0 0 0 -0.06000000000000001,0.49000000000000005 s0,0.05000000000000001 0.06000000000000001,0.05000000000000001 z" id="svg_38"/><path class="cls-1" d="M180.12000091552736,225.79999664306638 a0.37000000000000005,0.37000000000000005 0 0 1 -0.18000000000000002,-0.32000000000000006 a0.3400000000000001,0.3400000000000001 0 0 1 0.35000000000000003,-0.3400000000000001 a0.51,0.51 0 0 1 0.25,0.08000000000000002 a2.25,2.25 0 0 0 1.21,0.38000000000000006 c0.6200000000000001,0 0.9400000000000001,-0.27 0.9400000000000001,-0.6500000000000001 s-0.16000000000000003,-0.54 -0.8400000000000001,-0.6100000000000001 l-0.45,-0.05000000000000001 c-0.8500000000000001,-0.09000000000000002 -1.29,-0.52 -1.29,-1.21 s0.5800000000000001,-1.32 1.59,-1.32 a2.6100000000000003,2.6100000000000003 0 0 1 1.29,0.32000000000000006 a0.36000000000000004,0.36000000000000004 0 0 1 0.23,0.31000000000000005 a0.33000000000000007,0.33000000000000007 0 0 1 -0.33000000000000007,0.33000000000000007 a0.6000000000000001,0.6000000000000001 0 0 1 -0.27,-0.08000000000000002 a2.3200000000000003,2.3200000000000003 0 0 0 -1,-0.22000000000000003 c-0.54,0 -0.8200000000000001,0.24000000000000002 -0.8200000000000001,0.5900000000000001 s0.2,0.53 0.8400000000000001,0.5900000000000001 l0.45,0 c0.9,0.1 1.3,0.53 1.3,1.23 s-0.6100000000000001,1.4 -1.7600000000000002,1.4 A2.7800000000000002,2.7800000000000002 0 0 1 180.12000091552736,225.79999664306638 z" id="svg_39"/><path class="cls-1" d="M184.97000091552735,225.0999966430664 a3.26,3.26 0 0 1 -0.14,-1.09 a3.35,3.35 0 0 1 0.13,-1.09 a1.81,1.81 0 0 1 3.38,0 a3.4,3.4 0 0 1 0.14,1 a0.28,0.28 0 0 1 -0.30000000000000004,0.29000000000000004 h-2.5300000000000002 a0,0 0 0 0 -0.05000000000000001,0 a1.6800000000000002,1.6800000000000002 0 0 0 0.07,0.52 a1.06,1.06 0 0 0 1.09,0.7500000000000001 a1.58,1.58 0 0 0 1,-0.37000000000000005 a0.42000000000000004,0.42000000000000004 0 0 1 0.26,-0.11000000000000001 a0.31000000000000005,0.31000000000000005 0 0 1 0.31000000000000005,0.32000000000000006 a0.3400000000000001,0.3400000000000001 0 0 1 -0.12000000000000001,0.27 a2.2,2.2 0 0 1 -1.54,0.5900000000000001 A1.6600000000000001,1.6600000000000001 0 0 1 184.97000091552735,225.0999966430664 zm2.68,-1.46 s0.06000000000000001,0 0.06000000000000001,-0.05000000000000001 a1.4100000000000001,1.4100000000000001 0 0 0 -0.07,-0.49000000000000005 a1,1 0 0 0 -1,-0.6700000000000002 a1,1 0 0 0 -1,0.6700000000000002 a1.73,1.73 0 0 0 -0.06000000000000001,0.49000000000000005 s0,0.05000000000000001 0.05000000000000001,0.05000000000000001 z" id="svg_40"/><path class="cls-1" d="M190.14000091552734,225.80999664306643 V222.2199966430664 a0.37000000000000005,0.37000000000000005 0 0 1 0.38000000000000006,-0.4 a0.37000000000000005,0.37000000000000005 0 0 1 0.38000000000000006,0.4 v0.2 h0 a1.17,1.17 0 0 1 1.11,-0.6600000000000001 a1.3,1.3 0 0 1 0.6400000000000001,0.16000000000000003 a0.35000000000000003,0.35000000000000003 0 0 1 0.21000000000000002,0.32000000000000006 a0.36000000000000004,0.36000000000000004 0 0 1 -0.38000000000000006,0.38000000000000006 a0.54,0.54 0 0 1 -0.19000000000000003,-0.05000000000000001 a1.34,1.34 0 0 0 -0.49000000000000005,-0.1 c-0.6500000000000001,0 -0.91,0.54 -0.91,1.26 v2.08 a0.37000000000000005,0.37000000000000005 0 0 1 -0.38000000000000006,0.41000000000000003 A0.38000000000000006,0.38000000000000006 0 0 1 190.14000091552734,225.80999664306643 z" id="svg_41"/><path class="cls-1" d="M195.17000091552734,225.74999664306642 l-1.3,-3.38 a0.5,0.5 0 0 1 0,-0.19000000000000003 a0.35000000000000003,0.35000000000000003 0 0 1 0.37000000000000005,-0.36000000000000004 a0.38000000000000006,0.38000000000000006 0 0 1 0.36000000000000004,0.27 l1.12,3 h0 l1.09,-3 a0.38000000000000006,0.38000000000000006 0 0 1 0.36000000000000004,-0.27 a0.35000000000000003,0.35000000000000003 0 0 1 0.37000000000000005,0.36000000000000004 a0.5,0.5 0 0 1 0,0.19000000000000003 l-1.32,3.38 c-0.13,0.35000000000000003 -0.25,0.47000000000000003 -0.49000000000000005,0.47000000000000003 S195.31000091552735,226.0999966430664 195.17000091552734,225.74999664306642 z" id="svg_42"/><path class="cls-1" d="M198.88000091552735,225.0999966430664 a3.26,3.26 0 0 1 -0.14,-1.09 a3.35,3.35 0 0 1 0.13,-1.09 a1.6800000000000002,1.6800000000000002 0 0 1 1.6900000000000002,-1.1600000000000001 a1.6400000000000001,1.6400000000000001 0 0 1 1.6900000000000002,1.1600000000000001 a3.11,3.11 0 0 1 0.14,1 a0.27,0.27 0 0 1 -0.29000000000000004,0.29000000000000004 H199.54000091552734 s-0.06000000000000001,0 -0.06000000000000001,0 a1.6800000000000002,1.6800000000000002 0 0 0 0.07,0.52 a1.06,1.06 0 0 0 1.09,0.7500000000000001 a1.54,1.54 0 0 0 1,-0.37000000000000005 a0.42000000000000004,0.42000000000000004 0 0 1 0.26,-0.11000000000000001 a0.32000000000000006,0.32000000000000006 0 0 1 0.32000000000000006,0.32000000000000006 a0.38000000000000006,0.38000000000000006 0 0 1 -0.12000000000000001,0.27 a2.23,2.23 0 0 1 -1.55,0.5900000000000001 A1.6700000000000002,1.6700000000000002 0 0 1 198.88000091552735,225.0999966430664 zm2.6900000000000004,-1.46 s0.05000000000000001,0 0.05000000000000001,-0.05000000000000001 a1.73,1.73 0 0 0 -0.06000000000000001,-0.49000000000000005 a1,1 0 0 0 -1,-0.6700000000000002 a1,1 0 0 0 -1,0.6700000000000002 a1.4100000000000001,1.4100000000000001 0 0 0 -0.07,0.49000000000000005 s0,0.05000000000000001 0.06000000000000001,0.05000000000000001 z" id="svg_43"/><path class="cls-1" d="M204.38000091552735,225.18999664306642 a0.52,0.52 0 0 1 0.51,0.52 a0.51,0.51 0 0 1 -1,0 A0.52,0.52 0 0 1 204.38000091552735,225.18999664306642 z" id="svg_44"/><path class="cls-1" d="M124.29000091552734,41.27999664306641 V37.0899966430664 c0.5900000000000001,-0.53 1.4300000000000002,-1.25 2.51,-2.18 l2.51,-2.16 c0.5900000000000001,-0.52 1.28,-1.1600000000000001 2.08,-2 a17.07,17.07 0 0 0 1.78,-2 a6.78,6.78 0 0 0 1.55,-3.73 c0,-1.87 -0.8300000000000001,-2.81 -2.48,-2.81 a2.29,2.29 0 0 0 -1.8800000000000001,0.8500000000000001 a3.71,3.71 0 0 0 -0.6900000000000002,2.42 h-5.45 a7.57,7.57 0 0 1 2.3,-6 a8.76,8.76 0 0 1 6,-2 a7.75,7.75 0 0 1 5.8100000000000005,2.13 a7.1,7.1 0 0 1 2.08,5.13 a7.82,7.82 0 0 1 -1,4 c-0.4,0.6700000000000002 -0.7400000000000001,1.23 -1,1.6900000000000002 a10.51,10.51 0 0 1 -1.4100000000000001,1.71 c-0.6600000000000001,0.6900000000000002 -1.15,1.18 -1.46,1.49 s-0.8700000000000001,0.8400000000000001 -1.7000000000000002,1.58 S132.54000091552734,36.519996643066406 132.28000091552735,36.68999664306641 h8.58 v4.59 z" id="svg_45"/><g class="cls-2" id="svg_46"><path class="cls-1" d="M11.95000091552734,35.99999664306641 H0.010000915527342613 v-36 h36 V11.849996643066405 h-24 z" id="svg_47"/><path class="cls-1" d="M253.28000091552735,11.879996643066406 H229.07000091552732 V0.02999664306640426 h36 v36 H253.28000091552735 z" id="svg_48"/><path class="cls-1" d="M0.03000091552734574,229.04999664306638 H11.910000915527341 v24.08 H36.00000091552734 v11.86 h-36 z" id="svg_49"/><path class="cls-1" d="M229.06000091552733,265.0099966430664 V253.1599966430664 h24.07 v-24.1 h11.94 v35.95 z" id="svg_50"/></g><path class="cls-1" d="M90.54000091552734,66.7099966430664 a1.52,1.52 0 0 1 -0.78,-1.31 a1.3900000000000001,1.3900000000000001 0 0 1 1.46,-1.37 a2,2 0 0 1 1,0.25 a6.47,6.47 0 0 0 3.25,0.93 c1.61,0 2.48,-0.7000000000000001 2.48,-1.6900000000000002 s-0.54,-1.37 -2.34,-1.61 l-0.8,-0.1 c-3.1,-0.4 -4.79,-1.78 -4.79,-4.3100000000000005 s2.09,-4.4 5.37,-4.4 a9.25,9.25 0 0 1 4.23,1 a1.4100000000000001,1.4100000000000001 0 0 1 0.78,1.25 a1.36,1.36 0 0 1 -1.4300000000000002,1.35 a2.29,2.29 0 0 1 -1,-0.23 a6.37,6.37 0 0 0 -2.6,-0.5900000000000001 c-1.34,0 -2.05,0.6300000000000001 -2.05,1.54 s0.6000000000000001,1.35 2.36,1.59 l0.8,0.1 c3.14,0.42000000000000004 4.77,1.7600000000000002 4.77,4.35 s-2,4.53 -5.95,4.53 A9.37,9.37 0 0 1 90.54000091552734,66.7099966430664 z" id="svg_51"/><path class="cls-1" d="M105.73000091552734,54.709996643066404 a1.3,1.3 0 0 1 1.42,-1.37 H114.54000091552734 a1.35,1.35 0 1 1 0,2.68 h-5.37 c-0.09000000000000002,0 -0.13,0 -0.13,0.13 v2.85 a0.12000000000000001,0.12000000000000001 0 0 0 0.13,0.13 h4.3 a1.34,1.34 0 1 1 0,2.66 h-4.3 c-0.09000000000000002,0 -0.13,0 -0.13,0.12000000000000001 v3 c0,0.09000000000000002 0,0.13 0.13,0.13 H114.54000091552734 a1.35,1.35 0 1 1 0,2.68 h-7.35 a1.3,1.3 0 0 1 -1.42,-1.37 z" id="svg_52"/><path class="cls-1" d="M120.54000091552734,54.85999664306641 a1.6400000000000001,1.6400000000000001 0 1 1 3.27,0 v10 a0.12000000000000001,0.12000000000000001 0 0 0 0.13,0.13 h5.39 c1,0 1.6500000000000001,0.5700000000000001 1.6500000000000001,1.37 s-0.6400000000000001,1.3900000000000001 -1.6500000000000001,1.3900000000000001 h-7.15 a1.51,1.51 0 0 1 -1.6400000000000001,-1.56 z" id="svg_53"/><path class="cls-1" d="M135.01000091552734,54.709996643066404 a1.31,1.31 0 0 1 1.4300000000000002,-1.37 h7.35 a1.35,1.35 0 1 1 0,2.68 h-5.37 c-0.09000000000000002,0 -0.13,0 -0.13,0.13 v2.85 a0.12000000000000001,0.12000000000000001 0 0 0 0.13,0.13 h4.3 a1.34,1.34 0 1 1 0,2.66 h-4.3 c-0.09000000000000002,0 -0.13,0 -0.13,0.12000000000000001 v3 c0,0.09000000000000002 0,0.13 0.13,0.13 h5.37 a1.35,1.35 0 1 1 0,2.68 H136.44000091552735 a1.31,1.31 0 0 1 -1.4300000000000002,-1.37 z" id="svg_54"/><path class="cls-1" d="M149.42000091552734,60.519996643066406 a11,11 0 0 1 0.42000000000000004,-3.89 c0.8,-2.34 2.77,-3.5300000000000002 5.42,-3.5300000000000002 a5.29,5.29 0 0 1 4.7,2.29 a1.81,1.81 0 0 1 0.28,0.93 a1.4100000000000001,1.4100000000000001 0 0 1 -1.49,1.3900000000000001 a1.71,1.71 0 0 1 -1.45,-0.8 a2.29,2.29 0 0 0 -2,-1.06 a2.21,2.21 0 0 0 -2.2800000000000002,1.58 a9.42,9.42 0 0 0 -0.24000000000000002,3.09 a9.42,9.42 0 0 0 0.24000000000000002,3.09 a2.21,2.21 0 0 0 2.2800000000000002,1.58 a2.29,2.29 0 0 0 2,-1.06 a1.71,1.71 0 0 1 1.45,-0.8 a1.4100000000000001,1.4100000000000001 0 0 1 1.49,1.3900000000000001 a1.81,1.81 0 0 1 -0.28,0.93 a5.29,5.29 0 0 1 -4.7,2.29 c-2.6500000000000004,0 -4.62,-1.19 -5.42,-3.5300000000000002 A11,11 0 0 1 149.42000091552734,60.519996643066406 z" id="svg_55"/><path class="cls-1" d="M167.73000091552734,66.1799966430664 v-10 a0.12000000000000001,0.12000000000000001 0 0 0 -0.14,-0.13 h-2.56 c-1,0 -1.6500000000000001,-0.5700000000000001 -1.6500000000000001,-1.37 s0.6500000000000001,-1.3900000000000001 1.6500000000000001,-1.3900000000000001 h8.67 c1,0 1.6400000000000001,0.5700000000000001 1.6400000000000001,1.3900000000000001 s-0.6400000000000001,1.37 -1.6400000000000001,1.37 H171.14000091552734 a0.12000000000000001,0.12000000000000001 0 0 0 -0.14,0.13 v10 a1.6400000000000001,1.6400000000000001 0 1 1 -3.27,0 z" id="svg_56"/><circle class="cls-3" cx="132.54000091552734" cy="132.5199966430664" r="48.13999938964844" id="svg_57"/><path class="cls-1" d="M132.54000091552734,182.4099966430664 a49.89,49.89 0 1 1 37.61,-17 h0 A49.82,49.82 0 0 1 132.54000091552734,182.4099966430664 zm0.06000000000000001,-96.24 a46.36,46.36 0 1 0 34.88,76.86 h0 A46.34,46.34 0 0 0 132.54000091552734,86.16999664306641 z" id="svg_58"/><path class="cls-1" d="M153.70000091552734,108.75999664306642 h1.37 a3.88,3.88 0 0 1 2.74,1.26 a3.93,3.93 0 0 1 1,2.21 a4,4 0 0 1 0,0.49000000000000005 v22 a4,4 0 0 1 -3.06,3.85 a3.9,3.9 0 0 1 -1,0.11000000000000001 H133.01000091552734 a3.94,3.94 0 0 1 -3.94,-3.18 a4.36,4.36 0 0 1 -0.08000000000000002,-0.81 c0,-0.38000000000000006 0,-0.7600000000000001 0,-1.13 v-0.13 h-1.35 a3.8600000000000003,3.8600000000000003 0 0 1 -2.38,-0.9 a4,4 0 0 1 -1.4300000000000002,-2.67 a3.17,3.17 0 0 1 0,-0.43000000000000005 V107.5199966430664 a4,4 0 0 1 3.16,-3.91 a4.21,4.21 0 0 1 0.8700000000000001,-0.09000000000000002 h21.85 a4,4 0 0 1 3.92,3.11 a4.59,4.59 0 0 1 0.1,0.8200000000000001 c0,0.41000000000000003 0,0.81 0,1.22 zm-11.91,18.65 l0.6400000000000001,-0.81 l6.74,-8.53 a1.53,1.53 0 0 1 2.27,-0.18000000000000002 a5.46,5.46 0 0 1 0.38000000000000006,0.44000000000000006 l4.35,5.5 l0.45,0.5700000000000001 v-0.11000000000000001 c0,-3.84 0,-7.68 0,-11.52 a1.6700000000000002,1.6700000000000002 0 0 0 -0.6100000000000001,-1.3 a1.79,1.79 0 0 0 -1.27,-0.45 H132.84000091552736 a1.79,1.79 0 0 0 -1.6700000000000002,1.75 q0,8.37 0,16.74 v0.11000000000000001 l1,-1 l2.6100000000000003,-2.83 c0.53,-0.5900000000000001 1.06,-1.17 1.61,-1.75 a1.58,1.58 0 0 1 2.3,0 c0.6800000000000002,0.7200000000000001 1.34,1.45 2,2.18 zm-12.81,3.8200000000000003 v-0.17 q0,-9.14 0,-18.26 a4.33,4.33 0 0 1 0.07,-0.8 a3.89,3.89 0 0 1 2,-2.7600000000000002 a4.11,4.11 0 0 1 2,-0.48000000000000004 H151.54000091552734 v-0.11000000000000001 c0,-0.38000000000000006 0,-0.7600000000000001 0,-1.1400000000000001 a1.37,1.37 0 0 0 0,-0.29000000000000004 a1.8,1.8 0 0 0 -1.79,-1.49 H127.83000091552734 a1.92,1.92 0 0 0 -0.5900000000000001,0.1 a1.81,1.81 0 0 0 -1.22,1.7200000000000002 c0,4.32 0,8.64 0,12.95 q0,4.44 0,8.88 a1.7400000000000002,1.7400000000000002 0 0 0 1,1.6400000000000001 a2.06,2.06 0 0 0 0.8800000000000001,0.2 c0.30000000000000004,0 0.6000000000000001,0 0.91,0 z" id="svg_59"/><path class="cls-1" d="M136.68000091552733,113.94999664306641 a2.52,2.52 0 1 1 -2.51,2.51 A2.52,2.52 0 0 1 136.68000091552733,113.94999664306641 z" id="svg_60"/><path class="cls-1" d="M116.37000091552736,150.5199966430664 l0.23,-0.26 l7.07,-7.85 a1.7600000000000002,1.7600000000000002 0 0 0 0.23,-2.08 a1.73,1.73 0 0 0 -2.77,-0.28 c-1.35,1.49 -2.6900000000000004,3 -4,4.48 l-0.18000000000000002,0.2 h0 a0.8700000000000001,0.8700000000000001 0 0 1 0.07,-0.17 a1.7600000000000002,1.7600000000000002 0 0 0 -0.6900000000000002,-2.18 a1.73,1.73 0 0 0 -2.18,0.32000000000000006 c-0.4,0.43000000000000005 -0.79,0.8700000000000001 -1.18,1.3 c0,0 0,0 0,0 l0.08000000000000002,-0.21000000000000002 a1.7400000000000002,1.7400000000000002 0 0 0 -0.6800000000000002,-2.13 a1.71,1.71 0 0 0 -2.18,0.29000000000000004 c-0.21000000000000002,0.22000000000000003 -0.41000000000000003,0.44000000000000006 -0.6100000000000001,0.6700000000000002 s-0.39000000000000007,0.43000000000000005 -0.6100000000000001,0.6400000000000001 a1.87,1.87 0 0 1 0.07,-0.22000000000000003 a1.73,1.73 0 0 0 -0.6600000000000001,-2.08 a1.71,1.71 0 0 0 -2.11,0.17 l-0.19000000000000003,0.19000000000000003 q-3.36,3.72 -6.7,7.45 a2.12,2.12 0 0 0 -0.22000000000000003,2.73 a2.7,2.7 0 0 0 0.46,0.5 c2.77,2.5 5.5600000000000005,5 8.33,7.5 a1,1 0 0 0 1.2,0.24000000000000002 c1,-0.48000000000000004 2,-0.9400000000000001 2.91,-1.46 c2.87,-1.57 5.72,-3.17 8.58,-4.75 a0.8700000000000001,0.8700000000000001 0 0 0 0.43000000000000005,-1.24 a2.56,2.56 0 0 0 -1.29,-1.3 a5.83,5.83 0 0 0 -3,-0.51 z" id="svg_61"/><path class="cls-1" d="M125.87000091552736,137.8699966430664 c0.35000000000000003,-0.38000000000000006 0.6900000000000002,-0.77 1,-1.1600000000000001 c0.22000000000000003,-0.24000000000000002 0.23,-0.49000000000000005 0,-0.6600000000000001 a0.42000000000000004,0.42000000000000004 0 0 0 -0.6400000000000001,0.09000000000000002 c-0.7100000000000001,0.79 -1.42,1.57 -2.12,2.36 c-0.26,0.29000000000000004 -0.19000000000000003,0.6400000000000001 0.14,0.7400000000000001 a0.43000000000000005,0.43000000000000005 0 0 0 0.47000000000000003,-0.17 z" id="svg_62"/><path class="cls-1" d="M117.54000091552734,138.3099966430664 l1.23,1.11 a0.37000000000000005,0.37000000000000005 0 0 0 0.49000000000000005,0.07 a0.6800000000000002,0.6800000000000002 0 0 0 0.21000000000000002,-0.4 a0.49000000000000005,0.49000000000000005 0 0 0 -0.16000000000000003,-0.31000000000000005 c-0.8,-0.7200000000000001 -1.6,-1.45 -2.41,-2.16 a0.43000000000000005,0.43000000000000005 0 0 0 -0.6300000000000001,0 a0.44000000000000006,0.44000000000000006 0 0 0 0.1,0.6400000000000001 c0.38000000000000006,0.36000000000000004 0.78,0.7100000000000001 1.17,1.06 z" id="svg_63"/><path class="cls-1" d="M125.69000091552735,145.6799966430664 c0.36000000000000004,0.33000000000000007 0.7200000000000001,0.6600000000000001 1.09,1 a1,1 0 0 0 0.23,0.18000000000000002 a0.4,0.4 0 0 0 0.54,-0.56 a1,1 0 0 0 -0.21000000000000002,-0.24000000000000002 l-2.21,-2 a1.58,1.58 0 0 0 -0.15000000000000002,-0.12000000000000001 a0.41000000000000003,0.41000000000000003 0 0 0 -0.5900000000000001,0.05000000000000001 a0.4,0.4 0 0 0 0.05000000000000001,0.5700000000000001 c0.16000000000000003,0.17 0.3400000000000001,0.31000000000000005 0.51,0.46 S125.44000091552735,145.4599966430664 125.69000091552735,145.6799966430664 z" id="svg_64"/><path class="cls-1" d="M125.44000091552735,141.1399966430664 a0.43000000000000005,0.43000000000000005 0 0 0 0.15000000000000002,0.7400000000000001 a0.93,0.93 0 0 0 0.24000000000000002,0 l3.09,-0.17 h0.14 a0.4,0.4 0 0 0 0.38000000000000006,-0.43000000000000005 a0.42000000000000004,0.42000000000000004 0 0 0 -0.44000000000000006,-0.39000000000000007 a1.61,1.61 0 0 0 -0.31000000000000005,0 l-2.9,0.16000000000000003 A1.77,1.77 0 0 0 125.44000091552735,141.1399966430664 z" id="svg_65"/><path class="cls-1" d="M121.16000091552735,134.1999966430664 a1.85,1.85 0 0 0 -0.07,0.41000000000000003 c0,1.08 0.1,2.16 0.16000000000000003,3.23 a0.42000000000000004,0.42000000000000004 0 0 0 0.43000000000000005,0.44000000000000006 a0.4,0.4 0 0 0 0.4,-0.47000000000000003 c0,-1.09 -0.11000000000000001,-2.19 -0.17,-3.2800000000000002 a0.39000000000000007,0.39000000000000007 0 0 0 -0.30000000000000004,-0.39000000000000007 A1.22,1.22 0 0 0 121.16000091552735,134.1999966430664 z" id="svg_66"/></g></svg>