<svg xmlns="http://www.w3.org/2000/svg" data-name="Layer 1" width="265" height="265"><rect id="backgroundrect" width="100%" height="100%" x="0" y="0" fill="none" stroke="none"/><defs><style>.cls-1{fill:#f05a28;}.cls-2{fill:#fff;}.cls-3{opacity:0.09;}</style></defs><title>Eidetic_SocialMediaInfoGraphics_Feb182018-01-01</title><g class="currentLayer" style=""><title>Layer 1</title><circle class="cls-1" cx="132.54000091552734" cy="132.5199966430664" r="48.119998931884766" id="svg_1"/><path class="cls-2" d="M132.54000091552734,182.4099966430664 a49.89,49.89 0 0 1 -1,-99.77 H132.54000091552734 a49.89,49.89 0 0 1 1,99.77 h-1 zm0,-96.24 h-1 a46.35,46.35 0 0 0 1,92.69 h1 a46.35,46.35 0 0 0 -1,-92.69 z" id="svg_2"/><path class="cls-2" d="M134.82000091552734,152.3099966430664 H119.60000091552735 a6,6 0 0 1 -5.32,-2.85 a5.54,5.54 0 0 1 -0.93,-3.08 q0,-14.49 0,-29 a4.77,4.77 0 0 1 4.85,-4.69 h28.57 a4.8100000000000005,4.8100000000000005 0 0 1 4.86,3.8200000000000003 a4.68,4.68 0 0 1 0.1,1 v22.25 a1.4300000000000002,1.4300000000000002 0 0 1 -1.4,1.44 H119.59000091552736 a3.47,3.47 0 0 0 -3,1.46 a3.07,3.07 0 0 0 -0.6000000000000001,1.59 a9.94,9.94 0 0 0 0.08000000000000002,2.83 a3.42,3.42 0 0 0 3.24,2.6 h30.9 a1.42,1.42 0 0 1 1.26,0.53 a1.27,1.27 0 0 1 -0.8200000000000001,2 a3.87,3.87 0 0 1 -0.48000000000000004,0 zM132.54000091552734,117.22999664306641 h-6.47 a5.67,5.67 0 0 0 -3.17,0.8300000000000001 a3.75,3.75 0 0 0 -1.94,3.19 c0,3.79 0,7.58 0,11.38 a3.35,3.35 0 0 0 0.7500000000000001,2.12 a4.92,4.92 0 0 0 4,1.8800000000000001 c4.52,0 9,0 13.56,0 a5.14,5.14 0 0 0 2.88,-0.8500000000000001 a3.83,3.83 0 0 0 1.9100000000000001,-3.39 q0,-5.46 0,-10.92 a3.88,3.88 0 0 0 -2.1,-3.52 a5.640000000000001,5.640000000000001 0 0 0 -3,-0.7300000000000001 z" id="svg_3"/><path class="cls-2" d="M133.08000091552734,144.1399966430664 h12.53 a1.29,1.29 0 0 1 0.36000000000000004,2.54 a3.29,3.29 0 0 1 -0.54,0.05000000000000001 H120.68000091552733 c-0.8800000000000001,0 -1.42,-0.39000000000000007 -1.53,-1.1 a1.28,1.28 0 0 1 1.22,-1.48 h12.71 z" id="svg_4"/><path class="cls-2" d="M141.28000091552735,125.8099966430664 l-2.14,-1.79 a1.3,1.3 0 0 0 -1.9300000000000002,0 l-5.83,4.87 c-0.32000000000000006,0.27 -0.51,0.27 -0.8500000000000001,0 L128.89000091552734,127.5199966430664 a1.28,1.28 0 0 0 -1.8,0 l-3.15,2.64 l-0.09000000000000002,0 a2.46,2.46 0 0 1 0,-0.26 v-8.620000000000001 a1.8,1.8 0 0 1 1.6400000000000001,-1.6500000000000001 a8.06,8.06 0 0 1 0.8500000000000001,0 H138.94000091552735 a4.2,4.2 0 0 1 0.93,0.1 a1.81,1.81 0 0 1 1.42,1.81 c-0.05000000000000001,1.27 0,2.56 0,3.84 zm-12.81,-0.30000000000000004 a2.36,2.36 0 0 0 1.27,-0.37000000000000005 a1.7000000000000002,1.7000000000000002 0 0 0 0.30000000000000004,-2.83 a2.59,2.59 0 0 0 -3.25,-0.07 a1.6600000000000001,1.6600000000000001 0 0 0 -0.1,2.64 A2.39,2.39 0 0 0 128.47000091552735,125.5199966430664 z" id="svg_5"/><path class="cls-2" d="M96.33000091552734,66.5199966430664 l-2.34,-4.49 h-2 c-0.08000000000000002,0 -0.13,0 -0.13,0.12000000000000001 v3.71 a1.46,1.46 0 0 1 -1.49,1.6 a1.48,1.48 0 0 1 -1.52,-1.6 V54.7299966430664 a1.23,1.23 0 0 1 1.31,-1.33 H94.54000091552734 c2.88,0 4.76,1.79 4.76,4.33 a4.06,4.06 0 0 1 -2.29,3.77 l2,3.7 a1.7600000000000002,1.7600000000000002 0 0 1 0.2,0.8400000000000001 a1.37,1.37 0 0 1 -1.4300000000000002,1.4300000000000002 A1.59,1.59 0 0 1 96.33000091552734,66.5199966430664 zm0,-8.78 a1.7000000000000002,1.7000000000000002 0 0 0 -1.8900000000000001,-1.7400000000000002 H91.94000091552735 c-0.08000000000000002,0 -0.13,0 -0.13,0.12000000000000001 v3.22 c0,0.08000000000000002 0,0.12000000000000001 0.13,0.12000000000000001 h2.46 A1.6900000000000002,1.6900000000000002 0 0 0 96.29000091552734,57.74999664306641 z" id="svg_6"/><path class="cls-2" d="M103.66000091552735,54.7299966430664 a1.23,1.23 0 0 1 1.31,-1.33 h6.77 a1.31,1.31 0 1 1 0,2.6100000000000003 h-4.94 c-0.09000000000000002,0 -0.13,0 -0.13,0.12000000000000001 v2.77 c0,0.08000000000000002 0,0.12000000000000001 0.13,0.12000000000000001 h4 a1.3,1.3 0 1 1 0,2.59 h-4 c-0.09000000000000002,0 -0.13,0 -0.13,0.12000000000000001 v2.89 a0.12000000000000001,0.12000000000000001 0 0 0 0.13,0.13 h4.94 a1.3,1.3 0 1 1 0,2.6 h-6.77 a1.23,1.23 0 0 1 -1.31,-1.33 z" id="svg_7"/><path class="cls-2" d="M116.93000091552733,60.379996643066406 a11.36,11.36 0 0 1 0.39000000000000007,-3.7800000000000002 a5.35,5.35 0 0 1 9.32,-1.21 a1.81,1.81 0 0 1 0.26,0.9 a1.33,1.33 0 0 1 -1.37,1.36 a1.55,1.55 0 0 1 -1.33,-0.78 a2.11,2.11 0 0 0 -1.8900000000000001,-1 a2,2 0 0 0 -2.09,1.54 a9.33,9.33 0 0 0 -0.23,3 a9.24,9.24 0 0 0 0.23,3 a2,2 0 0 0 2.09,1.54 a2.11,2.11 0 0 0 1.8900000000000001,-1 a1.55,1.55 0 0 1 1.33,-0.78 a1.33,1.33 0 0 1 1.37,1.36 a1.81,1.81 0 0 1 -0.26,0.9 a5.34,5.34 0 0 1 -9.32,-1.21 A11.32,11.32 0 0 1 116.93000091552733,60.379996643066406 z" id="svg_8"/><path class="cls-2" d="M131.16000091552735,54.7299966430664 a1.23,1.23 0 0 1 1.31,-1.33 h6.77 a1.31,1.31 0 1 1 0,2.6100000000000003 h-4.94 c-0.09000000000000002,0 -0.13,0 -0.13,0.12000000000000001 v2.77 c0,0.08000000000000002 0,0.12000000000000001 0.13,0.12000000000000001 h4 a1.3,1.3 0 1 1 0,2.59 h-4 c-0.09000000000000002,0 -0.13,0 -0.13,0.12000000000000001 v2.89 a0.12000000000000001,0.12000000000000001 0 0 0 0.13,0.13 h4.94 a1.3,1.3 0 1 1 0,2.6 h-6.77 a1.23,1.23 0 0 1 -1.31,-1.33 z" id="svg_9"/><path class="cls-2" d="M144.80000091552733,54.879996643066406 a1.51,1.51 0 1 1 3,0 v11 a1.51,1.51 0 1 1 -3,0 z" id="svg_10"/><path class="cls-2" d="M155.39000091552734,65.7099966430664 l-3.55,-10.38 a2.31,2.31 0 0 1 -0.1,-0.6400000000000001 a1.42,1.42 0 0 1 1.48,-1.4100000000000001 a1.45,1.45 0 0 1 1.45,1.17 l2.6900000000000004,8.31 h0.06000000000000001 l2.55,-8.31 a1.44,1.44 0 0 1 1.45,-1.17 a1.4,1.4 0 0 1 1.46,1.4100000000000001 a2.31,2.31 0 0 1 -0.1,0.6400000000000001 l-3.55,10.38 c-0.45,1.29 -1,1.7600000000000002 -1.9100000000000001,1.7600000000000002 S155.84000091552736,66.99999664306641 155.39000091552734,65.7099966430664 z" id="svg_11"/><path class="cls-2" d="M166.80000091552733,54.7299966430664 a1.23,1.23 0 0 1 1.32,-1.33 h6.76 a1.31,1.31 0 1 1 0,2.6100000000000003 H169.94000091552735 a0.11000000000000001,0.11000000000000001 0 0 0 -0.12000000000000001,0.12000000000000001 v2.77 a0.11000000000000001,0.11000000000000001 0 0 0 0.12000000000000001,0.12000000000000001 h4 a1.3,1.3 0 1 1 0,2.59 h-4 a0.11000000000000001,0.11000000000000001 0 0 0 -0.12000000000000001,0.12000000000000001 v2.89 c0,0.08000000000000002 0,0.13 0.12000000000000001,0.13 h4.94 a1.3,1.3 0 1 1 0,2.6 h-6.76 a1.23,1.23 0 0 1 -1.32,-1.33 z" id="svg_12"/><path class="cls-2" d="M39.78000091552734,212.30999664306643 a5.27,5.27 0 0 1 0.17,-1.71 a2.14,2.14 0 0 1 3.84,-0.45 a0.5900000000000001,0.5900000000000001 0 0 1 0.07,0.25 a0.35000000000000003,0.35000000000000003 0 0 1 -0.37000000000000005,0.37000000000000005 a0.41000000000000003,0.41000000000000003 0 0 1 -0.36000000000000004,-0.22000000000000003 a1.28,1.28 0 0 0 -1.13,-0.6500000000000001 a1.24,1.24 0 0 0 -1.26,0.9500000000000001 a4.42,4.42 0 0 0 -0.15000000000000002,1.46 a4.54,4.54 0 0 0 0.15000000000000002,1.47 a1.24,1.24 0 0 0 1.26,0.9500000000000001 a1.28,1.28 0 0 0 1.13,-0.6500000000000001 a0.42000000000000004,0.42000000000000004 0 0 1 0.36000000000000004,-0.23 a0.36000000000000004,0.36000000000000004 0 0 1 0.37000000000000005,0.37000000000000005 a0.55,0.55 0 0 1 -0.07,0.25 a2.14,2.14 0 0 1 -3.84,-0.45 A5.24,5.24 0 0 1 39.78000091552734,212.30999664306643 z" id="svg_13"/><path class="cls-2" d="M45.38000091552735,214.30999664306643 a3.19,3.19 0 0 1 -0.14,-1.1 a3.24,3.24 0 0 1 0.14,-1.09 a1.83,1.83 0 0 1 3.4,0 a3.21,3.21 0 0 1 0.15000000000000002,1.09 a3.15,3.15 0 0 1 -0.15000000000000002,1.1 a1.83,1.83 0 0 1 -3.4,0 zm2.67,-0.21000000000000002 a2.6500000000000004,2.6500000000000004 0 0 0 0.1,-0.8900000000000001 a2.52,2.52 0 0 0 -0.1,-0.8700000000000001 a1,1 0 0 0 -1.94,0 a2.79,2.79 0 0 0 -0.1,0.8700000000000001 a2.94,2.94 0 0 0 0.1,0.8900000000000001 a1,1 0 0 0 1.94,0 z" id="svg_14"/><path class="cls-2" d="M51.63000091552735,215.41999664306638 c-0.78,0 -1.06,-0.38000000000000006 -1.06,-1.15 v-4.66 a0.37000000000000005,0.37000000000000005 0 0 1 0.38000000000000006,-0.4 a0.37000000000000005,0.37000000000000005 0 0 1 0.38000000000000006,0.4 v4.61 c0,0.36000000000000004 0.12000000000000001,0.5 0.41000000000000003,0.5 a0.33000000000000007,0.33000000000000007 0 0 1 0.35000000000000003,0.35000000000000003 a0.33000000000000007,0.33000000000000007 0 0 1 -0.38000000000000006,0.35000000000000003 z" id="svg_15"/><path class="cls-2" d="M54.540000915527344,215.41999664306638 c-0.78,0 -1.05,-0.38000000000000006 -1.05,-1.15 v-4.66 a0.38000000000000006,0.38000000000000006 0 1 1 0.7500000000000001,0 v4.61 c0,0.36000000000000004 0.12000000000000001,0.5 0.42000000000000004,0.5 a0.33000000000000007,0.33000000000000007 0 0 1 0.35000000000000003,0.35000000000000003 a0.3400000000000001,0.3400000000000001 0 0 1 -0.39000000000000007,0.35000000000000003 z" id="svg_16"/><path class="cls-2" d="M56.39000091552734,214.29999664306638 a3.21,3.21 0 0 1 -0.15000000000000002,-1.09 a3.34,3.34 0 0 1 0.14,-1.09 a1.6600000000000001,1.6600000000000001 0 0 1 1.6800000000000002,-1.1600000000000001 a1.6400000000000001,1.6400000000000001 0 0 1 1.6900000000000002,1.1600000000000001 a3.09,3.09 0 0 1 0.15000000000000002,1 a0.28,0.28 0 0 1 -0.30000000000000004,0.29000000000000004 h-2.5300000000000002 a0,0 0 0 0 0,0.05000000000000001 a1.6800000000000002,1.6800000000000002 0 0 0 0.07,0.52 a1.06,1.06 0 0 0 1.09,0.7500000000000001 a1.53,1.53 0 0 0 1,-0.37000000000000005 a0.45,0.45 0 0 1 0.27,-0.11000000000000001 a0.31000000000000005,0.31000000000000005 0 0 1 0.31000000000000005,0.32000000000000006 a0.3400000000000001,0.3400000000000001 0 0 1 -0.12000000000000001,0.27 a2.23,2.23 0 0 1 -1.55,0.5900000000000001 A1.6500000000000001,1.6500000000000001 0 0 1 56.39000091552734,214.29999664306638 zm2.68,-1.45 s0,0 0,-0.06000000000000001 a1.34,1.34 0 0 0 -0.06000000000000001,-0.48000000000000004 a1.06,1.06 0 0 0 -2,0 a1.61,1.61 0 0 0 -0.06000000000000001,0.48000000000000004 s0,0.06000000000000001 0,0.06000000000000001 z" id="svg_17"/><path class="cls-2" d="M61.44000091552735,214.30999664306643 a3.72,3.72 0 0 1 -0.14,-1.1 a3.8,3.8 0 0 1 0.14,-1.09 a1.83,1.83 0 0 1 3.08,-0.53 a0.46,0.46 0 0 1 0.1,0.28 a0.33000000000000007,0.33000000000000007 0 0 1 -0.33000000000000007,0.3400000000000001 a0.48000000000000004,0.48000000000000004 0 0 1 -0.33000000000000007,-0.18000000000000002 a1,1 0 0 0 -0.8200000000000001,-0.36000000000000004 a0.9400000000000001,0.9400000000000001 0 0 0 -1,0.6700000000000002 a3,3 0 0 0 -0.09000000000000002,0.8700000000000001 a3.08,3.08 0 0 0 0.09000000000000002,0.8900000000000001 a0.9400000000000001,0.9400000000000001 0 0 0 1,0.6700000000000002 a1,1 0 0 0 0.8200000000000001,-0.36000000000000004 a0.44000000000000006,0.44000000000000006 0 0 1 0.33000000000000007,-0.18000000000000002 a0.33000000000000007,0.33000000000000007 0 0 1 0.33000000000000007,0.33000000000000007 a0.46,0.46 0 0 1 -0.1,0.28 a1.6900000000000002,1.6900000000000002 0 0 1 -1.3800000000000001,0.6300000000000001 A1.6600000000000001,1.6600000000000001 0 0 1 61.44000091552735,214.30999664306643 z" id="svg_18"/><path class="cls-2" d="M67.54000091552734,215.41999664306638 c-0.8900000000000001,0 -1.21,-0.37000000000000005 -1.21,-1.27 v-2.42 s0,-0.06000000000000001 0,-0.06000000000000001 h-0.25 a0.29000000000000004,0.29000000000000004 0 0 1 -0.32000000000000006,-0.30000000000000004 a0.30000000000000004,0.30000000000000004 0 0 1 0.32000000000000006,-0.31000000000000005 h0.25 a0,0 0 0 0 0,-0.05000000000000001 v-0.9500000000000001 a0.37000000000000005,0.37000000000000005 0 0 1 0.38000000000000006,-0.4 a0.37000000000000005,0.37000000000000005 0 0 1 0.38000000000000006,0.4 v0.9500000000000001 s0,0.05000000000000001 0.05000000000000001,0.05000000000000001 h0.5700000000000001 a0.30000000000000004,0.30000000000000004 0 0 1 0.32000000000000006,0.31000000000000005 a0.29000000000000004,0.29000000000000004 0 0 1 -0.32000000000000006,0.30000000000000004 h-0.5700000000000001 s-0.05000000000000001,0 -0.05000000000000001,0.06000000000000001 v2.39 c0,0.46 0.11000000000000001,0.6000000000000001 0.5700000000000001,0.6000000000000001 a0.33000000000000007,0.33000000000000007 0 0 1 0.37000000000000005,0.35000000000000003 c0,0.21000000000000002 -0.13,0.35000000000000003 -0.4,0.35000000000000003 z" id="svg_19"/><path class="cls-2" d="M73.54000091552734,215.41999664306638 c-0.8900000000000001,0 -1.21,-0.37000000000000005 -1.21,-1.27 v-2.42 s0,-0.06000000000000001 0,-0.06000000000000001 h-0.25 a0.29000000000000004,0.29000000000000004 0 0 1 -0.32000000000000006,-0.30000000000000004 a0.30000000000000004,0.30000000000000004 0 0 1 0.32000000000000006,-0.31000000000000005 h0.25 a0,0 0 0 0 0,-0.05000000000000001 v-0.9500000000000001 a0.38000000000000006,0.38000000000000006 0 1 1 0.7600000000000001,0 v0.9500000000000001 a0,0 0 0 0 0,0.05000000000000001 h0.5700000000000001 a0.29000000000000004,0.29000000000000004 0 0 1 0.32000000000000006,0.31000000000000005 a0.28,0.28 0 0 1 -0.32000000000000006,0.30000000000000004 h-0.5700000000000001 s0,0 0,0.06000000000000001 v2.39 c0,0.46 0.11000000000000001,0.6000000000000001 0.5700000000000001,0.6000000000000001 a0.33000000000000007,0.33000000000000007 0 0 1 0.37000000000000005,0.35000000000000003 c0,0.21000000000000002 -0.13,0.35000000000000003 -0.4,0.35000000000000003 z" id="svg_20"/><path class="cls-2" d="M75.54000091552734,209.60999664306638 a0.38000000000000006,0.38000000000000006 0 1 1 0.7600000000000001,0 V211.5199966430664 h0 a1.37,1.37 0 0 1 1.2,-0.5900000000000001 a1.45,1.45 0 0 1 1.5,1.62 v2.43 a0.38000000000000006,0.38000000000000006 0 1 1 -0.7600000000000001,0 v-2.25 c0,-0.6900000000000002 -0.31000000000000005,-1.09 -1,-1.09 a1,1 0 0 0 -1,1.05 v2.29 a0.38000000000000006,0.38000000000000006 0 1 1 -0.7600000000000001,0 z" id="svg_21"/><path class="cls-2" d="M80.75000091552735,214.29999664306638 a3.26,3.26 0 0 1 -0.14,-1.09 a3.39,3.39 0 0 1 0.13,-1.09 a1.81,1.81 0 0 1 3.38,0 a3.11,3.11 0 0 1 0.14,1 a0.28,0.28 0 0 1 -0.30000000000000004,0.29000000000000004 h-2.5300000000000002 a0,0 0 0 0 0,0.05000000000000001 a1.6800000000000002,1.6800000000000002 0 0 0 0.07,0.52 a1.06,1.06 0 0 0 1.09,0.7500000000000001 a1.56,1.56 0 0 0 1,-0.37000000000000005 a0.42000000000000004,0.42000000000000004 0 0 1 0.26,-0.11000000000000001 a0.31000000000000005,0.31000000000000005 0 0 1 0.31000000000000005,0.32000000000000006 a0.37000000000000005,0.37000000000000005 0 0 1 -0.11000000000000001,0.27 A2.23,2.23 0 0 1 82.54000091552734,215.5199966430664 A1.6600000000000001,1.6600000000000001 0 0 1 80.75000091552735,214.29999664306638 zm2.68,-1.45 a0.05000000000000001,0.05000000000000001 0 0 0 0.06000000000000001,-0.06000000000000001 a1.32,1.32 0 0 0 -0.07,-0.48000000000000004 a1,1 0 0 0 -1,-0.6800000000000002 a1,1 0 0 0 -1,0.6800000000000002 a1.61,1.61 0 0 0 -0.06000000000000001,0.48000000000000004 s0,0.06000000000000001 0,0.06000000000000001 z" id="svg_22"/><path class="cls-2" d="M88.54000091552734,216.6399966430664 V211.41999664306638 a0.37000000000000005,0.37000000000000005 0 0 1 0.38000000000000006,-0.4 a0.37000000000000005,0.37000000000000005 0 0 1 0.38000000000000006,0.4 V211.5199966430664 h0 a1.31,1.31 0 0 1 1.22,-0.5800000000000001 a1.51,1.51 0 0 1 1.49,1.08 a3.72,3.72 0 0 1 0.15000000000000002,1.18 a3.62,3.62 0 0 1 -0.15000000000000002,1.17 A1.5,1.5 0 0 1 90.54000091552734,215.5199966430664 a1.31,1.31 0 0 1 -1.22,-0.5700000000000001 h0 v1.7400000000000002 a0.37000000000000005,0.37000000000000005 0 0 1 -0.38000000000000006,0.4 A0.37000000000000005,0.37000000000000005 0 0 1 88.54000091552734,216.6399966430664 zm2.7600000000000002,-2.54 a2.77,2.77 0 0 0 0.1,-0.8800000000000001 a2.73,2.73 0 0 0 -0.1,-0.8800000000000001 a1,1 0 0 0 -1.9,0 a2.73,2.73 0 0 0 -0.1,0.8800000000000001 a2.77,2.77 0 0 0 0.1,0.8800000000000001 a1,1 0 0 0 1.9,0 z" id="svg_23"/><path class="cls-2" d="M93.84000091552736,215.00999664306642 V211.41999664306638 a0.37000000000000005,0.37000000000000005 0 0 1 0.38000000000000006,-0.4 a0.37000000000000005,0.37000000000000005 0 0 1 0.38000000000000006,0.4 v0.2 h0 a1.17,1.17 0 0 1 1.11,-0.6600000000000001 a1.3,1.3 0 0 1 0.6400000000000001,0.16000000000000003 a0.35000000000000003,0.35000000000000003 0 0 1 0.21000000000000002,0.32000000000000006 a0.36000000000000004,0.36000000000000004 0 0 1 -0.38000000000000006,0.38000000000000006 a0.54,0.54 0 0 1 -0.19000000000000003,-0.05000000000000001 a1.34,1.34 0 0 0 -0.49000000000000005,-0.1 c-0.6500000000000001,0 -0.91,0.54 -0.91,1.26 v2.08 a0.37000000000000005,0.37000000000000005 0 0 1 -0.38000000000000006,0.41000000000000003 A0.38000000000000006,0.38000000000000006 0 0 1 93.84000091552736,215.00999664306642 z" id="svg_24"/><path class="cls-2" d="M97.68000091552733,214.29999664306638 a3.26,3.26 0 0 1 -0.14,-1.09 a3.39,3.39 0 0 1 0.13,-1.09 a1.81,1.81 0 0 1 3.38,0 a3.11,3.11 0 0 1 0.14,1 a0.28,0.28 0 0 1 -0.30000000000000004,0.29000000000000004 h-2.5300000000000002 a0,0 0 0 0 0,0.05000000000000001 a1.6800000000000002,1.6800000000000002 0 0 0 0.07,0.52 a1.06,1.06 0 0 0 1.09,0.7500000000000001 a1.58,1.58 0 0 0 1,-0.37000000000000005 a0.42000000000000004,0.42000000000000004 0 0 1 0.26,-0.11000000000000001 a0.31000000000000005,0.31000000000000005 0 0 1 0.31000000000000005,0.32000000000000006 a0.37000000000000005,0.37000000000000005 0 0 1 -0.11000000000000001,0.27 a2.25,2.25 0 0 1 -1.55,0.5900000000000001 A1.6600000000000001,1.6600000000000001 0 0 1 97.68000091552733,214.29999664306638 zm2.68,-1.45 a0.05000000000000001,0.05000000000000001 0 0 0 0.06000000000000001,-0.06000000000000001 a1.32,1.32 0 0 0 -0.07,-0.48000000000000004 a1,1 0 0 0 -1,-0.6800000000000002 a1,1 0 0 0 -1,0.6800000000000002 a1.61,1.61 0 0 0 -0.06000000000000001,0.48000000000000004 s0,0.06000000000000001 0,0.06000000000000001 z" id="svg_25"/><path class="cls-2" d="M102.85000091552735,211.41999664306638 a0.37000000000000005,0.37000000000000005 0 0 1 0.38000000000000006,-0.4 a0.37000000000000005,0.37000000000000005 0 0 1 0.38000000000000006,0.4 V211.5199966430664 h0 a1.51,1.51 0 0 1 2.46,0.09000000000000002 h0 a1.6,1.6 0 0 1 1.4,-0.6800000000000002 a1.46,1.46 0 0 1 1.54,1.62 v2.43 a0.37000000000000005,0.37000000000000005 0 0 1 -0.38000000000000006,0.41000000000000003 a0.38000000000000006,0.38000000000000006 0 0 1 -0.38000000000000006,-0.41000000000000003 v-2.25 c0,-0.6900000000000002 -0.31000000000000005,-1.09 -1,-1.09 a1,1 0 0 0 -1,1.05 v2.29 a0.37000000000000005,0.37000000000000005 0 0 1 -0.38000000000000006,0.41000000000000003 a0.38000000000000006,0.38000000000000006 0 0 1 -0.38000000000000006,-0.41000000000000003 v-2.25 c0,-0.6900000000000002 -0.31000000000000005,-1.09 -1,-1.09 a1,1 0 0 0 -1,1.05 v2.29 a0.37000000000000005,0.37000000000000005 0 0 1 -0.38000000000000006,0.41000000000000003 a0.38000000000000006,0.38000000000000006 0 0 1 -0.38000000000000006,-0.41000000000000003 z" id="svg_26"/><path class="cls-2" d="M110.79000091552734,209.6999966430664 a0.49000000000000005,0.49000000000000005 0 0 1 0.5,-0.49000000000000005 a0.48000000000000004,0.48000000000000004 0 0 1 0.49000000000000005,0.49000000000000005 a0.5,0.5 0 0 1 -0.49000000000000005,0.5 A0.51,0.51 0 0 1 110.79000091552734,209.6999966430664 zm0.12000000000000001,1.7200000000000002 a0.38000000000000006,0.38000000000000006 0 1 1 0.7500000000000001,0 v3.59 a0.38000000000000006,0.38000000000000006 0 1 1 -0.7500000000000001,0 z" id="svg_27"/><path class="cls-2" d="M116.97000091552735,215.00999664306642 a0.38000000000000006,0.38000000000000006 0 0 1 -0.38000000000000006,0.41000000000000003 a0.37000000000000005,0.37000000000000005 0 0 1 -0.38000000000000006,-0.41000000000000003 v-0.12000000000000001 h0 a1.33,1.33 0 0 1 -1.19,0.5800000000000001 a1.44,1.44 0 0 1 -1.48,-1.62 V211.41999664306638 a0.38000000000000006,0.38000000000000006 0 1 1 0.7500000000000001,0 v2.25 c0,0.7000000000000001 0.31000000000000005,1.1 1,1.1 a1,1 0 0 0 1,-1.05 v-2.3 a0.37000000000000005,0.37000000000000005 0 0 1 0.38000000000000006,-0.4 a0.37000000000000005,0.37000000000000005 0 0 1 0.38000000000000006,0.4 z" id="svg_28"/><path class="cls-2" d="M118.89000091552734,211.41999664306638 a0.38000000000000006,0.38000000000000006 0 1 1 0.7600000000000001,0 V211.5199966430664 h0 a1.51,1.51 0 0 1 2.46,0.09000000000000002 h0 a1.59,1.59 0 0 1 1.4,-0.6800000000000002 a1.46,1.46 0 0 1 1.54,1.62 v2.43 a0.38000000000000006,0.38000000000000006 0 1 1 -0.7600000000000001,0 v-2.25 c0,-0.6900000000000002 -0.31000000000000005,-1.09 -1,-1.09 a1,1 0 0 0 -1,1.05 v2.29 a0.38000000000000006,0.38000000000000006 0 1 1 -0.7600000000000001,0 v-2.25 c0,-0.6900000000000002 -0.31000000000000005,-1.09 -1,-1.09 a1,1 0 0 0 -1,1.05 v2.29 a0.38000000000000006,0.38000000000000006 0 1 1 -0.7600000000000001,0 z" id="svg_29"/><path class="cls-2" d="M132.18000091552733,216.6399966430664 v-1.7400000000000002 h0 a1.32,1.32 0 0 1 -1.23,0.5700000000000001 a1.48,1.48 0 0 1 -1.48,-1.08 a3.59,3.59 0 0 1 -0.16000000000000003,-1.17 a3.7,3.7 0 0 1 0.16000000000000003,-1.18 a1.49,1.49 0 0 1 1.48,-1.08 a1.33,1.33 0 0 1 1.23,0.5800000000000001 h0 v-0.12000000000000001 a0.37000000000000005,0.37000000000000005 0 0 1 0.38000000000000006,-0.4 a0.37000000000000005,0.37000000000000005 0 0 1 0.38000000000000006,0.4 v5.22 a0.37000000000000005,0.37000000000000005 0 0 1 -0.38000000000000006,0.4 A0.37000000000000005,0.37000000000000005 0 0 1 132.18000091552733,216.6399966430664 zm-0.09000000000000002,-2.54 a2.8,2.8 0 0 0 0.09000000000000002,-0.8800000000000001 a2.7600000000000002,2.7600000000000002 0 0 0 -0.09000000000000002,-0.8800000000000001 a0.9400000000000001,0.9400000000000001 0 0 0 -1,-0.6700000000000002 a0.92,0.92 0 0 0 -0.9400000000000001,0.6700000000000002 a2.73,2.73 0 0 0 -0.1,0.8800000000000001 a2.77,2.77 0 0 0 0.1,0.8800000000000001 a0.92,0.92 0 0 0 0.9400000000000001,0.6700000000000002 A0.9400000000000001,0.9400000000000001 0 0 0 132.09000091552736,214.0999966430664 z" id="svg_30"/><path class="cls-2" d="M138.24000091552733,215.00999664306642 a0.38000000000000006,0.38000000000000006 0 1 1 -0.7500000000000001,0 v-0.12000000000000001 h0 a1.35,1.35 0 0 1 -1.19,0.5800000000000001 a1.44,1.44 0 0 1 -1.49,-1.62 V211.41999664306638 a0.37000000000000005,0.37000000000000005 0 0 1 0.38000000000000006,-0.4 a0.37000000000000005,0.37000000000000005 0 0 1 0.38000000000000006,0.4 v2.25 c0,0.7000000000000001 0.31000000000000005,1.1 0.9500000000000001,1.1 a1,1 0 0 0 1,-1.05 v-2.3 a0.38000000000000006,0.38000000000000006 0 1 1 0.7500000000000001,0 z" id="svg_31"/><path class="cls-2" d="M143.70000091552734,215.05999664306643 a0.37000000000000005,0.37000000000000005 0 0 1 -0.39000000000000007,0.36000000000000004 a0.38000000000000006,0.38000000000000006 0 0 1 -0.33000000000000007,-0.19000000000000003 l-0.17,-0.27 h0 a1.6700000000000002,1.6700000000000002 0 0 1 -1.33,0.51 c-1,0 -1.52,-0.47000000000000003 -1.52,-1.29 s0.6100000000000001,-1.33 1.6900000000000002,-1.33 h1 s0,0 0,-0.06000000000000001 v-0.21000000000000002 c0,-0.6000000000000001 -0.28,-0.9400000000000001 -1,-0.9400000000000001 a2.2,2.2 0 0 0 -0.8900000000000001,0.21000000000000002 a0.47000000000000003,0.47000000000000003 0 0 1 -0.21000000000000002,0.07 a0.31000000000000005,0.31000000000000005 0 0 1 -0.33000000000000007,-0.33000000000000007 a0.35000000000000003,0.35000000000000003 0 0 1 0.18000000000000002,-0.30000000000000004 a2.42,2.42 0 0 1 1.32,-0.33000000000000007 c1.15,0 1.6900000000000002,0.55 1.6900000000000002,1.61 v1.55 a0.8400000000000001,0.8400000000000001 0 0 0 0.08000000000000002,0.44000000000000006 l0.15000000000000002,0.28 A0.47000000000000003,0.47000000000000003 0 0 1 143.70000091552734,215.05999664306643 zm-1,-1.08 V213.5199966430664 a0,0 0 0 0 0,-0.05000000000000001 h-0.8700000000000001 c-0.7400000000000001,0 -1.07,0.21000000000000002 -1.07,0.7000000000000001 s0.32000000000000006,0.6800000000000002 0.9,0.6800000000000002 S142.67000091552734,214.5199966430664 142.67000091552734,213.97999664306639 z" id="svg_32"/><path class="cls-2" d="M146.33000091552734,215.41999664306638 c-0.77,0 -1,-0.38000000000000006 -1,-1.15 v-4.66 a0.37000000000000005,0.37000000000000005 0 0 1 0.38000000000000006,-0.4 a0.37000000000000005,0.37000000000000005 0 0 1 0.38000000000000006,0.4 v4.61 c0,0.36000000000000004 0.11000000000000001,0.5 0.41000000000000003,0.5 a0.33000000000000007,0.33000000000000007 0 0 1 0.35000000000000003,0.35000000000000003 a0.3400000000000001,0.3400000000000001 0 0 1 -0.39000000000000007,0.35000000000000003 z" id="svg_33"/><path class="cls-2" d="M148.14000091552734,209.6999966430664 a0.49000000000000005,0.49000000000000005 0 0 1 0.5,-0.49000000000000005 a0.48000000000000004,0.48000000000000004 0 0 1 0.49000000000000005,0.49000000000000005 a0.5,0.5 0 0 1 -0.49000000000000005,0.5 A0.51,0.51 0 0 1 148.14000091552734,209.6999966430664 zm0.12000000000000001,1.7200000000000002 a0.38000000000000006,0.38000000000000006 0 1 1 0.7500000000000001,0 v3.59 a0.38000000000000006,0.38000000000000006 0 1 1 -0.7500000000000001,0 z" id="svg_34"/><path class="cls-2" d="M152.24000091552733,215.41999664306638 c-0.8900000000000001,0 -1.21,-0.37000000000000005 -1.21,-1.27 v-2.42 s0,-0.06000000000000001 -0.05000000000000001,-0.06000000000000001 h-0.25 a0.29000000000000004,0.29000000000000004 0 0 1 -0.32000000000000006,-0.30000000000000004 a0.30000000000000004,0.30000000000000004 0 0 1 0.32000000000000006,-0.31000000000000005 h0.25 a0,0 0 0 0 0.05000000000000001,-0.05000000000000001 v-0.9500000000000001 a0.37000000000000005,0.37000000000000005 0 0 1 0.38000000000000006,-0.4 a0.37000000000000005,0.37000000000000005 0 0 1 0.38000000000000006,0.4 v0.9500000000000001 s0,0.05000000000000001 0.05000000000000001,0.05000000000000001 h0.5700000000000001 a0.30000000000000004,0.30000000000000004 0 0 1 0.32000000000000006,0.31000000000000005 a0.29000000000000004,0.29000000000000004 0 0 1 -0.32000000000000006,0.30000000000000004 h-0.5700000000000001 s-0.05000000000000001,0 -0.05000000000000001,0.06000000000000001 v2.39 c0,0.46 0.11000000000000001,0.6000000000000001 0.5700000000000001,0.6000000000000001 a0.33000000000000007,0.33000000000000007 0 0 1 0.37000000000000005,0.35000000000000003 c0,0.21000000000000002 -0.13,0.35000000000000003 -0.4,0.35000000000000003 z" id="svg_35"/><path class="cls-2" d="M154.43000091552733,216.99999664306642 a0.36000000000000004,0.36000000000000004 0 1 1 0,-0.7100000000000001 c0.35000000000000003,0 0.56,-0.13 0.7500000000000001,-0.6500000000000001 l0.14,-0.39000000000000007 l-1.47,-3.7 a1.13,1.13 0 0 1 0,-0.18000000000000002 a0.38000000000000006,0.38000000000000006 0 0 1 0.7400000000000001,-0.08000000000000002 l1.12,3 h0 l1.08,-3 a0.35000000000000003,0.35000000000000003 0 0 1 0.35000000000000003,-0.27 a0.3400000000000001,0.3400000000000001 0 0 1 0.37000000000000005,0.35000000000000003 a1.13,1.13 0 0 1 0,0.18000000000000002 l-1.6300000000000001,4.25 c-0.37000000000000005,1 -0.7200000000000001,1.2 -1.34,1.2 z" id="svg_36"/><path class="cls-2" d="M161.62000091552736,216.6399966430664 V211.41999664306638 a0.38000000000000006,0.38000000000000006 0 1 1 0.7600000000000001,0 V211.5199966430664 h0 a1.3,1.3 0 0 1 1.22,-0.5800000000000001 a1.51,1.51 0 0 1 1.49,1.08 a3.72,3.72 0 0 1 0.15000000000000002,1.18 a3.62,3.62 0 0 1 -0.15000000000000002,1.17 a1.5,1.5 0 0 1 -1.49,1.08 a1.29,1.29 0 0 1 -1.22,-0.5700000000000001 h0 v1.7400000000000002 a0.38000000000000006,0.38000000000000006 0 1 1 -0.7600000000000001,0 zm2.7600000000000002,-2.54 a2.77,2.77 0 0 0 0.1,-0.8800000000000001 a2.73,2.73 0 0 0 -0.1,-0.8800000000000001 a1,1 0 0 0 -1.9,0 a2.73,2.73 0 0 0 -0.1,0.8800000000000001 a2.77,2.77 0 0 0 0.1,0.8800000000000001 a1,1 0 0 0 1.9,0 z" id="svg_37"/><path class="cls-2" d="M166.92000091552734,215.00999664306642 V211.41999664306638 a0.38000000000000006,0.38000000000000006 0 1 1 0.7500000000000001,0 v0.2 h0 a1.17,1.17 0 0 1 1.11,-0.6600000000000001 a1.3,1.3 0 0 1 0.6400000000000001,0.16000000000000003 a0.35000000000000003,0.35000000000000003 0 0 1 0.21000000000000002,0.32000000000000006 a0.36000000000000004,0.36000000000000004 0 0 1 -0.38000000000000006,0.38000000000000006 a0.45,0.45 0 0 1 -0.18000000000000002,-0.05000000000000001 a1.44,1.44 0 0 0 -0.5,-0.1 c-0.6500000000000001,0 -0.91,0.54 -0.91,1.26 v2.08 a0.38000000000000006,0.38000000000000006 0 1 1 -0.7500000000000001,0 z" id="svg_38"/><path class="cls-2" d="M170.91000091552735,209.6999966430664 a0.49000000000000005,0.49000000000000005 0 0 1 0.5,-0.49000000000000005 a0.48000000000000004,0.48000000000000004 0 0 1 0.49000000000000005,0.49000000000000005 a0.5,0.5 0 0 1 -0.49000000000000005,0.5 A0.51,0.51 0 0 1 170.91000091552735,209.6999966430664 zm0.12000000000000001,1.7200000000000002 a0.38000000000000006,0.38000000000000006 0 1 1 0.7500000000000001,0 v3.59 a0.38000000000000006,0.38000000000000006 0 1 1 -0.7500000000000001,0 z" id="svg_39"/><path class="cls-2" d="M173.71000091552733,211.41999664306638 a0.37000000000000005,0.37000000000000005 0 0 1 0.38000000000000006,-0.4 a0.37000000000000005,0.37000000000000005 0 0 1 0.38000000000000006,0.4 V211.5199966430664 h0 a1.36,1.36 0 0 1 1.2,-0.5900000000000001 a1.44,1.44 0 0 1 1.49,1.62 v2.43 a0.38000000000000006,0.38000000000000006 0 1 1 -0.7500000000000001,0 v-2.25 c0,-0.6900000000000002 -0.32000000000000006,-1.09 -1,-1.09 a1,1 0 0 0 -1,1.05 v2.29 a0.38000000000000006,0.38000000000000006 0 0 1 -0.38000000000000006,0.41000000000000003 a0.37000000000000005,0.37000000000000005 0 0 1 -0.38000000000000006,-0.41000000000000003 z" id="svg_40"/><path class="cls-2" d="M180.35000091552735,215.41999664306638 c-0.8800000000000001,0 -1.2,-0.37000000000000005 -1.2,-1.27 v-2.42 a0.05000000000000001,0.05000000000000001 0 0 0 -0.06000000000000001,-0.06000000000000001 h-0.24000000000000002 a0.29000000000000004,0.29000000000000004 0 0 1 -0.33000000000000007,-0.30000000000000004 a0.30000000000000004,0.30000000000000004 0 0 1 0.33000000000000007,-0.31000000000000005 h0.24000000000000002 s0.06000000000000001,0 0.06000000000000001,-0.05000000000000001 v-0.9500000000000001 a0.38000000000000006,0.38000000000000006 0 1 1 0.7500000000000001,0 v0.9500000000000001 s0,0.05000000000000001 0.06000000000000001,0.05000000000000001 H180.54000091552734 a0.30000000000000004,0.30000000000000004 0 0 1 0.33000000000000007,0.31000000000000005 a0.29000000000000004,0.29000000000000004 0 0 1 -0.33000000000000007,0.30000000000000004 h-0.56 a0.05000000000000001,0.05000000000000001 0 0 0 -0.06000000000000001,0.06000000000000001 v2.39 c0,0.46 0.12000000000000001,0.6000000000000001 0.5800000000000001,0.6000000000000001 a0.3400000000000001,0.3400000000000001 0 0 1 0.37000000000000005,0.35000000000000003 c0,0.21000000000000002 -0.14,0.35000000000000003 -0.41000000000000003,0.35000000000000003 z" id="svg_41"/><path class="cls-2" d="M182.25000091552735,214.29999664306638 a3.26,3.26 0 0 1 -0.14,-1.09 a3.39,3.39 0 0 1 0.13,-1.09 a1.81,1.81 0 0 1 3.38,0 a3.11,3.11 0 0 1 0.14,1 a0.28,0.28 0 0 1 -0.30000000000000004,0.29000000000000004 h-2.5300000000000002 a0,0 0 0 0 0,0.05000000000000001 a1.6800000000000002,1.6800000000000002 0 0 0 0.07,0.52 a1.06,1.06 0 0 0 1.09,0.7500000000000001 a1.56,1.56 0 0 0 1,-0.37000000000000005 a0.42000000000000004,0.42000000000000004 0 0 1 0.26,-0.11000000000000001 a0.31000000000000005,0.31000000000000005 0 0 1 0.31000000000000005,0.32000000000000006 a0.37000000000000005,0.37000000000000005 0 0 1 -0.11000000000000001,0.27 a2.23,2.23 0 0 1 -1.55,0.5900000000000001 A1.6600000000000001,1.6600000000000001 0 0 1 182.25000091552735,214.29999664306638 zm2.68,-1.45 a0.05000000000000001,0.05000000000000001 0 0 0 0.06000000000000001,-0.06000000000000001 a1.32,1.32 0 0 0 -0.07,-0.48000000000000004 a1,1 0 0 0 -1,-0.6800000000000002 a1,1 0 0 0 -1,0.6800000000000002 a1.61,1.61 0 0 0 -0.06000000000000001,0.48000000000000004 s0,0.06000000000000001 0,0.06000000000000001 z" id="svg_42"/><path class="cls-2" d="M190.04000091552734,215.00999664306642 v-0.11000000000000001 h0 a1.32,1.32 0 0 1 -1.23,0.5700000000000001 a1.48,1.48 0 0 1 -1.48,-1.08 a3.62,3.62 0 0 1 -0.16000000000000003,-1.18 a3.68,3.68 0 0 1 0.16000000000000003,-1.17 a1.49,1.49 0 0 1 1.48,-1.08 a1.33,1.33 0 0 1 1.23,0.5800000000000001 h0 v-1.9300000000000002 a0.38000000000000006,0.38000000000000006 0 1 1 0.7500000000000001,0 v5.4 a0.38000000000000006,0.38000000000000006 0 1 1 -0.7500000000000001,0 zm-0.1,-0.91 a2.8,2.8 0 0 0 0.1,-0.8900000000000001 a2.7,2.7 0 0 0 -0.1,-0.8700000000000001 a0.9400000000000001,0.9400000000000001 0 0 0 -1,-0.6700000000000002 a0.91,0.91 0 0 0 -0.9400000000000001,0.6700000000000002 a2.7,2.7 0 0 0 -0.1,0.8700000000000001 a2.8,2.8 0 0 0 0.1,0.8900000000000001 a0.91,0.91 0 0 0 0.9400000000000001,0.6700000000000002 A0.9400000000000001,0.9400000000000001 0 0 0 189.94000091552735,214.0999966430664 z" id="svg_43"/><path class="cls-2" d="M198.87000091552736,215.05999664306643 a0.36000000000000004,0.36000000000000004 0 0 1 -0.38000000000000006,0.36000000000000004 a0.39000000000000007,0.39000000000000007 0 0 1 -0.3400000000000001,-0.19000000000000003 l-0.17,-0.27 h0 a1.6300000000000001,1.6300000000000001 0 0 1 -1.32,0.51 c-1,0 -1.52,-0.47000000000000003 -1.52,-1.29 s0.6100000000000001,-1.33 1.6800000000000002,-1.33 h1 a0.05000000000000001,0.05000000000000001 0 0 0 0.06000000000000001,-0.06000000000000001 v-0.21000000000000002 c0,-0.6000000000000001 -0.28,-0.9400000000000001 -1,-0.9400000000000001 a2.19,2.19 0 0 0 -0.8800000000000001,0.21000000000000002 a0.47000000000000003,0.47000000000000003 0 0 1 -0.22000000000000003,0.07 a0.31000000000000005,0.31000000000000005 0 0 1 -0.32000000000000006,-0.33000000000000007 a0.33000000000000007,0.33000000000000007 0 0 1 0.18000000000000002,-0.30000000000000004 a2.4,2.4 0 0 1 1.31,-0.33000000000000007 c1.1600000000000001,0 1.7000000000000002,0.55 1.7000000000000002,1.61 v1.55 a0.7500000000000001,0.7500000000000001 0 0 0 0.08000000000000002,0.44000000000000006 l0.15000000000000002,0.28 A0.46,0.46 0 0 1 198.87000091552736,215.05999664306643 zm-1,-1.08 V213.5199966430664 s0,-0.05000000000000001 -0.06000000000000001,-0.05000000000000001 h-0.8600000000000001 c-0.7400000000000001,0 -1.07,0.21000000000000002 -1.07,0.7000000000000001 s0.32000000000000006,0.6800000000000002 0.9,0.6800000000000002 S197.85000091552735,214.5199966430664 197.85000091552735,213.97999664306639 z" id="svg_44"/><path class="cls-2" d="M201.54000091552734,215.41999664306638 c-0.77,0 -1.05,-0.38000000000000006 -1.05,-1.15 v-4.66 a0.38000000000000006,0.38000000000000006 0 1 1 0.7500000000000001,0 v4.61 c0,0.36000000000000004 0.12000000000000001,0.5 0.42000000000000004,0.5 a0.33000000000000007,0.33000000000000007 0 0 1 0.35000000000000003,0.35000000000000003 a0.3400000000000001,0.3400000000000001 0 0 1 -0.39000000000000007,0.35000000000000003 z" id="svg_45"/><path class="cls-2" d="M203.44000091552735,215.00999664306642 v-5.4 a0.38000000000000006,0.38000000000000006 0 1 1 0.7500000000000001,0 V211.5199966430664 h0 a1.32,1.32 0 0 1 1.22,-0.5800000000000001 a1.49,1.49 0 0 1 1.49,1.08 a3.7,3.7 0 0 1 0.15000000000000002,1.17 a3.64,3.64 0 0 1 -0.15000000000000002,1.18 a1.48,1.48 0 0 1 -1.49,1.08 a1.32,1.32 0 0 1 -1.22,-0.5700000000000001 h0 v0.11000000000000001 a0.38000000000000006,0.38000000000000006 0 1 1 -0.7500000000000001,0 zm2.75,-0.91 a2.8,2.8 0 0 0 0.1,-0.8900000000000001 a2.7,2.7 0 0 0 -0.1,-0.8700000000000001 a1,1 0 0 0 -1.9,0 a2.7,2.7 0 0 0 -0.1,0.8700000000000001 a2.8,2.8 0 0 0 0.1,0.8900000000000001 a1,1 0 0 0 1.9,0 z" id="svg_46"/><path class="cls-2" d="M212.10000091552735,215.00999664306642 a0.38000000000000006,0.38000000000000006 0 1 1 -0.7500000000000001,0 v-0.12000000000000001 h0 a1.33,1.33 0 0 1 -1.19,0.5800000000000001 a1.44,1.44 0 0 1 -1.49,-1.62 V211.41999664306638 a0.37000000000000005,0.37000000000000005 0 0 1 0.38000000000000006,-0.4 a0.37000000000000005,0.37000000000000005 0 0 1 0.38000000000000006,0.4 v2.25 c0,0.7000000000000001 0.31000000000000005,1.1 1,1.1 a1,1 0 0 0 1,-1.05 v-2.3 a0.38000000000000006,0.38000000000000006 0 1 1 0.7500000000000001,0 z" id="svg_47"/><path class="cls-2" d="M214.03000091552735,211.41999664306638 a0.38000000000000006,0.38000000000000006 0 1 1 0.7500000000000001,0 V211.5199966430664 h0 a1.3800000000000001,1.3800000000000001 0 0 1 1.21,-0.5900000000000001 a1.36,1.36 0 0 1 1.26,0.6800000000000002 h0 a1.58,1.58 0 0 1 1.3900000000000001,-0.6800000000000002 a1.45,1.45 0 0 1 1.54,1.62 v2.43 a0.38000000000000006,0.38000000000000006 0 1 1 -0.7500000000000001,0 v-2.25 c0,-0.6900000000000002 -0.32000000000000006,-1.09 -1,-1.09 a1,1 0 0 0 -1,1.05 v2.29 a0.38000000000000006,0.38000000000000006 0 0 1 -0.38000000000000006,0.41000000000000003 a0.37000000000000005,0.37000000000000005 0 0 1 -0.38000000000000006,-0.41000000000000003 v-2.25 c0,-0.6900000000000002 -0.32000000000000006,-1.09 -1,-1.09 a1,1 0 0 0 -1,1.05 v2.29 a0.38000000000000006,0.38000000000000006 0 1 1 -0.7500000000000001,0 z" id="svg_48"/><path class="cls-2" d="M221.98000091552734,214.99999664306642 a0.37000000000000005,0.37000000000000005 0 0 1 -0.18000000000000002,-0.32000000000000006 a0.3400000000000001,0.3400000000000001 0 0 1 0.35000000000000003,-0.3400000000000001 a0.51,0.51 0 0 1 0.25,0.08000000000000002 a2.25,2.25 0 0 0 1.2,0.38000000000000006 c0.6300000000000001,0 0.9500000000000001,-0.27 0.9500000000000001,-0.6500000000000001 s-0.16000000000000003,-0.54 -0.8500000000000001,-0.6100000000000001 l-0.45,0 c-0.8400000000000001,-0.09000000000000002 -1.28,-0.52 -1.28,-1.21 s0.5800000000000001,-1.32 1.59,-1.32 a2.67,2.67 0 0 1 1.29,0.32000000000000006 a0.3400000000000001,0.3400000000000001 0 0 1 0.22000000000000003,0.31000000000000005 a0.32000000000000006,0.32000000000000006 0 0 1 -0.32000000000000006,0.33000000000000007 a0.6700000000000002,0.6700000000000002 0 0 1 -0.27,-0.07 a2.19,2.19 0 0 0 -1,-0.23 c-0.54,0 -0.8200000000000001,0.24000000000000002 -0.8200000000000001,0.5900000000000001 s0.2,0.53 0.8500000000000001,0.5900000000000001 l0.45,0.05000000000000001 c0.9,0.09000000000000002 1.3,0.52 1.3,1.22 s-0.6200000000000001,1.4 -1.7600000000000002,1.4 A2.73,2.73 0 0 1 221.98000091552734,214.99999664306642 z" id="svg_49"/><path class="cls-2" d="M78.07000091552734,225.85999664306638 a0.37000000000000005,0.37000000000000005 0 0 1 -0.39000000000000007,0.36000000000000004 a0.39000000000000007,0.39000000000000007 0 0 1 -0.3400000000000001,-0.19000000000000003 l-0.17,-0.27 h0 a1.6300000000000001,1.6300000000000001 0 0 1 -1.32,0.51 c-1,0 -1.52,-0.47000000000000003 -1.52,-1.29 s0.6100000000000001,-1.34 1.6800000000000002,-1.34 h1 s0.06000000000000001,0 0.06000000000000001,-0.05000000000000001 v-0.21000000000000002 c0,-0.6000000000000001 -0.28,-0.9400000000000001 -1,-0.9400000000000001 a2.19,2.19 0 0 0 -0.8800000000000001,0.21000000000000002 a0.47000000000000003,0.47000000000000003 0 0 1 -0.21000000000000002,0.07 a0.31000000000000005,0.31000000000000005 0 0 1 -0.33000000000000007,-0.33000000000000007 a0.33000000000000007,0.33000000000000007 0 0 1 0.18000000000000002,-0.30000000000000004 a2.42,2.42 0 0 1 1.32,-0.33000000000000007 c1.15,0 1.6900000000000002,0.55 1.6900000000000002,1.61 v1.55 a0.8400000000000001,0.8400000000000001 0 0 0 0.08000000000000002,0.44000000000000006 l0.15000000000000002,0.28 A0.47000000000000003,0.47000000000000003 0 0 1 78.07000091552734,225.85999664306638 zm-1,-1.08 v-0.48000000000000004 s0,0 -0.06000000000000001,0 h-0.8600000000000001 c-0.7400000000000001,0 -1.07,0.21000000000000002 -1.07,0.7000000000000001 s0.32000000000000006,0.6800000000000002 0.9,0.6800000000000002 S77.04000091552734,225.30999664306643 77.04000091552734,224.7799966430664 z" id="svg_50"/><path class="cls-2" d="M80.96000091552733,226.2199966430664 c-0.8800000000000001,0 -1.21,-0.37000000000000005 -1.21,-1.27 V222.5199966430664 s0,-0.06000000000000001 0,-0.06000000000000001 h-0.24000000000000002 a0.29000000000000004,0.29000000000000004 0 0 1 -0.33000000000000007,-0.30000000000000004 a0.30000000000000004,0.30000000000000004 0 0 1 0.33000000000000007,-0.31000000000000005 h0.24000000000000002 s0,0 0,0 v-1 a0.37000000000000005,0.37000000000000005 0 0 1 0.38000000000000006,-0.4 a0.37000000000000005,0.37000000000000005 0 0 1 0.38000000000000006,0.4 v1 s0,0 0.06000000000000001,0 h0.56 a0.30000000000000004,0.30000000000000004 0 0 1 0.33000000000000007,0.31000000000000005 a0.29000000000000004,0.29000000000000004 0 0 1 -0.33000000000000007,0.30000000000000004 H80.54000091552734 a0.05000000000000001,0.05000000000000001 0 0 0 -0.06000000000000001,0.06000000000000001 v2.39 c0,0.46 0.12000000000000001,0.6000000000000001 0.5800000000000001,0.6000000000000001 a0.3400000000000001,0.3400000000000001 0 0 1 0.37000000000000005,0.35000000000000003 c0,0.21000000000000002 -0.14,0.35000000000000003 -0.41000000000000003,0.35000000000000003 z" id="svg_51"/><path class="cls-2" d="M85.78000091552735,227.79999664306638 a0.36000000000000004,0.36000000000000004 0 1 1 0,-0.7100000000000001 c0.36000000000000004,0 0.56,-0.13 0.7500000000000001,-0.6500000000000001 l0.15000000000000002,-0.39000000000000007 l-1.47,-3.7 a0.5800000000000001,0.5800000000000001 0 0 1 0,-0.18000000000000002 a0.38000000000000006,0.38000000000000006 0 0 1 0.7400000000000001,-0.08000000000000002 l1.13,3 h0 l1.08,-3 a0.37000000000000005,0.37000000000000005 0 0 1 0.36000000000000004,-0.27 a0.3400000000000001,0.3400000000000001 0 0 1 0.36000000000000004,0.35000000000000003 a0.5700000000000001,0.5700000000000001 0 0 1 0,0.18000000000000002 l-1.62,4.25 c-0.38000000000000006,1 -0.7200000000000001,1.2 -1.34,1.2 z" id="svg_52"/><path class="cls-2" d="M90.17000091552734,225.10999664306638 a4.07,4.07 0 0 1 0,-2.19 a1.83,1.83 0 0 1 3.4,0 a4.07,4.07 0 0 1 0,2.19 a1.83,1.83 0 0 1 -3.4,0 zm2.67,-0.21000000000000002 a2.6500000000000004,2.6500000000000004 0 0 0 0.1,-0.8900000000000001 a2.52,2.52 0 0 0 -0.1,-0.8700000000000001 a1,1 0 0 0 -1.94,0 a2.79,2.79 0 0 0 -0.1,0.8700000000000001 a2.94,2.94 0 0 0 0.1,0.8900000000000001 a1,1 0 0 0 1.94,0 z" id="svg_53"/><path class="cls-2" d="M98.75000091552735,225.80999664306643 a0.38000000000000006,0.38000000000000006 0 1 1 -0.7500000000000001,0 v-0.12000000000000001 h0 a1.33,1.33 0 0 1 -1.19,0.5800000000000001 a1.44,1.44 0 0 1 -1.48,-1.62 V222.2199966430664 a0.38000000000000006,0.38000000000000006 0 1 1 0.7500000000000001,0 V224.5199966430664 c0,0.7000000000000001 0.31000000000000005,1.1 1,1.1 a1,1 0 0 0 1,-1.05 v-2.3 a0.38000000000000006,0.38000000000000006 0 1 1 0.7500000000000001,0 z" id="svg_54"/><path class="cls-2" d="M100.68000091552733,225.80999664306643 V222.2199966430664 a0.37000000000000005,0.37000000000000005 0 0 1 0.38000000000000006,-0.4 a0.37000000000000005,0.37000000000000005 0 0 1 0.38000000000000006,0.4 v0.2 h0 a1.1600000000000001,1.1600000000000001 0 0 1 1.1,-0.6600000000000001 a1.24,1.24 0 0 1 0.6400000000000001,0.16000000000000003 a0.36000000000000004,0.36000000000000004 0 0 1 0.22000000000000003,0.32000000000000006 a0.37000000000000005,0.37000000000000005 0 0 1 -0.38000000000000006,0.38000000000000006 a0.49000000000000005,0.49000000000000005 0 0 1 -0.19000000000000003,-0.05000000000000001 a1.35,1.35 0 0 0 -0.5,-0.1 c-0.6400000000000001,0 -0.9,0.54 -0.9,1.26 v2.08 a0.38000000000000006,0.38000000000000006 0 0 1 -0.38000000000000006,0.41000000000000003 A0.37000000000000005,0.37000000000000005 0 0 1 100.68000091552733,225.80999664306643 z" id="svg_55"/><path class="cls-2" d="M110.03000091552735,225.80999664306643 v-0.11000000000000001 h0 a1.29,1.29 0 0 1 -1.22,0.5700000000000001 a1.5,1.5 0 0 1 -1.49,-1.08 a3.94,3.94 0 0 1 -0.15000000000000002,-1.18 a4,4 0 0 1 0.15000000000000002,-1.17 a1.51,1.51 0 0 1 1.49,-1.08 a1.3,1.3 0 0 1 1.22,0.5800000000000001 h0 v-1.9300000000000002 a0.38000000000000006,0.38000000000000006 0 1 1 0.7600000000000001,0 v5.4 a0.38000000000000006,0.38000000000000006 0 1 1 -0.7600000000000001,0 zm-0.1,-0.91 a2.8,2.8 0 0 0 0.1,-0.8900000000000001 a2.66,2.66 0 0 0 -0.1,-0.8700000000000001 a0.92,0.92 0 0 0 -0.9500000000000001,-0.6700000000000002 a0.93,0.93 0 0 0 -0.9500000000000001,0.6700000000000002 a2.66,2.66 0 0 0 -0.1,0.8700000000000001 a2.8,2.8 0 0 0 0.1,0.8900000000000001 a0.93,0.93 0 0 0 0.9500000000000001,0.6700000000000002 A0.92,0.92 0 0 0 109.93000091552733,224.8999966430664 z" id="svg_56"/><path class="cls-2" d="M112.60000091552735,225.10999664306638 a4.07,4.07 0 0 1 0,-2.19 a1.83,1.83 0 0 1 3.4,0 a4.35,4.35 0 0 1 0,2.19 a1.83,1.83 0 0 1 -3.4,0 zm2.67,-0.21000000000000002 a2.94,2.94 0 0 0 0.1,-0.8900000000000001 a2.79,2.79 0 0 0 -0.1,-0.8700000000000001 a1,1 0 0 0 -1.94,0 a2.52,2.52 0 0 0 -0.1,0.8700000000000001 a2.6500000000000004,2.6500000000000004 0 0 0 0.1,0.8900000000000001 a1,1 0 0 0 1.94,0 z" id="svg_57"/><path class="cls-2" d="M117.69000091552735,225.10999664306638 a4.35,4.35 0 0 1 0,-2.19 a1.83,1.83 0 0 1 3.4,0 a4.07,4.07 0 0 1 0,2.19 a1.83,1.83 0 0 1 -3.4,0 zm2.67,-0.21000000000000002 a2.6500000000000004,2.6500000000000004 0 0 0 0.1,-0.8900000000000001 a2.52,2.52 0 0 0 -0.1,-0.8700000000000001 a1,1 0 0 0 -1.94,0 a2.79,2.79 0 0 0 -0.1,0.8700000000000001 a2.94,2.94 0 0 0 0.1,0.8900000000000001 a1,1 0 0 0 1.94,0 z" id="svg_58"/><path class="cls-2" d="M122.90000091552736,225.80999664306643 V222.2199966430664 a0.38000000000000006,0.38000000000000006 0 1 1 0.7600000000000001,0 v0.2 h0 a1.1600000000000001,1.1600000000000001 0 0 1 1.1,-0.6600000000000001 a1.24,1.24 0 0 1 0.6400000000000001,0.16000000000000003 a0.3400000000000001,0.3400000000000001 0 0 1 0.22000000000000003,0.32000000000000006 a0.36000000000000004,0.36000000000000004 0 0 1 -0.38000000000000006,0.38000000000000006 a0.49000000000000005,0.49000000000000005 0 0 1 -0.19000000000000003,-0.05000000000000001 a1.34,1.34 0 0 0 -0.49000000000000005,-0.1 c-0.6500000000000001,0 -0.91,0.54 -0.91,1.26 v2.08 a0.38000000000000006,0.38000000000000006 0 1 1 -0.7600000000000001,0 z" id="svg_59"/><path class="cls-2" d="M126.84000091552736,225.79999664306638 a0.4,0.4 0 0 1 -0.18000000000000002,-0.32000000000000006 a0.35000000000000003,0.35000000000000003 0 0 1 0.35000000000000003,-0.3400000000000001 a0.54,0.54 0 0 1 0.26,0.08000000000000002 a2.25,2.25 0 0 0 1.2,0.38000000000000006 c0.6200000000000001,0 0.9500000000000001,-0.27 0.9500000000000001,-0.6500000000000001 s-0.17,-0.54 -0.8500000000000001,-0.6100000000000001 l-0.45,-0.05000000000000001 c-0.8500000000000001,-0.09000000000000002 -1.29,-0.52 -1.29,-1.21 s0.5900000000000001,-1.32 1.6,-1.32 a2.6,2.6 0 0 1 1.28,0.32000000000000006 a0.3400000000000001,0.3400000000000001 0 0 1 0.23,0.31000000000000005 a0.32000000000000006,0.32000000000000006 0 0 1 -0.32000000000000006,0.33000000000000007 a0.6000000000000001,0.6000000000000001 0 0 1 -0.28,-0.08000000000000002 a2.29,2.29 0 0 0 -1,-0.22000000000000003 c-0.54,0 -0.8200000000000001,0.24000000000000002 -0.8200000000000001,0.5900000000000001 s0.2,0.53 0.8500000000000001,0.5900000000000001 l0.45,0 c0.9,0.1 1.29,0.53 1.29,1.23 s-0.6100000000000001,1.4 -1.75,1.4 A2.79,2.79 0 0 1 126.84000091552736,225.79999664306638 z" id="svg_60"/><path class="cls-2" d="M133.11000091552734,226.2199966430664 c-0.8800000000000001,0 -1.21,-0.37000000000000005 -1.21,-1.27 V222.5199966430664 s0,-0.06000000000000001 -0.05000000000000001,-0.06000000000000001 h-0.25 a0.29000000000000004,0.29000000000000004 0 0 1 -0.32000000000000006,-0.30000000000000004 a0.30000000000000004,0.30000000000000004 0 0 1 0.32000000000000006,-0.31000000000000005 h0.25 a0,0 0 0 0 0.05000000000000001,0 v-1 a0.38000000000000006,0.38000000000000006 0 1 1 0.7600000000000001,0 v1 s0,0 0,0 h0.5700000000000001 a0.29000000000000004,0.29000000000000004 0 0 1 0.32000000000000006,0.31000000000000005 a0.28,0.28 0 0 1 -0.32000000000000006,0.30000000000000004 h-0.5700000000000001 s0,0 0,0.06000000000000001 v2.39 c0,0.46 0.11000000000000001,0.6000000000000001 0.5700000000000001,0.6000000000000001 a0.33000000000000007,0.33000000000000007 0 0 1 0.37000000000000005,0.35000000000000003 c0,0.21000000000000002 -0.13,0.35000000000000003 -0.4,0.35000000000000003 z" id="svg_61"/><path class="cls-2" d="M135.00000091552735,225.0999966430664 a3.55,3.55 0 0 1 -0.14,-1.09 a3.3,3.3 0 0 1 0.14,-1.09 a1.6600000000000001,1.6600000000000001 0 0 1 1.6800000000000002,-1.1600000000000001 a1.6400000000000001,1.6400000000000001 0 0 1 1.6900000000000002,1.1600000000000001 a3.09,3.09 0 0 1 0.15000000000000002,1 a0.28,0.28 0 0 1 -0.30000000000000004,0.29000000000000004 h-2.5300000000000002 s-0.05000000000000001,0 -0.05000000000000001,0 a1.4300000000000002,1.4300000000000002 0 0 0 0.07,0.52 a1.06,1.06 0 0 0 1.09,0.7500000000000001 a1.53,1.53 0 0 0 1,-0.37000000000000005 a0.42000000000000004,0.42000000000000004 0 0 1 0.26,-0.11000000000000001 a0.32000000000000006,0.32000000000000006 0 0 1 0.32000000000000006,0.32000000000000006 a0.38000000000000006,0.38000000000000006 0 0 1 -0.12000000000000001,0.27 a2.23,2.23 0 0 1 -1.55,0.5900000000000001 A1.6700000000000002,1.6700000000000002 0 0 1 135.00000091552735,225.0999966430664 zm2.6900000000000004,-1.46 s0,0 0,-0.05000000000000001 a1.73,1.73 0 0 0 -0.06000000000000001,-0.49000000000000005 a1.07,1.07 0 0 0 -2,0 a1.4300000000000002,1.4300000000000002 0 0 0 -0.06000000000000001,0.49000000000000005 s0,0.05000000000000001 0.05000000000000001,0.05000000000000001 z" id="svg_62"/><path class="cls-2" d="M140.18000091552733,227.43999664306642 V222.2199966430664 a0.37000000000000005,0.37000000000000005 0 0 1 0.38000000000000006,-0.4 a0.37000000000000005,0.37000000000000005 0 0 1 0.38000000000000006,0.4 v0.12000000000000001 h0 a1.3,1.3 0 0 1 1.22,-0.5800000000000001 a1.51,1.51 0 0 1 1.49,1.08 a4,4 0 0 1 0.15000000000000002,1.18 a3.91,3.91 0 0 1 -0.15000000000000002,1.17 a1.5,1.5 0 0 1 -1.49,1.08 a1.29,1.29 0 0 1 -1.22,-0.5700000000000001 h0 v1.7400000000000002 a0.37000000000000005,0.37000000000000005 0 0 1 -0.38000000000000006,0.4 A0.37000000000000005,0.37000000000000005 0 0 1 140.18000091552733,227.43999664306642 zm2.7600000000000002,-2.54 a2.8,2.8 0 0 0 0.09000000000000002,-0.8800000000000001 a2.73,2.73 0 0 0 -0.09000000000000002,-0.8800000000000001 a0.93,0.93 0 0 0 -1,-0.6700000000000002 a0.92,0.92 0 0 0 -0.9500000000000001,0.6700000000000002 a2.6900000000000004,2.6900000000000004 0 0 0 -0.1,0.8800000000000001 a2.77,2.77 0 0 0 0.1,0.8800000000000001 a0.92,0.92 0 0 0 0.9500000000000001,0.6700000000000002 A0.93,0.93 0 0 0 142.94000091552735,224.8999966430664 z" id="svg_63"/><path class="cls-2" d="M151.63000091552735,225.85999664306638 a0.36000000000000004,0.36000000000000004 0 0 1 -0.39000000000000007,0.36000000000000004 a0.39000000000000007,0.39000000000000007 0 0 1 -0.33000000000000007,-0.19000000000000003 l-0.17,-0.27 h0 a1.6500000000000001,1.6500000000000001 0 0 1 -1.32,0.51 c-1,0 -1.53,-0.47000000000000003 -1.53,-1.29 s0.6200000000000001,-1.34 1.6900000000000002,-1.34 h1 s0.05000000000000001,0 0.05000000000000001,-0.05000000000000001 v-0.21000000000000002 c0,-0.6000000000000001 -0.28,-0.9400000000000001 -1,-0.9400000000000001 a2.24,2.24 0 0 0 -0.8900000000000001,0.21000000000000002 a0.47000000000000003,0.47000000000000003 0 0 1 -0.21000000000000002,0.07 a0.30000000000000004,0.30000000000000004 0 0 1 -0.32000000000000006,-0.33000000000000007 a0.33000000000000007,0.33000000000000007 0 0 1 0.18000000000000002,-0.30000000000000004 a2.38,2.38 0 0 1 1.31,-0.33000000000000007 c1.15,0 1.6900000000000002,0.55 1.6900000000000002,1.61 v1.55 a0.8400000000000001,0.8400000000000001 0 0 0 0.08000000000000002,0.44000000000000006 l0.16000000000000003,0.28 A0.6000000000000001,0.6000000000000001 0 0 1 151.63000091552735,225.85999664306638 zm-1,-1.08 v-0.48000000000000004 a0,0 0 0 0 -0.05000000000000001,0 h-0.8700000000000001 c-0.7300000000000001,0 -1.07,0.21000000000000002 -1.07,0.7000000000000001 s0.33000000000000007,0.6800000000000002 0.9,0.6800000000000002 S150.60000091552735,225.30999664306643 150.60000091552735,224.7799966430664 z" id="svg_64"/><path class="cls-2" d="M153.23000091552734,222.2199966430664 a0.38000000000000006,0.38000000000000006 0 1 1 0.7600000000000001,0 v0.13 h0 a1.36,1.36 0 0 1 1.2,-0.5900000000000001 a1.45,1.45 0 0 1 1.5,1.62 v2.43 a0.38000000000000006,0.38000000000000006 0 0 1 -0.38000000000000006,0.41000000000000003 a0.37000000000000005,0.37000000000000005 0 0 1 -0.38000000000000006,-0.41000000000000003 V223.5199966430664 c0,-0.6900000000000002 -0.31000000000000005,-1.09 -1,-1.09 a1,1 0 0 0 -1,1.05 v2.29 a0.38000000000000006,0.38000000000000006 0 1 1 -0.7600000000000001,0 z" id="svg_65"/><path class="cls-2" d="M161.19000091552735,225.80999664306643 v-0.11000000000000001 h0 a1.32,1.32 0 0 1 -1.23,0.5700000000000001 a1.48,1.48 0 0 1 -1.48,-1.08 a3.64,3.64 0 0 1 -0.15000000000000002,-1.18 a3.7,3.7 0 0 1 0.15000000000000002,-1.17 a1.5,1.5 0 0 1 1.48,-1.08 a1.33,1.33 0 0 1 1.23,0.5800000000000001 h0 v-1.9300000000000002 a0.38000000000000006,0.38000000000000006 0 1 1 0.7500000000000001,0 v5.4 a0.38000000000000006,0.38000000000000006 0 1 1 -0.7500000000000001,0 zm-0.1,-0.91 a2.8,2.8 0 0 0 0.1,-0.8900000000000001 a2.66,2.66 0 0 0 -0.1,-0.8700000000000001 a0.9400000000000001,0.9400000000000001 0 0 0 -1,-0.6700000000000002 a0.92,0.92 0 0 0 -0.9400000000000001,0.6700000000000002 a2.66,2.66 0 0 0 -0.1,0.8700000000000001 a2.8,2.8 0 0 0 0.1,0.8900000000000001 a0.92,0.92 0 0 0 0.9400000000000001,0.6700000000000002 A0.9400000000000001,0.9400000000000001 0 0 0 161.09000091552736,224.8999966430664 z" id="svg_66"/><path class="cls-2" d="M166.38000091552735,225.0999966430664 a3.26,3.26 0 0 1 -0.14,-1.09 a3.35,3.35 0 0 1 0.13,-1.09 a1.81,1.81 0 0 1 3.38,0 a3.4,3.4 0 0 1 0.14,1 a0.28,0.28 0 0 1 -0.30000000000000004,0.29000000000000004 h-2.5300000000000002 a0,0 0 0 0 -0.05000000000000001,0 a1.6800000000000002,1.6800000000000002 0 0 0 0.07,0.52 a1.06,1.06 0 0 0 1.09,0.7500000000000001 a1.58,1.58 0 0 0 1,-0.37000000000000005 a0.42000000000000004,0.42000000000000004 0 0 1 0.26,-0.11000000000000001 a0.31000000000000005,0.31000000000000005 0 0 1 0.31000000000000005,0.32000000000000006 a0.3400000000000001,0.3400000000000001 0 0 1 -0.12000000000000001,0.27 a2.2,2.2 0 0 1 -1.54,0.5900000000000001 A1.6600000000000001,1.6600000000000001 0 0 1 166.38000091552735,225.0999966430664 zm2.68,-1.46 s0.06000000000000001,0 0.06000000000000001,-0.05000000000000001 a1.4100000000000001,1.4100000000000001 0 0 0 -0.07,-0.49000000000000005 a1,1 0 0 0 -1,-0.6700000000000002 a1,1 0 0 0 -1,0.6700000000000002 a1.73,1.73 0 0 0 -0.06000000000000001,0.49000000000000005 s0,0.05000000000000001 0.05000000000000001,0.05000000000000001 z" id="svg_67"/><path class="cls-2" d="M171.54000091552734,222.2199966430664 a0.37000000000000005,0.37000000000000005 0 0 1 0.38000000000000006,-0.4 a0.37000000000000005,0.37000000000000005 0 0 1 0.38000000000000006,0.4 v0.13 h0 a1.3800000000000001,1.3800000000000001 0 0 1 1.21,-0.5900000000000001 a1.45,1.45 0 0 1 1.49,1.62 v2.43 a0.37000000000000005,0.37000000000000005 0 0 1 -0.38000000000000006,0.41000000000000003 a0.38000000000000006,0.38000000000000006 0 0 1 -0.38000000000000006,-0.41000000000000003 V223.5199966430664 c0,-0.6900000000000002 -0.31000000000000005,-1.09 -1,-1.09 a1,1 0 0 0 -1,1.05 v2.29 a0.37000000000000005,0.37000000000000005 0 0 1 -0.38000000000000006,0.41000000000000003 a0.38000000000000006,0.38000000000000006 0 0 1 -0.38000000000000006,-0.41000000000000003 z" id="svg_68"/><path class="cls-2" d="M176.90000091552736,222.2199966430664 a0.37000000000000005,0.37000000000000005 0 0 1 0.38000000000000006,-0.4 a0.37000000000000005,0.37000000000000005 0 0 1 0.38000000000000006,0.4 V226.5199966430664 c0,0.92 -0.42000000000000004,1.3 -1.25,1.3 a0.36000000000000004,0.36000000000000004 0 0 1 0,-0.7100000000000001 c0.39000000000000007,0 0.51,-0.14 0.51,-0.5800000000000001 zm-0.12000000000000001,-1.7200000000000002 a0.49000000000000005,0.49000000000000005 0 0 1 0.5,-0.49000000000000005 a0.48000000000000004,0.48000000000000004 0 0 1 0.49000000000000005,0.49000000000000005 a0.5,0.5 0 0 1 -0.49000000000000005,0.5 A0.51,0.51 0 0 1 176.78000091552735,220.5199966430664 z" id="svg_69"/><path class="cls-2" d="M179.46000091552733,225.10999664306638 a4.35,4.35 0 0 1 0,-2.19 a1.83,1.83 0 0 1 3.41,0 a4.35,4.35 0 0 1 0,2.19 a1.83,1.83 0 0 1 -3.41,0 zm2.68,-0.21000000000000002 a2.94,2.94 0 0 0 0.1,-0.8900000000000001 a2.79,2.79 0 0 0 -0.1,-0.8700000000000001 a1,1 0 0 0 -1.9500000000000002,0 a2.79,2.79 0 0 0 -0.1,0.8700000000000001 a2.94,2.94 0 0 0 0.1,0.8900000000000001 a1,1 0 0 0 1.9500000000000002,0 z" id="svg_70"/><path class="cls-2" d="M184.84000091552736,227.79999664306638 a0.36000000000000004,0.36000000000000004 0 1 1 0,-0.7100000000000001 c0.35000000000000003,0 0.56,-0.13 0.7400000000000001,-0.6500000000000001 l0.15000000000000002,-0.39000000000000007 l-1.47,-3.7 a0.5700000000000001,0.5700000000000001 0 0 1 0,-0.18000000000000002 a0.37000000000000005,0.37000000000000005 0 0 1 0.7300000000000001,-0.08000000000000002 l1.13,3 h0 l1.08,-3 a0.37000000000000005,0.37000000000000005 0 0 1 0.7200000000000001,0.08000000000000002 a0.5800000000000001,0.5800000000000001 0 0 1 0,0.18000000000000002 l-1.62,4.25 c-0.38000000000000006,1 -0.7200000000000001,1.2 -1.34,1.2 z" id="svg_71"/><path class="cls-2" d="M189.93000091552733,225.18999664306642 a0.52,0.52 0 0 1 0.51,0.52 a0.51,0.51 0 1 1 -1,0 A0.52,0.52 0 0 1 189.93000091552733,225.18999664306642 zm-0.38000000000000006,-1.05 v-3.73 a0.37000000000000005,0.37000000000000005 0 0 1 0.38000000000000006,-0.4 a0.36000000000000004,0.36000000000000004 0 0 1 0.38000000000000006,0.4 v3.73 a0.36000000000000004,0.36000000000000004 0 0 1 -0.38000000000000006,0.4 A0.37000000000000005,0.37000000000000005 0 0 1 189.54000091552734,224.1399966430664 z" id="svg_72"/><path class="cls-2" d="M132.54000091552734,21.879996643066406 c-1.52,0 -2.35,0.81 -2.51,2.44 H124.54000091552734 a6.66,6.66 0 0 1 2.23,-5.36 a8.81,8.81 0 0 1 5.92,-1.9 a8.43,8.43 0 0 1 5.75,1.81 A5.91,5.91 0 0 1 140.54000091552734,23.519996643066406 a5.67,5.67 0 0 1 -1.07,3.6 a5.6,5.6 0 0 1 -2.19,1.85 v0.13 q3.6900000000000004,1.42 3.6900000000000004,5.71 a6.38,6.38 0 0 1 -2.16,5.1 a8.85,8.85 0 0 1 -6,1.86 A9.56,9.56 0 0 1 126.54000091552734,39.79999664306641 a7,7 0 0 1 -2.41,-5.8100000000000005 h5.48 a3.29,3.29 0 0 0 0.8200000000000001,2.29 a2.88,2.88 0 0 0 2.2,0.8400000000000001 a2.75,2.75 0 0 0 2.11,-0.7600000000000001 a3,3 0 0 0 0.7100000000000001,-2.16 a2.38,2.38 0 0 0 -1,-2.09 a5.82,5.82 0 0 0 -3.24,-0.6900000000000002 h-1.05 V26.82999664306641 h1.05 q3.7600000000000002,0 3.77,-2.64 A2.2,2.2 0 0 0 134.34000091552736,22.519996643066406 A2.5700000000000003,2.5700000000000003 0 0 0 132.54000091552734,21.879996643066406 z" id="svg_73"/><g class="cls-3" id="svg_74"><path class="cls-2" d="M11.95000091552734,35.99999664306641 H0.010000915527342613 v-36 h36 V11.849996643066405 h-24 z" id="svg_75"/><path class="cls-2" d="M253.28000091552735,11.879996643066406 H229.07000091552732 V0.02999664306640426 h36 v36 H253.28000091552735 z" id="svg_76"/><path class="cls-2" d="M0.03000091552734574,229.04999664306638 H11.910000915527341 v24.08 H36.00000091552734 v11.86 h-36 z" id="svg_77"/><path class="cls-2" d="M229.06000091552733,265.0099966430664 V253.1599966430664 h24.07 v-24.1 h11.94 v35.95 z" id="svg_78"/></g></g></svg>