<svg xmlns="http://www.w3.org/2000/svg" data-name="Layer 1" width="265" height="265" style=""><rect id="backgroundrect" width="100%" height="100%" x="0" y="0" fill="none" stroke="none"/><defs><style>.cls-1{fill:#fff;}.cls-2{opacity:0.09;}.cls-3{fill:#51317c;}</style></defs><title>Eidetic_SocialMediaInfoGraphics_Feb182018-01-01</title><g class="currentLayer" style=""><title>Layer 1</title><path class="cls-1" d="M90.98000091552734,209.60999664306638 a0.3400000000000001,0.3400000000000001 0 0 1 0.36000000000000004,-0.36000000000000004 h1.8900000000000001 a1.83,1.83 0 1 1 0,3.66 H91.84000091552736 s-0.06000000000000001,0 -0.06000000000000001,0.05000000000000001 v2 a0.38000000000000006,0.38000000000000006 0 0 1 -0.39000000000000007,0.43000000000000005 a0.39000000000000007,0.39000000000000007 0 0 1 -0.41000000000000003,-0.43000000000000005 zm3.42,1.47 a1,1 0 0 0 -1.19,-1.08 H91.84000091552736 s-0.06000000000000001,0 -0.06000000000000001,0 v2.06 s0,0.05000000000000001 0.06000000000000001,0.05000000000000001 h1.37 A1,1 0 0 0 94.40000091552736,211.0799966430664 z" id="svg_1"/><path class="cls-1" d="M96.63000091552735,209.6999966430664 a0.48000000000000004,0.48000000000000004 0 0 1 0.49000000000000005,-0.49000000000000005 a0.49000000000000005,0.49000000000000005 0 0 1 0.5,0.49000000000000005 a0.51,0.51 0 0 1 -0.5,0.5 A0.5,0.5 0 0 1 96.63000091552735,209.6999966430664 zm0.11000000000000001,1.7200000000000002 a0.38000000000000006,0.38000000000000006 0 1 1 0.7600000000000001,0 v3.59 a0.38000000000000006,0.38000000000000006 0 1 1 -0.7600000000000001,0 z" id="svg_2"/><path class="cls-1" d="M99.30000091552733,214.30999664306643 a3.72,3.72 0 0 1 -0.14,-1.1 a3.8,3.8 0 0 1 0.14,-1.09 a1.83,1.83 0 0 1 3.08,-0.53 a0.46,0.46 0 0 1 0.1,0.28 a0.33000000000000007,0.33000000000000007 0 0 1 -0.33000000000000007,0.3400000000000001 a0.48000000000000004,0.48000000000000004 0 0 1 -0.33000000000000007,-0.18000000000000002 a1,1 0 0 0 -0.8200000000000001,-0.36000000000000004 a0.92,0.92 0 0 0 -1,0.6700000000000002 a2.66,2.66 0 0 0 -0.1,0.8700000000000001 a2.72,2.72 0 0 0 0.1,0.8900000000000001 a0.92,0.92 0 0 0 1,0.6700000000000002 a1,1 0 0 0 0.8200000000000001,-0.36000000000000004 a0.44000000000000006,0.44000000000000006 0 0 1 0.33000000000000007,-0.18000000000000002 a0.33000000000000007,0.33000000000000007 0 0 1 0.33000000000000007,0.33000000000000007 a0.46,0.46 0 0 1 -0.1,0.28 a1.6900000000000002,1.6900000000000002 0 0 1 -1.3800000000000001,0.6300000000000001 A1.6600000000000001,1.6600000000000001 0 0 1 99.30000091552733,214.30999664306643 z" id="svg_3"/><path class="cls-1" d="M104.12000091552736,209.60999664306638 a0.38000000000000006,0.38000000000000006 0 1 1 0.7600000000000001,0 v3.5300000000000002 l1.7600000000000002,-2 a0.36000000000000004,0.36000000000000004 0 0 1 0.29000000000000004,-0.13 a0.31000000000000005,0.31000000000000005 0 0 1 0.32000000000000006,0.31000000000000005 a0.36000000000000004,0.36000000000000004 0 0 1 -0.11000000000000001,0.25 l-1,1.09 l1.36,2.18 a0.46,0.46 0 0 1 0.06000000000000001,0.23 a0.3400000000000001,0.3400000000000001 0 0 1 -0.36000000000000004,0.3400000000000001 a0.4,0.4 0 0 1 -0.35000000000000003,-0.22000000000000003 l-1.22,-2 l-0.7500000000000001,0.8500000000000001 v0.9500000000000001 a0.38000000000000006,0.38000000000000006 0 1 1 -0.7600000000000001,0 z" id="svg_4"/><path class="cls-1" d="M115.33000091552734,215.05999664306643 a0.36000000000000004,0.36000000000000004 0 0 1 -0.39000000000000007,0.36000000000000004 a0.39000000000000007,0.39000000000000007 0 0 1 -0.33000000000000007,-0.19000000000000003 l-0.17,-0.27 h0 a1.6700000000000002,1.6700000000000002 0 0 1 -1.33,0.51 c-1,0 -1.52,-0.47000000000000003 -1.52,-1.29 s0.6200000000000001,-1.33 1.6900000000000002,-1.33 h1 s0,0 0,-0.06000000000000001 v-0.21000000000000002 c0,-0.6000000000000001 -0.28,-0.9400000000000001 -1,-0.9400000000000001 a2.2,2.2 0 0 0 -0.8900000000000001,0.21000000000000002 a0.47000000000000003,0.47000000000000003 0 0 1 -0.21000000000000002,0.07 a0.31000000000000005,0.31000000000000005 0 0 1 -0.33000000000000007,-0.33000000000000007 a0.35000000000000003,0.35000000000000003 0 0 1 0.18000000000000002,-0.30000000000000004 a2.42,2.42 0 0 1 1.32,-0.33000000000000007 c1.15,0 1.6900000000000002,0.55 1.6900000000000002,1.61 v1.55 a0.8400000000000001,0.8400000000000001 0 0 0 0.08000000000000002,0.44000000000000006 l0.16000000000000003,0.28 A0.6000000000000001,0.6000000000000001 0 0 1 115.33000091552734,215.05999664306643 zm-1,-1.08 V213.5199966430664 a0,0 0 0 0 0,-0.05000000000000001 h-0.8700000000000001 c-0.7400000000000001,0 -1.07,0.21000000000000002 -1.07,0.7000000000000001 s0.33000000000000007,0.6800000000000002 0.9,0.6800000000000002 S114.30000091552733,214.5199966430664 114.30000091552733,213.97999664306639 z" id="svg_5"/><path class="cls-1" d="M119.54000091552734,211.41999664306638 a0.38000000000000006,0.38000000000000006 0 1 1 0.7500000000000001,0 V211.5199966430664 h0 a1.52,1.52 0 0 1 2.47,0.09000000000000002 h0 a1.58,1.58 0 0 1 1.3900000000000001,-0.6800000000000002 a1.46,1.46 0 0 1 1.54,1.62 v2.43 a0.38000000000000006,0.38000000000000006 0 1 1 -0.7500000000000001,0 v-2.25 c0,-0.6900000000000002 -0.32000000000000006,-1.09 -1,-1.09 a1,1 0 0 0 -1,1.05 v2.29 a0.38000000000000006,0.38000000000000006 0 1 1 -0.7500000000000001,0 v-2.25 c0,-0.6900000000000002 -0.32000000000000006,-1.09 -1,-1.09 a1,1 0 0 0 -1,1.05 v2.29 a0.38000000000000006,0.38000000000000006 0 1 1 -0.7500000000000001,0 z" id="svg_6"/><path class="cls-1" d="M127.54000091552734,214.30999664306643 a3.46,3.46 0 0 1 -0.14,-1.1 a3.52,3.52 0 0 1 0.14,-1.09 a1.83,1.83 0 0 1 3.41,0 a3.24,3.24 0 0 1 0.14,1.09 a3.19,3.19 0 0 1 -0.14,1.1 a1.83,1.83 0 0 1 -3.41,0 zm2.68,-0.21000000000000002 a2.94,2.94 0 0 0 0.1,-0.8900000000000001 a2.79,2.79 0 0 0 -0.1,-0.8700000000000001 a1,1 0 0 0 -1.9500000000000002,0 a2.79,2.79 0 0 0 -0.1,0.8700000000000001 a2.94,2.94 0 0 0 0.1,0.8900000000000001 a1,1 0 0 0 1.9500000000000002,0 z" id="svg_7"/><path class="cls-1" d="M132.71000091552733,211.41999664306638 a0.38000000000000006,0.38000000000000006 0 1 1 0.7500000000000001,0 V211.5199966430664 h0 a1.3800000000000001,1.3800000000000001 0 0 1 1.21,-0.5900000000000001 a1.45,1.45 0 0 1 1.49,1.62 v2.43 a0.38000000000000006,0.38000000000000006 0 1 1 -0.7500000000000001,0 v-2.25 c0,-0.6900000000000002 -0.32000000000000006,-1.09 -1,-1.09 a1,1 0 0 0 -1,1.05 v2.29 a0.38000000000000006,0.38000000000000006 0 1 1 -0.7500000000000001,0 z" id="svg_8"/><path class="cls-1" d="M139.35000091552735,215.41999664306638 c-0.8800000000000001,0 -1.21,-0.37000000000000005 -1.21,-1.27 v-2.42 s0,-0.06000000000000001 0,-0.06000000000000001 h-0.25 a0.29000000000000004,0.29000000000000004 0 0 1 -0.32000000000000006,-0.30000000000000004 a0.30000000000000004,0.30000000000000004 0 0 1 0.32000000000000006,-0.31000000000000005 h0.25 a0,0 0 0 0 0,-0.05000000000000001 v-0.9500000000000001 a0.38000000000000006,0.38000000000000006 0 1 1 0.7600000000000001,0 v0.9500000000000001 a0,0 0 0 0 0,0.05000000000000001 H139.54000091552734 a0.29000000000000004,0.29000000000000004 0 0 1 0.32000000000000006,0.31000000000000005 a0.28,0.28 0 0 1 -0.32000000000000006,0.30000000000000004 h-0.5700000000000001 s0,0 0,0.06000000000000001 v2.39 c0,0.46 0.11000000000000001,0.6000000000000001 0.5700000000000001,0.6000000000000001 a0.33000000000000007,0.33000000000000007 0 0 1 0.37000000000000005,0.35000000000000003 c0,0.21000000000000002 -0.13,0.35000000000000003 -0.4,0.35000000000000003 z" id="svg_9"/><path class="cls-1" d="M141.36000091552734,209.60999664306638 a0.37000000000000005,0.37000000000000005 0 0 1 0.38000000000000006,-0.4 a0.37000000000000005,0.37000000000000005 0 0 1 0.38000000000000006,0.4 V211.5199966430664 h0 a1.3800000000000001,1.3800000000000001 0 0 1 1.21,-0.5900000000000001 a1.45,1.45 0 0 1 1.49,1.62 v2.43 a0.37000000000000005,0.37000000000000005 0 0 1 -0.38000000000000006,0.41000000000000003 a0.38000000000000006,0.38000000000000006 0 0 1 -0.38000000000000006,-0.41000000000000003 v-2.25 c0,-0.6900000000000002 -0.31000000000000005,-1.09 -1,-1.09 a1,1 0 0 0 -1,1.05 v2.29 a0.37000000000000005,0.37000000000000005 0 0 1 -0.38000000000000006,0.41000000000000003 a0.38000000000000006,0.38000000000000006 0 0 1 -0.38000000000000006,-0.41000000000000003 z" id="svg_10"/><path class="cls-1" d="M147.75000091552735,215.41999664306638 c-0.77,0 -1.05,-0.38000000000000006 -1.05,-1.15 v-4.66 a0.37000000000000005,0.37000000000000005 0 0 1 0.38000000000000006,-0.4 a0.37000000000000005,0.37000000000000005 0 0 1 0.38000000000000006,0.4 v4.61 c0,0.36000000000000004 0.11000000000000001,0.5 0.41000000000000003,0.5 a0.33000000000000007,0.33000000000000007 0 0 1 0.35000000000000003,0.35000000000000003 c0,0.21000000000000002 -0.13,0.35000000000000003 -0.39000000000000007,0.35000000000000003 z" id="svg_11"/><path class="cls-1" d="M149.84000091552736,216.99999664306642 a0.36000000000000004,0.36000000000000004 0 1 1 0,-0.7100000000000001 c0.35000000000000003,0 0.56,-0.13 0.7500000000000001,-0.6500000000000001 l0.14,-0.39000000000000007 l-1.46,-3.7 a0.5800000000000001,0.5800000000000001 0 0 1 0,-0.18000000000000002 a0.36000000000000004,0.36000000000000004 0 0 1 0.38000000000000006,-0.35000000000000003 a0.36000000000000004,0.36000000000000004 0 0 1 0.36000000000000004,0.27 l1.12,3 h0 l1.08,-3 a0.35000000000000003,0.35000000000000003 0 0 1 0.35000000000000003,-0.27 a0.3400000000000001,0.3400000000000001 0 0 1 0.37000000000000005,0.35000000000000003 a1.13,1.13 0 0 1 0,0.18000000000000002 l-1.62,4.25 c-0.38000000000000006,1 -0.7300000000000001,1.2 -1.35,1.2 z" id="svg_12"/><path class="cls-1" d="M157.03000091552735,216.6399966430664 V211.41999664306638 a0.38000000000000006,0.38000000000000006 0 1 1 0.7600000000000001,0 V211.5199966430664 h0 a1.3,1.3 0 0 1 1.22,-0.5800000000000001 a1.51,1.51 0 0 1 1.49,1.08 a4,4 0 0 1 0.15000000000000002,1.18 a3.91,3.91 0 0 1 -0.15000000000000002,1.17 a1.5,1.5 0 0 1 -1.49,1.08 a1.29,1.29 0 0 1 -1.22,-0.5700000000000001 h0 v1.7400000000000002 a0.38000000000000006,0.38000000000000006 0 1 1 -0.7600000000000001,0 zm2.7600000000000002,-2.54 a2.77,2.77 0 0 0 0.1,-0.8800000000000001 a2.73,2.73 0 0 0 -0.1,-0.8800000000000001 a0.93,0.93 0 0 0 -0.9500000000000001,-0.6700000000000002 a0.92,0.92 0 0 0 -1,0.6700000000000002 a2.73,2.73 0 0 0 -0.1,0.8800000000000001 a2.77,2.77 0 0 0 0.1,0.8800000000000001 a0.92,0.92 0 0 0 1,0.6700000000000002 A0.93,0.93 0 0 0 159.79000091552734,214.0999966430664 z" id="svg_13"/><path class="cls-1" d="M163.36000091552734,215.41999664306638 c-0.78,0 -1,-0.38000000000000006 -1,-1.15 v-4.66 a0.38000000000000006,0.38000000000000006 0 1 1 0.7500000000000001,0 v4.61 c0,0.36000000000000004 0.12000000000000001,0.5 0.42000000000000004,0.5 a0.33000000000000007,0.33000000000000007 0 0 1 0.35000000000000003,0.35000000000000003 a0.3400000000000001,0.3400000000000001 0 0 1 -0.39000000000000007,0.35000000000000003 z" id="svg_14"/><path class="cls-1" d="M168.81000091552735,215.05999664306643 a0.36000000000000004,0.36000000000000004 0 0 1 -0.38000000000000006,0.36000000000000004 a0.39000000000000007,0.39000000000000007 0 0 1 -0.3400000000000001,-0.19000000000000003 l-0.17,-0.27 h0 a1.6300000000000001,1.6300000000000001 0 0 1 -1.32,0.51 c-1,0 -1.52,-0.47000000000000003 -1.52,-1.29 s0.6100000000000001,-1.33 1.6800000000000002,-1.33 h1 a0.05000000000000001,0.05000000000000001 0 0 0 0.06000000000000001,-0.06000000000000001 v-0.21000000000000002 c0,-0.6000000000000001 -0.28,-0.9400000000000001 -1,-0.9400000000000001 a2.19,2.19 0 0 0 -0.8800000000000001,0.21000000000000002 a0.47000000000000003,0.47000000000000003 0 0 1 -0.22000000000000003,0.07 a0.31000000000000005,0.31000000000000005 0 0 1 -0.32000000000000006,-0.33000000000000007 a0.33000000000000007,0.33000000000000007 0 0 1 0.18000000000000002,-0.30000000000000004 a2.4,2.4 0 0 1 1.31,-0.33000000000000007 c1.1600000000000001,0 1.7000000000000002,0.55 1.7000000000000002,1.61 v1.55 a0.7500000000000001,0.7500000000000001 0 0 0 0.08000000000000002,0.44000000000000006 l0.15000000000000002,0.28 A0.46,0.46 0 0 1 168.81000091552735,215.05999664306643 zm-1,-1.08 V213.5199966430664 s0,-0.05000000000000001 -0.06000000000000001,-0.05000000000000001 h-0.8600000000000001 c-0.7400000000000001,0 -1.07,0.21000000000000002 -1.07,0.7000000000000001 s0.32000000000000006,0.6800000000000002 0.9,0.6800000000000002 S167.79000091552734,214.5199966430664 167.79000091552734,213.97999664306639 z" id="svg_15"/><path class="cls-1" d="M170.41000091552735,211.41999664306638 a0.37000000000000005,0.37000000000000005 0 0 1 0.38000000000000006,-0.4 a0.37000000000000005,0.37000000000000005 0 0 1 0.38000000000000006,0.4 V211.5199966430664 h0 a1.3800000000000001,1.3800000000000001 0 0 1 1.21,-0.5900000000000001 a1.45,1.45 0 0 1 1.49,1.62 v2.43 a0.37000000000000005,0.37000000000000005 0 0 1 -0.38000000000000006,0.41000000000000003 a0.38000000000000006,0.38000000000000006 0 0 1 -0.38000000000000006,-0.41000000000000003 v-2.25 c0,-0.6900000000000002 -0.31000000000000005,-1.09 -1,-1.09 a1,1 0 0 0 -1,1.05 v2.29 a0.37000000000000005,0.37000000000000005 0 0 1 -0.38000000000000006,0.41000000000000003 a0.38000000000000006,0.38000000000000006 0 0 1 -0.38000000000000006,-0.41000000000000003 z" id="svg_16"/><path class="cls-1" d="M66.60000091552735,225.80999664306643 v-5.4 a0.38000000000000006,0.38000000000000006 0 1 1 0.7600000000000001,0 v1.9300000000000002 h0 a1.3,1.3 0 0 1 1.22,-0.5800000000000001 a1.51,1.51 0 0 1 1.49,1.08 a3.7,3.7 0 0 1 0.15000000000000002,1.17 a3.64,3.64 0 0 1 -0.15000000000000002,1.18 a1.5,1.5 0 0 1 -1.49,1.08 a1.29,1.29 0 0 1 -1.22,-0.5700000000000001 h0 v0.11000000000000001 a0.38000000000000006,0.38000000000000006 0 1 1 -0.7600000000000001,0 zm2.7600000000000002,-0.91 a2.8,2.8 0 0 0 0.1,-0.8900000000000001 a2.66,2.66 0 0 0 -0.1,-0.8700000000000001 a1,1 0 0 0 -1.9,0 a2.66,2.66 0 0 0 -0.1,0.8700000000000001 a2.8,2.8 0 0 0 0.1,0.8900000000000001 a1,1 0 0 0 1.9,0 z" id="svg_17"/><path class="cls-1" d="M75.42000091552734,225.85999664306638 a0.36000000000000004,0.36000000000000004 0 0 1 -0.38000000000000006,0.36000000000000004 a0.39000000000000007,0.39000000000000007 0 0 1 -0.3400000000000001,-0.19000000000000003 l-0.17,-0.27 h0 a1.6500000000000001,1.6500000000000001 0 0 1 -1.32,0.51 c-1,0 -1.52,-0.47000000000000003 -1.52,-1.29 s0.6100000000000001,-1.34 1.6800000000000002,-1.34 h1 s0.06000000000000001,0 0.06000000000000001,-0.05000000000000001 v-0.21000000000000002 c0,-0.6000000000000001 -0.28,-0.9400000000000001 -1,-0.9400000000000001 a2.19,2.19 0 0 0 -0.8800000000000001,0.21000000000000002 a0.47000000000000003,0.47000000000000003 0 0 1 -0.22000000000000003,0.07 a0.30000000000000004,0.30000000000000004 0 0 1 -0.32000000000000006,-0.33000000000000007 a0.33000000000000007,0.33000000000000007 0 0 1 0.18000000000000002,-0.30000000000000004 a2.4,2.4 0 0 1 1.31,-0.33000000000000007 c1.1600000000000001,0 1.7000000000000002,0.55 1.7000000000000002,1.61 v1.55 a0.7500000000000001,0.7500000000000001 0 0 0 0.08000000000000002,0.44000000000000006 l0.15000000000000002,0.28 A0.46,0.46 0 0 1 75.42000091552734,225.85999664306638 zm-1,-1.08 v-0.48000000000000004 s0,0 -0.06000000000000001,0 h-0.8600000000000001 c-0.7400000000000001,0 -1.07,0.21000000000000002 -1.07,0.7000000000000001 s0.32000000000000006,0.6800000000000002 0.9,0.6800000000000002 S74.40000091552734,225.30999664306643 74.40000091552734,224.7799966430664 z" id="svg_18"/><path class="cls-1" d="M76.92000091552734,225.79999664306638 a0.37000000000000005,0.37000000000000005 0 0 1 -0.18000000000000002,-0.32000000000000006 a0.3400000000000001,0.3400000000000001 0 0 1 0.35000000000000003,-0.3400000000000001 a0.51,0.51 0 0 1 0.25,0.08000000000000002 a2.25,2.25 0 0 0 1.21,0.38000000000000006 c0.6200000000000001,0 0.9400000000000001,-0.27 0.9400000000000001,-0.6500000000000001 s-0.16000000000000003,-0.54 -0.8500000000000001,-0.6100000000000001 l-0.45,-0.05000000000000001 c-0.8400000000000001,-0.09000000000000002 -1.28,-0.52 -1.28,-1.21 s0.5800000000000001,-1.32 1.59,-1.32 a2.67,2.67 0 0 1 1.29,0.32000000000000006 a0.3400000000000001,0.3400000000000001 0 0 1 0.22000000000000003,0.31000000000000005 a0.32000000000000006,0.32000000000000006 0 0 1 -0.32000000000000006,0.33000000000000007 a0.6000000000000001,0.6000000000000001 0 0 1 -0.27,-0.08000000000000002 a2.33,2.33 0 0 0 -1,-0.22000000000000003 c-0.54,0 -0.8200000000000001,0.24000000000000002 -0.8200000000000001,0.5900000000000001 s0.2,0.53 0.8500000000000001,0.5900000000000001 l0.45,0 c0.9,0.1 1.3,0.53 1.3,1.23 s-0.6100000000000001,1.4 -1.7600000000000002,1.4 A2.75,2.75 0 0 1 76.92000091552734,225.79999664306638 z" id="svg_19"/><path class="cls-1" d="M81.77000091552733,225.0999966430664 a3.21,3.21 0 0 1 -0.15000000000000002,-1.09 a3.3,3.3 0 0 1 0.14,-1.09 a1.6600000000000001,1.6600000000000001 0 0 1 1.6800000000000002,-1.1600000000000001 a1.6400000000000001,1.6400000000000001 0 0 1 1.6900000000000002,1.1600000000000001 a3.09,3.09 0 0 1 0.15000000000000002,1 a0.28,0.28 0 0 1 -0.30000000000000004,0.29000000000000004 h-2.5300000000000002 a0,0 0 0 0 0,0 a1.6800000000000002,1.6800000000000002 0 0 0 0.07,0.52 a1.06,1.06 0 0 0 1.09,0.7500000000000001 a1.53,1.53 0 0 0 1,-0.37000000000000005 a0.45,0.45 0 0 1 0.26,-0.11000000000000001 a0.31000000000000005,0.31000000000000005 0 0 1 0.32000000000000006,0.32000000000000006 a0.3400000000000001,0.3400000000000001 0 0 1 -0.12000000000000001,0.27 a2.23,2.23 0 0 1 -1.55,0.5900000000000001 A1.6500000000000001,1.6500000000000001 0 0 1 81.77000091552733,225.0999966430664 zm2.68,-1.46 s0.05000000000000001,0 0.05000000000000001,-0.05000000000000001 a1.4300000000000002,1.4300000000000002 0 0 0 -0.06000000000000001,-0.49000000000000005 a1.07,1.07 0 0 0 -2,0 a1.73,1.73 0 0 0 -0.06000000000000001,0.49000000000000005 s0,0.05000000000000001 0,0.05000000000000001 z" id="svg_20"/><path class="cls-1" d="M89.54000091552734,225.80999664306643 v-0.11000000000000001 h0 a1.29,1.29 0 0 1 -1.22,0.5700000000000001 a1.5,1.5 0 0 1 -1.49,-1.08 a3.94,3.94 0 0 1 -0.15000000000000002,-1.18 a4,4 0 0 1 0.15000000000000002,-1.17 a1.51,1.51 0 0 1 1.49,-1.08 a1.3,1.3 0 0 1 1.22,0.5800000000000001 h0 v-1.9300000000000002 a0.38000000000000006,0.38000000000000006 0 1 1 0.7600000000000001,0 v5.4 a0.38000000000000006,0.38000000000000006 0 1 1 -0.7600000000000001,0 zm-0.1,-0.91 a2.8,2.8 0 0 0 0.1,-0.8900000000000001 a2.66,2.66 0 0 0 -0.1,-0.8700000000000001 A0.92,0.92 0 0 0 88.54000091552734,222.5199966430664 a0.93,0.93 0 0 0 -1,0.6700000000000002 a2.66,2.66 0 0 0 -0.1,0.8700000000000001 a2.8,2.8 0 0 0 0.1,0.8900000000000001 a0.93,0.93 0 0 0 1,0.6700000000000002 A0.92,0.92 0 0 0 89.45000091552734,224.8999966430664 z" id="svg_21"/><path class="cls-1" d="M94.74000091552733,225.10999664306638 a4.35,4.35 0 0 1 0,-2.19 a1.83,1.83 0 0 1 3.41,0 a4.35,4.35 0 0 1 0,2.19 a1.83,1.83 0 0 1 -3.41,0 zm2.68,-0.21000000000000002 a2.94,2.94 0 0 0 0.1,-0.8900000000000001 a2.79,2.79 0 0 0 -0.1,-0.8700000000000001 a1,1 0 0 0 -1.9500000000000002,0 a2.79,2.79 0 0 0 -0.1,0.8700000000000001 a2.94,2.94 0 0 0 0.1,0.8900000000000001 a1,1 0 0 0 1.9500000000000002,0 z" id="svg_22"/><path class="cls-1" d="M99.96000091552733,222.2199966430664 a0.38000000000000006,0.38000000000000006 0 1 1 0.7500000000000001,0 v0.13 h0 a1.3800000000000001,1.3800000000000001 0 0 1 1.21,-0.5900000000000001 a1.45,1.45 0 0 1 1.49,1.62 v2.43 a0.38000000000000006,0.38000000000000006 0 1 1 -0.7500000000000001,0 V223.5199966430664 c0,-0.6900000000000002 -0.32000000000000006,-1.09 -1,-1.09 a1,1 0 0 0 -1,1.05 v2.29 a0.38000000000000006,0.38000000000000006 0 1 1 -0.7500000000000001,0 z" id="svg_23"/><path class="cls-1" d="M109.23000091552734,226.2199966430664 c-0.8900000000000001,0 -1.21,-0.37000000000000005 -1.21,-1.27 V222.5199966430664 s0,-0.06000000000000001 0,-0.06000000000000001 h-0.25 a0.29000000000000004,0.29000000000000004 0 0 1 -0.32000000000000006,-0.30000000000000004 a0.30000000000000004,0.30000000000000004 0 0 1 0.32000000000000006,-0.31000000000000005 h0.25 a0,0 0 0 0 0,0 v-1 a0.37000000000000005,0.37000000000000005 0 0 1 0.38000000000000006,-0.4 a0.37000000000000005,0.37000000000000005 0 0 1 0.38000000000000006,0.4 v1 s0,0 0,0 h0.5700000000000001 a0.30000000000000004,0.30000000000000004 0 0 1 0.32000000000000006,0.31000000000000005 a0.29000000000000004,0.29000000000000004 0 0 1 -0.32000000000000006,0.30000000000000004 h-0.5700000000000001 s0,0 0,0.06000000000000001 v2.39 c0,0.46 0.11000000000000001,0.6000000000000001 0.5700000000000001,0.6000000000000001 a0.33000000000000007,0.33000000000000007 0 0 1 0.37000000000000005,0.35000000000000003 c0,0.21000000000000002 -0.13,0.35000000000000003 -0.4,0.35000000000000003 z" id="svg_24"/><path class="cls-1" d="M111.24000091552733,220.4099966430664 a0.38000000000000006,0.38000000000000006 0 1 1 0.7600000000000001,0 v1.94 h0 a1.36,1.36 0 0 1 1.2,-0.5900000000000001 a1.45,1.45 0 0 1 1.5,1.62 v2.43 a0.38000000000000006,0.38000000000000006 0 1 1 -0.7600000000000001,0 V223.5199966430664 c0,-0.6900000000000002 -0.31000000000000005,-1.09 -1,-1.09 a1,1 0 0 0 -1,1.05 v2.29 a0.38000000000000006,0.38000000000000006 0 1 1 -0.7600000000000001,0 z" id="svg_25"/><path class="cls-1" d="M116.48000091552734,225.0999966430664 a3.26,3.26 0 0 1 -0.14,-1.09 a3.35,3.35 0 0 1 0.13,-1.09 a1.81,1.81 0 0 1 3.38,0 a3.4,3.4 0 0 1 0.14,1 a0.28,0.28 0 0 1 -0.30000000000000004,0.29000000000000004 h-2.5300000000000002 a0,0 0 0 0 -0.05000000000000001,0 a1.6800000000000002,1.6800000000000002 0 0 0 0.07,0.52 a1.06,1.06 0 0 0 1.09,0.7500000000000001 a1.58,1.58 0 0 0 1,-0.37000000000000005 a0.42000000000000004,0.42000000000000004 0 0 1 0.26,-0.11000000000000001 a0.31000000000000005,0.31000000000000005 0 0 1 0.31000000000000005,0.32000000000000006 a0.37000000000000005,0.37000000000000005 0 0 1 -0.11000000000000001,0.27 a2.25,2.25 0 0 1 -1.55,0.5900000000000001 A1.6600000000000001,1.6600000000000001 0 0 1 116.48000091552734,225.0999966430664 zm2.68,-1.46 s0.06000000000000001,0 0.06000000000000001,-0.05000000000000001 a1.4100000000000001,1.4100000000000001 0 0 0 -0.07,-0.49000000000000005 a1,1 0 0 0 -1,-0.6700000000000002 a1,1 0 0 0 -1,0.6700000000000002 a1.73,1.73 0 0 0 -0.06000000000000001,0.49000000000000005 s0,0.05000000000000001 0.05000000000000001,0.05000000000000001 z" id="svg_26"/><path class="cls-1" d="M124.28000091552735,222.2199966430664 a0.38000000000000006,0.38000000000000006 0 1 1 0.7600000000000001,0 v0.13 h0 a1.36,1.36 0 0 1 1.2,-0.5900000000000001 a1.45,1.45 0 0 1 1.5,1.62 v2.43 a0.38000000000000006,0.38000000000000006 0 1 1 -0.7600000000000001,0 V223.5199966430664 c0,-0.6900000000000002 -0.31000000000000005,-1.09 -1,-1.09 a1,1 0 0 0 -1,1.05 v2.29 a0.38000000000000006,0.38000000000000006 0 1 1 -0.7600000000000001,0 z" id="svg_27"/><path class="cls-1" d="M133.00000091552735,225.80999664306643 a0.38000000000000006,0.38000000000000006 0 1 1 -0.7500000000000001,0 v-0.12000000000000001 h0 a1.33,1.33 0 0 1 -1.19,0.5800000000000001 a1.44,1.44 0 0 1 -1.49,-1.62 V222.2199966430664 a0.37000000000000005,0.37000000000000005 0 0 1 0.38000000000000006,-0.4 a0.37000000000000005,0.37000000000000005 0 0 1 0.38000000000000006,0.4 V224.5199966430664 c0,0.7000000000000001 0.31000000000000005,1.1 1,1.1 a1,1 0 0 0 1,-1.05 v-2.3 a0.38000000000000006,0.38000000000000006 0 1 1 0.7500000000000001,0 z" id="svg_28"/><path class="cls-1" d="M134.93000091552733,222.2199966430664 a0.37000000000000005,0.37000000000000005 0 0 1 0.38000000000000006,-0.4 a0.37000000000000005,0.37000000000000005 0 0 1 0.38000000000000006,0.4 v0.13 h0 a1.3800000000000001,1.3800000000000001 0 0 1 1.21,-0.5900000000000001 a1.36,1.36 0 0 1 1.26,0.6800000000000002 h0 a1.59,1.59 0 0 1 1.4,-0.6800000000000002 a1.45,1.45 0 0 1 1.53,1.62 v2.43 a0.38000000000000006,0.38000000000000006 0 1 1 -0.7500000000000001,0 V223.5199966430664 c0,-0.6900000000000002 -0.32000000000000006,-1.09 -1,-1.09 a1,1 0 0 0 -1,1.05 v2.29 a0.38000000000000006,0.38000000000000006 0 1 1 -0.7500000000000001,0 V223.5199966430664 c0,-0.6900000000000002 -0.32000000000000006,-1.09 -1,-1.09 a1,1 0 0 0 -1,1.05 v2.29 a0.38000000000000006,0.38000000000000006 0 0 1 -0.38000000000000006,0.41000000000000003 a0.37000000000000005,0.37000000000000005 0 0 1 -0.38000000000000006,-0.41000000000000003 z" id="svg_29"/><path class="cls-1" d="M142.98000091552734,225.80999664306643 v-5.4 a0.37000000000000005,0.37000000000000005 0 0 1 0.38000000000000006,-0.4 a0.37000000000000005,0.37000000000000005 0 0 1 0.38000000000000006,0.4 v1.9300000000000002 h0 a1.32,1.32 0 0 1 1.22,-0.5800000000000001 a1.51,1.51 0 0 1 1.49,1.08 a3.7,3.7 0 0 1 0.15000000000000002,1.17 a3.64,3.64 0 0 1 -0.15000000000000002,1.18 a1.5,1.5 0 0 1 -1.49,1.08 a1.31,1.31 0 0 1 -1.22,-0.5700000000000001 h0 v0.11000000000000001 a0.37000000000000005,0.37000000000000005 0 0 1 -0.38000000000000006,0.41000000000000003 A0.38000000000000006,0.38000000000000006 0 0 1 142.98000091552734,225.80999664306643 zm2.7600000000000002,-0.91 a2.8,2.8 0 0 0 0.1,-0.8900000000000001 a2.66,2.66 0 0 0 -0.1,-0.8700000000000001 a1,1 0 0 0 -1.9,0 a2.66,2.66 0 0 0 -0.1,0.8700000000000001 a2.8,2.8 0 0 0 0.1,0.8900000000000001 a1,1 0 0 0 1.9,0 z" id="svg_30"/><path class="cls-1" d="M148.16000091552735,225.0999966430664 a3.26,3.26 0 0 1 -0.14,-1.09 a3.35,3.35 0 0 1 0.13,-1.09 a1.81,1.81 0 0 1 3.38,0 a3.4,3.4 0 0 1 0.14,1 a0.28,0.28 0 0 1 -0.30000000000000004,0.29000000000000004 H148.84000091552736 a0,0 0 0 0 -0.05000000000000001,0 a1.6800000000000002,1.6800000000000002 0 0 0 0.07,0.52 a1.06,1.06 0 0 0 1.09,0.7500000000000001 a1.58,1.58 0 0 0 1,-0.37000000000000005 a0.42000000000000004,0.42000000000000004 0 0 1 0.26,-0.11000000000000001 a0.31000000000000005,0.31000000000000005 0 0 1 0.31000000000000005,0.32000000000000006 a0.3400000000000001,0.3400000000000001 0 0 1 -0.12000000000000001,0.27 a2.2,2.2 0 0 1 -1.54,0.5900000000000001 A1.6600000000000001,1.6600000000000001 0 0 1 148.16000091552735,225.0999966430664 zm2.68,-1.46 s0.06000000000000001,0 0.06000000000000001,-0.05000000000000001 a1.4100000000000001,1.4100000000000001 0 0 0 -0.07,-0.49000000000000005 a1,1 0 0 0 -1,-0.6700000000000002 a1,1 0 0 0 -1,0.6700000000000002 a1.73,1.73 0 0 0 -0.06000000000000001,0.49000000000000005 s0,0.05000000000000001 0.05000000000000001,0.05000000000000001 z" id="svg_31"/><path class="cls-1" d="M153.33000091552734,225.80999664306643 V222.2199966430664 a0.37000000000000005,0.37000000000000005 0 0 1 0.38000000000000006,-0.4 a0.37000000000000005,0.37000000000000005 0 0 1 0.38000000000000006,0.4 v0.2 h0 a1.17,1.17 0 0 1 1.11,-0.6600000000000001 a1.3,1.3 0 0 1 0.6400000000000001,0.16000000000000003 a0.35000000000000003,0.35000000000000003 0 0 1 0.21000000000000002,0.32000000000000006 a0.36000000000000004,0.36000000000000004 0 0 1 -0.38000000000000006,0.38000000000000006 a0.54,0.54 0 0 1 -0.19000000000000003,-0.05000000000000001 a1.34,1.34 0 0 0 -0.49000000000000005,-0.1 c-0.6500000000000001,0 -0.91,0.54 -0.91,1.26 v2.08 a0.37000000000000005,0.37000000000000005 0 0 1 -0.38000000000000006,0.41000000000000003 A0.38000000000000006,0.38000000000000006 0 0 1 153.33000091552734,225.80999664306643 z" id="svg_32"/><path class="cls-1" d="M159.96000091552733,225.10999664306638 a4.07,4.07 0 0 1 0,-2.19 a1.83,1.83 0 0 1 3.4,0 a4.35,4.35 0 0 1 0,2.19 a1.83,1.83 0 0 1 -3.4,0 zm2.67,-0.21000000000000002 a2.94,2.94 0 0 0 0.1,-0.8900000000000001 a2.79,2.79 0 0 0 -0.1,-0.8700000000000001 a1,1 0 0 0 -1.94,0 a2.52,2.52 0 0 0 -0.1,0.8700000000000001 a2.6500000000000004,2.6500000000000004 0 0 0 0.1,0.8900000000000001 a1,1 0 0 0 1.94,0 z" id="svg_33"/><path class="cls-1" d="M166.76000091552734,221.85999664306638 a0.30000000000000004,0.30000000000000004 0 0 1 0.33000000000000007,0.31000000000000005 a0.29000000000000004,0.29000000000000004 0 0 1 -0.33000000000000007,0.30000000000000004 h-0.6400000000000001 s-0.05000000000000001,0 -0.05000000000000001,0.06000000000000001 v3.2800000000000002 a0.38000000000000006,0.38000000000000006 0 1 1 -0.7600000000000001,0 V222.5199966430664 s0,-0.06000000000000001 -0.05000000000000001,-0.06000000000000001 h-0.24000000000000002 a0.29000000000000004,0.29000000000000004 0 0 1 -0.33000000000000007,-0.30000000000000004 a0.30000000000000004,0.30000000000000004 0 0 1 0.33000000000000007,-0.31000000000000005 h0.24000000000000002 a0,0 0 0 0 0.05000000000000001,0 v-0.38000000000000006 c0,-1 0.43000000000000005,-1.3800000000000001 1.33,-1.3800000000000001 h0.07 a0.3400000000000001,0.3400000000000001 0 0 1 0.39000000000000007,0.35000000000000003 a0.3400000000000001,0.3400000000000001 0 0 1 -0.37000000000000005,0.36000000000000004 c-0.55,0 -0.6600000000000001,0.1 -0.6600000000000001,0.6300000000000001 v0.42000000000000004 a0,0 0 0 0 0.05000000000000001,0 z" id="svg_34"/><path class="cls-1" d="M171.12000091552736,227.43999664306642 V222.2199966430664 a0.38000000000000006,0.38000000000000006 0 1 1 0.7500000000000001,0 v0.12000000000000001 h0 a1.33,1.33 0 0 1 1.23,-0.5800000000000001 a1.49,1.49 0 0 1 1.48,1.08 a3.7,3.7 0 0 1 0.16000000000000003,1.18 a3.59,3.59 0 0 1 -0.16000000000000003,1.17 a1.48,1.48 0 0 1 -1.48,1.08 a1.32,1.32 0 0 1 -1.23,-0.5700000000000001 h0 v1.7400000000000002 a0.38000000000000006,0.38000000000000006 0 1 1 -0.7500000000000001,0 zm2.75,-2.54 a2.77,2.77 0 0 0 0.1,-0.8800000000000001 a2.6900000000000004,2.6900000000000004 0 0 0 -0.1,-0.8800000000000001 a0.92,0.92 0 0 0 -0.9400000000000001,-0.6700000000000002 a0.9400000000000001,0.9400000000000001 0 0 0 -1,0.6700000000000002 a2.6900000000000004,2.6900000000000004 0 0 0 -0.1,0.8800000000000001 a2.77,2.77 0 0 0 0.1,0.8800000000000001 a0.9400000000000001,0.9400000000000001 0 0 0 1,0.6700000000000002 A0.92,0.92 0 0 0 173.87000091552736,224.8999966430664 z" id="svg_35"/><path class="cls-1" d="M176.41000091552735,220.4099966430664 a0.37000000000000005,0.37000000000000005 0 0 1 0.38000000000000006,-0.4 a0.37000000000000005,0.37000000000000005 0 0 1 0.38000000000000006,0.4 v1.94 h0 a1.36,1.36 0 0 1 1.2,-0.5900000000000001 a1.45,1.45 0 0 1 1.5,1.62 v2.43 a0.38000000000000006,0.38000000000000006 0 0 1 -0.38000000000000006,0.41000000000000003 a0.37000000000000005,0.37000000000000005 0 0 1 -0.38000000000000006,-0.41000000000000003 V223.5199966430664 c0,-0.6900000000000002 -0.32000000000000006,-1.09 -1,-1.09 a1,1 0 0 0 -1,1.05 v2.29 a0.38000000000000006,0.38000000000000006 0 0 1 -0.38000000000000006,0.41000000000000003 a0.37000000000000005,0.37000000000000005 0 0 1 -0.38000000000000006,-0.41000000000000003 z" id="svg_36"/><path class="cls-1" d="M181.65000091552736,225.10999664306638 a4.07,4.07 0 0 1 0,-2.19 a1.83,1.83 0 0 1 3.4,0 a4.35,4.35 0 0 1 0,2.19 a1.83,1.83 0 0 1 -3.4,0 zm2.67,-0.21000000000000002 a2.94,2.94 0 0 0 0.1,-0.8900000000000001 a2.79,2.79 0 0 0 -0.1,-0.8700000000000001 a1,1 0 0 0 -1.94,0 a2.52,2.52 0 0 0 -0.1,0.8700000000000001 a2.6500000000000004,2.6500000000000004 0 0 0 0.1,0.8900000000000001 a1,1 0 0 0 1.94,0 z" id="svg_37"/><path class="cls-1" d="M188.15000091552736,226.2199966430664 c-0.8800000000000001,0 -1.2,-0.37000000000000005 -1.2,-1.27 V222.5199966430664 a0.05000000000000001,0.05000000000000001 0 0 0 -0.06000000000000001,-0.06000000000000001 h-0.24000000000000002 a0.28,0.28 0 0 1 -0.32000000000000006,-0.30000000000000004 a0.29000000000000004,0.29000000000000004 0 0 1 0.32000000000000006,-0.31000000000000005 h0.24000000000000002 s0.06000000000000001,0 0.06000000000000001,0 v-1 a0.38000000000000006,0.38000000000000006 0 1 1 0.7500000000000001,0 v1 s0,0 0.06000000000000001,0 h0.5700000000000001 a0.30000000000000004,0.30000000000000004 0 0 1 0.32000000000000006,0.31000000000000005 a0.29000000000000004,0.29000000000000004 0 0 1 -0.32000000000000006,0.30000000000000004 h-0.5700000000000001 a0.05000000000000001,0.05000000000000001 0 0 0 -0.06000000000000001,0.06000000000000001 v2.39 c0,0.46 0.12000000000000001,0.6000000000000001 0.5800000000000001,0.6000000000000001 a0.3400000000000001,0.3400000000000001 0 0 1 0.37000000000000005,0.35000000000000003 c0,0.21000000000000002 -0.14,0.35000000000000003 -0.41000000000000003,0.35000000000000003 z" id="svg_38"/><path class="cls-1" d="M190.05000091552733,225.10999664306638 a4.35,4.35 0 0 1 0,-2.19 a1.83,1.83 0 0 1 3.41,0 a4.35,4.35 0 0 1 0,2.19 a1.83,1.83 0 0 1 -3.41,0 zm2.68,-0.21000000000000002 a2.94,2.94 0 0 0 0.1,-0.8900000000000001 a2.79,2.79 0 0 0 -0.1,-0.8700000000000001 a1,1 0 0 0 -1.9500000000000002,0 a2.79,2.79 0 0 0 -0.1,0.8700000000000001 a2.94,2.94 0 0 0 0.1,0.8900000000000001 a1,1 0 0 0 1.9500000000000002,0 z" id="svg_39"/><path class="cls-1" d="M195.16000091552735,225.79999664306638 a0.37000000000000005,0.37000000000000005 0 0 1 -0.18000000000000002,-0.32000000000000006 a0.3400000000000001,0.3400000000000001 0 0 1 0.35000000000000003,-0.3400000000000001 a0.51,0.51 0 0 1 0.25,0.08000000000000002 a2.25,2.25 0 0 0 1.21,0.38000000000000006 c0.6200000000000001,0 0.9400000000000001,-0.27 0.9400000000000001,-0.6500000000000001 s-0.16000000000000003,-0.54 -0.8500000000000001,-0.6100000000000001 l-0.45,-0.05000000000000001 c-0.8400000000000001,-0.09000000000000002 -1.28,-0.52 -1.28,-1.21 s0.5800000000000001,-1.32 1.59,-1.32 a2.67,2.67 0 0 1 1.29,0.32000000000000006 a0.3400000000000001,0.3400000000000001 0 0 1 0.22000000000000003,0.31000000000000005 a0.32000000000000006,0.32000000000000006 0 0 1 -0.32000000000000006,0.33000000000000007 a0.6000000000000001,0.6000000000000001 0 0 1 -0.27,-0.08000000000000002 a2.33,2.33 0 0 0 -1,-0.22000000000000003 c-0.54,0 -0.81,0.24000000000000002 -0.81,0.5900000000000001 s0.19000000000000003,0.53 0.8400000000000001,0.5900000000000001 l0.45,0 c0.9,0.1 1.3,0.53 1.3,1.23 s-0.6100000000000001,1.4 -1.7600000000000002,1.4 A2.75,2.75 0 0 1 195.16000091552735,225.79999664306638 z" id="svg_40"/><path class="cls-1" d="M79.02000091552735,238.5999966430664 a0.36000000000000004,0.36000000000000004 0 1 1 0,-0.7100000000000001 c0.35000000000000003,0 0.56,-0.13 0.7400000000000001,-0.6500000000000001 l0.15000000000000002,-0.39000000000000007 l-1.47,-3.7 a0.5800000000000001,0.5800000000000001 0 0 1 0,-0.18000000000000002 a0.36000000000000004,0.36000000000000004 0 0 1 0.38000000000000006,-0.35000000000000003 a0.35000000000000003,0.35000000000000003 0 0 1 0.36000000000000004,0.27 l1.13,3 h0 l1.08,-3 a0.37000000000000005,0.37000000000000005 0 0 1 0.7200000000000001,0.08000000000000002 a0.5800000000000001,0.5800000000000001 0 0 1 0,0.18000000000000002 l-1.62,4.25 c-0.38000000000000006,1 -0.7200000000000001,1.2 -1.34,1.2 z" id="svg_41"/><path class="cls-1" d="M83.40000091552736,235.9099966430664 a3.19,3.19 0 0 1 -0.14,-1.1 a3.14,3.14 0 0 1 0.14,-1.08 a1.82,1.82 0 0 1 3.4,0 a3.11,3.11 0 0 1 0.15000000000000002,1.08 a3.15,3.15 0 0 1 -0.15000000000000002,1.1 a1.83,1.83 0 0 1 -3.4,0 zm2.67,-0.21000000000000002 a2.6500000000000004,2.6500000000000004 0 0 0 0.1,-0.8900000000000001 a2.56,2.56 0 0 0 -0.1,-0.8700000000000001 a1,1 0 0 0 -1.94,0 a2.84,2.84 0 0 0 -0.1,0.8700000000000001 a2.94,2.94 0 0 0 0.1,0.8900000000000001 a1,1 0 0 0 1.94,0 z" id="svg_42"/><path class="cls-1" d="M91.99000091552733,236.60999664306638 a0.38000000000000006,0.38000000000000006 0 1 1 -0.7600000000000001,0 V236.5199966430664 h0 a1.32,1.32 0 0 1 -1.19,0.5800000000000001 a1.44,1.44 0 0 1 -1.48,-1.62 V233.0199966430664 a0.37000000000000005,0.37000000000000005 0 0 1 0.38000000000000006,-0.4 a0.37000000000000005,0.37000000000000005 0 0 1 0.38000000000000006,0.4 v2.25 c0,0.7000000000000001 0.30000000000000004,1.1 0.9500000000000001,1.1 a1,1 0 0 0 1,-1.05 v-2.3 a0.38000000000000006,0.38000000000000006 0 1 1 0.7600000000000001,0 z" id="svg_43"/><path class="cls-1" d="M100.06000091552735,236.62999664306642 l-0.8900000000000001,-2.83 h0 l-0.9,2.83 c-0.09000000000000002,0.27 -0.23,0.39000000000000007 -0.45,0.39000000000000007 s-0.36000000000000004,-0.12000000000000001 -0.45,-0.39000000000000007 l-1.1400000000000001,-3.49 a0.5,0.5 0 0 1 0,-0.16000000000000003 a0.3400000000000001,0.3400000000000001 0 0 1 0.37000000000000005,-0.36000000000000004 a0.37000000000000005,0.37000000000000005 0 0 1 0.37000000000000005,0.32000000000000006 l0.91,2.93 h0 l0.9,-2.88 c0.08000000000000002,-0.26 0.2,-0.37000000000000005 0.41000000000000003,-0.37000000000000005 s0.33000000000000007,0.11000000000000001 0.41000000000000003,0.37000000000000005 l0.92,2.88 h0 l0.8900000000000001,-2.93 c0.07,-0.21000000000000002 0.18000000000000002,-0.32000000000000006 0.37000000000000005,-0.32000000000000006 a0.3400000000000001,0.3400000000000001 0 0 1 0.36000000000000004,0.36000000000000004 a0.5,0.5 0 0 1 0,0.16000000000000003 l-1.1400000000000001,3.49 c-0.09000000000000002,0.27 -0.23,0.39000000000000007 -0.44000000000000006,0.39000000000000007 A0.46,0.46 0 0 1 100.06000091552735,236.62999664306642 z" id="svg_44"/><path class="cls-1" d="M103.54000091552734,235.9099966430664 a3.15,3.15 0 0 1 -0.15000000000000002,-1.1 a3.11,3.11 0 0 1 0.15000000000000002,-1.08 a1.82,1.82 0 0 1 3.4,0 a3.14,3.14 0 0 1 0.14,1.08 a3.19,3.19 0 0 1 -0.14,1.1 a1.83,1.83 0 0 1 -3.4,0 zm2.67,-0.21000000000000002 a2.94,2.94 0 0 0 0.1,-0.8900000000000001 a2.84,2.84 0 0 0 -0.1,-0.8700000000000001 a1,1 0 0 0 -1.94,0 a2.56,2.56 0 0 0 -0.1,0.8700000000000001 a2.6500000000000004,2.6500000000000004 0 0 0 0.1,0.8900000000000001 a1,1 0 0 0 1.94,0 z" id="svg_45"/><path class="cls-1" d="M112.16000091552735,236.60999664306638 a0.38000000000000006,0.38000000000000006 0 1 1 -0.7500000000000001,0 V236.5199966430664 h0 a1.33,1.33 0 0 1 -1.19,0.5800000000000001 a1.4300000000000002,1.4300000000000002 0 0 1 -1.48,-1.62 V233.0199966430664 a0.38000000000000006,0.38000000000000006 0 1 1 0.7500000000000001,0 v2.25 c0,0.7000000000000001 0.31000000000000005,1.1 1,1.1 a1,1 0 0 0 1,-1.05 v-2.3 a0.38000000000000006,0.38000000000000006 0 1 1 0.7500000000000001,0 z" id="svg_46"/><path class="cls-1" d="M115.13000091552735,237.0199966430664 c-0.78,0 -1.06,-0.38000000000000006 -1.06,-1.15 v-4.66 a0.38000000000000006,0.38000000000000006 0 1 1 0.7600000000000001,0 v4.61 c0,0.36000000000000004 0.12000000000000001,0.5 0.41000000000000003,0.5 a0.33000000000000007,0.33000000000000007 0 0 1 0.35000000000000003,0.35000000000000003 a0.33000000000000007,0.33000000000000007 0 0 1 -0.38000000000000006,0.35000000000000003 z" id="svg_47"/><path class="cls-1" d="M119.66000091552735,236.60999664306638 V236.5199966430664 h0 a1.29,1.29 0 0 1 -1.22,0.5700000000000001 a1.5,1.5 0 0 1 -1.49,-1.08 a3.94,3.94 0 0 1 -0.15000000000000002,-1.18 a4,4 0 0 1 0.15000000000000002,-1.17 a1.51,1.51 0 0 1 1.49,-1.08 a1.31,1.31 0 0 1 1.22,0.5800000000000001 h0 v-1.9300000000000002 a0.38000000000000006,0.38000000000000006 0 1 1 0.7600000000000001,0 v5.4 a0.38000000000000006,0.38000000000000006 0 1 1 -0.7600000000000001,0 zm-0.1,-0.91 a2.8,2.8 0 0 0 0.1,-0.8900000000000001 a2.7,2.7 0 0 0 -0.1,-0.8700000000000001 a0.92,0.92 0 0 0 -1,-0.6700000000000002 a0.93,0.93 0 0 0 -0.9500000000000001,0.6700000000000002 a2.7,2.7 0 0 0 -0.1,0.8700000000000001 a2.8,2.8 0 0 0 0.1,0.8900000000000001 a0.93,0.93 0 0 0 0.9500000000000001,0.6700000000000002 A0.92,0.92 0 0 0 119.54000091552734,235.6999966430664 z" id="svg_48"/><path class="cls-1" d="M126.01000091552734,237.0199966430664 c-0.78,0 -1.06,-0.38000000000000006 -1.06,-1.15 v-4.66 a0.38000000000000006,0.38000000000000006 0 1 1 0.7600000000000001,0 v4.61 c0,0.36000000000000004 0.12000000000000001,0.5 0.41000000000000003,0.5 a0.33000000000000007,0.33000000000000007 0 0 1 0.35000000000000003,0.35000000000000003 a0.33000000000000007,0.33000000000000007 0 0 1 -0.38000000000000006,0.35000000000000003 z" id="svg_49"/><path class="cls-1" d="M127.81000091552735,231.29999664306638 a0.49000000000000005,0.49000000000000005 0 0 1 0.5,-0.49000000000000005 a0.48000000000000004,0.48000000000000004 0 0 1 0.49000000000000005,0.49000000000000005 a0.5,0.5 0 0 1 -0.49000000000000005,0.5 A0.51,0.51 0 0 1 127.81000091552735,231.29999664306638 zm0.12000000000000001,1.7200000000000002 a0.37000000000000005,0.37000000000000005 0 0 1 0.38000000000000006,-0.4 a0.37000000000000005,0.37000000000000005 0 0 1 0.38000000000000006,0.4 v3.59 a0.38000000000000006,0.38000000000000006 0 0 1 -0.38000000000000006,0.41000000000000003 a0.37000000000000005,0.37000000000000005 0 0 1 -0.38000000000000006,-0.41000000000000003 z" id="svg_50"/><path class="cls-1" d="M130.61000091552734,231.2099966430664 a0.37000000000000005,0.37000000000000005 0 0 1 0.38000000000000006,-0.4 a0.37000000000000005,0.37000000000000005 0 0 1 0.38000000000000006,0.4 v3.5300000000000002 l1.7600000000000002,-2 a0.39000000000000007,0.39000000000000007 0 0 1 0.29000000000000004,-0.13 a0.31000000000000005,0.31000000000000005 0 0 1 0.32000000000000006,0.31000000000000005 a0.4,0.4 0 0 1 -0.11000000000000001,0.26 l-1,1.08 l1.36,2.18 a0.46,0.46 0 0 1 0.06000000000000001,0.23 a0.3400000000000001,0.3400000000000001 0 0 1 -0.36000000000000004,0.3400000000000001 a0.4,0.4 0 0 1 -0.35000000000000003,-0.22000000000000003 l-1.21,-2 l-0.7600000000000001,0.8500000000000001 v0.9500000000000001 a0.37000000000000005,0.37000000000000005 0 0 1 -0.38000000000000006,0.41000000000000003 a0.38000000000000006,0.38000000000000006 0 0 1 -0.38000000000000006,-0.41000000000000003 z" id="svg_51"/><path class="cls-1" d="M135.44000091552735,235.8999966430664 a4.13,4.13 0 0 1 0,-2.17 a1.8,1.8 0 0 1 3.37,0 a3.09,3.09 0 0 1 0.15000000000000002,1 a0.28,0.28 0 0 1 -0.30000000000000004,0.29000000000000004 h-2.5300000000000002 a0,0 0 0 0 -0.05000000000000001,0.05000000000000001 a1.6800000000000002,1.6800000000000002 0 0 0 0.07,0.52 a1.06,1.06 0 0 0 1.09,0.7500000000000001 a1.53,1.53 0 0 0 1,-0.37000000000000005 a0.45,0.45 0 0 1 0.26,-0.11000000000000001 a0.31000000000000005,0.31000000000000005 0 0 1 0.32000000000000006,0.32000000000000006 a0.3400000000000001,0.3400000000000001 0 0 1 -0.12000000000000001,0.27 a2.23,2.23 0 0 1 -1.55,0.5900000000000001 A1.6500000000000001,1.6500000000000001 0 0 1 135.44000091552735,235.8999966430664 zm2.68,-1.46 s0,0 0,-0.05000000000000001 a1.4300000000000002,1.4300000000000002 0 0 0 -0.06000000000000001,-0.49000000000000005 a1.07,1.07 0 0 0 -2,0 a1.73,1.73 0 0 0 -0.06000000000000001,0.49000000000000005 s0,0.05000000000000001 0.05000000000000001,0.05000000000000001 z" id="svg_52"/><path class="cls-1" d="M144.54000091552734,237.0199966430664 c-0.8900000000000001,0 -1.21,-0.37000000000000005 -1.21,-1.27 v-2.42 s0,-0.06000000000000001 0,-0.06000000000000001 h-0.25 a0.29000000000000004,0.29000000000000004 0 0 1 -0.32000000000000006,-0.30000000000000004 a0.30000000000000004,0.30000000000000004 0 0 1 0.32000000000000006,-0.31000000000000005 h0.25 a0,0 0 0 0 0,-0.05000000000000001 v-0.9500000000000001 a0.37000000000000005,0.37000000000000005 0 0 1 0.38000000000000006,-0.4 a0.37000000000000005,0.37000000000000005 0 0 1 0.38000000000000006,0.4 v0.9500000000000001 s0,0.05000000000000001 0,0.05000000000000001 h0.5700000000000001 a0.30000000000000004,0.30000000000000004 0 0 1 0.32000000000000006,0.31000000000000005 a0.29000000000000004,0.29000000000000004 0 0 1 -0.32000000000000006,0.30000000000000004 h-0.5700000000000001 s0,0 0,0.06000000000000001 v2.39 c0,0.46 0.11000000000000001,0.6000000000000001 0.5700000000000001,0.6000000000000001 a0.33000000000000007,0.33000000000000007 0 0 1 0.37000000000000005,0.35000000000000003 c0,0.21000000000000002 -0.13,0.35000000000000003 -0.4,0.35000000000000003 z" id="svg_53"/><path class="cls-1" d="M146.44000091552735,235.9099966430664 a3.15,3.15 0 0 1 -0.15000000000000002,-1.1 a3.11,3.11 0 0 1 0.15000000000000002,-1.08 a1.82,1.82 0 0 1 3.4,0 a3.14,3.14 0 0 1 0.14,1.08 a3.19,3.19 0 0 1 -0.14,1.1 a1.83,1.83 0 0 1 -3.4,0 zm2.67,-0.21000000000000002 a2.94,2.94 0 0 0 0.1,-0.8900000000000001 a2.84,2.84 0 0 0 -0.1,-0.8700000000000001 a1,1 0 0 0 -1,-0.6700000000000002 a1,1 0 0 0 -1,0.6700000000000002 a2.84,2.84 0 0 0 -0.1,0.8700000000000001 a2.94,2.94 0 0 0 0.1,0.8900000000000001 a1,1 0 0 0 1,0.6700000000000002 A1,1 0 0 0 149.11000091552734,235.6999966430664 z" id="svg_54"/><path class="cls-1" d="M154.27000091552733,236.60999664306638 V233.0199966430664 a0.37000000000000005,0.37000000000000005 0 0 1 0.38000000000000006,-0.4 a0.37000000000000005,0.37000000000000005 0 0 1 0.38000000000000006,0.4 v0.2 h0 a1.17,1.17 0 0 1 1.11,-0.6600000000000001 a1.3,1.3 0 0 1 0.6400000000000001,0.16000000000000003 a0.35000000000000003,0.35000000000000003 0 0 1 0.21000000000000002,0.32000000000000006 a0.36000000000000004,0.36000000000000004 0 0 1 -0.38000000000000006,0.38000000000000006 a0.54,0.54 0 0 1 -0.19000000000000003,0 a1.34,1.34 0 0 0 -0.49000000000000005,-0.1 c-0.6500000000000001,0 -0.91,0.54 -0.91,1.26 v2.08 a0.37000000000000005,0.37000000000000005 0 0 1 -0.38000000000000006,0.41000000000000003 A0.38000000000000006,0.38000000000000006 0 0 1 154.27000091552733,236.60999664306638 z" id="svg_55"/><path class="cls-1" d="M158.11000091552734,235.8999966430664 a4.13,4.13 0 0 1 0,-2.17 a1.81,1.81 0 0 1 3.38,0 a3.4,3.4 0 0 1 0.14,1 a0.28,0.28 0 0 1 -0.30000000000000004,0.29000000000000004 h-2.5300000000000002 a0,0 0 0 0 -0.05000000000000001,0.05000000000000001 a1.6800000000000002,1.6800000000000002 0 0 0 0.07,0.52 a1.06,1.06 0 0 0 1.09,0.7500000000000001 a1.58,1.58 0 0 0 1,-0.37000000000000005 a0.4,0.4 0 0 1 0.26,-0.11000000000000001 a0.31000000000000005,0.31000000000000005 0 0 1 0.31000000000000005,0.32000000000000006 a0.3400000000000001,0.3400000000000001 0 0 1 -0.12000000000000001,0.27 a2.22,2.22 0 0 1 -1.54,0.5900000000000001 A1.6500000000000001,1.6500000000000001 0 0 1 158.11000091552734,235.8999966430664 zm2.68,-1.46 s0.06000000000000001,0 0.06000000000000001,-0.05000000000000001 a1.4100000000000001,1.4100000000000001 0 0 0 -0.07,-0.49000000000000005 a1.07,1.07 0 0 0 -2,0 a1.73,1.73 0 0 0 -0.06000000000000001,0.49000000000000005 s0,0.05000000000000001 0.05000000000000001,0.05000000000000001 z" id="svg_56"/><path class="cls-1" d="M163.16000091552735,235.9099966430664 a3.72,3.72 0 0 1 -0.14,-1.1 a3.67,3.67 0 0 1 0.14,-1.08 a1.6700000000000002,1.6700000000000002 0 0 1 1.7000000000000002,-1.17 a1.6900000000000002,1.6900000000000002 0 0 1 1.3800000000000001,0.6300000000000001 a0.46,0.46 0 0 1 0.1,0.28 a0.33000000000000007,0.33000000000000007 0 0 1 -0.33000000000000007,0.3400000000000001 a0.48000000000000004,0.48000000000000004 0 0 1 -0.33000000000000007,-0.18000000000000002 a1,1 0 0 0 -0.8200000000000001,-0.36000000000000004 a0.9400000000000001,0.9400000000000001 0 0 0 -1,0.6700000000000002 a3,3 0 0 0 -0.09000000000000002,0.8700000000000001 a3.08,3.08 0 0 0 0.09000000000000002,0.8900000000000001 a0.9400000000000001,0.9400000000000001 0 0 0 1,0.6700000000000002 a1,1 0 0 0 0.8200000000000001,-0.36000000000000004 a0.44000000000000006,0.44000000000000006 0 0 1 0.33000000000000007,-0.18000000000000002 a0.33000000000000007,0.33000000000000007 0 0 1 0.33000000000000007,0.33000000000000007 a0.46,0.46 0 0 1 -0.1,0.28 a1.6900000000000002,1.6900000000000002 0 0 1 -1.3800000000000001,0.6300000000000001 A1.6600000000000001,1.6600000000000001 0 0 1 163.16000091552735,235.9099966430664 z" id="svg_57"/><path class="cls-1" d="M167.86000091552734,235.8999966430664 a3.26,3.26 0 0 1 -0.14,-1.09 a3.5300000000000002,3.5300000000000002 0 0 1 0.13,-1.08 A1.6700000000000002,1.6700000000000002 0 0 1 169.54000091552734,232.5199966430664 a1.6400000000000001,1.6400000000000001 0 0 1 1.6900000000000002,1.1600000000000001 a3.11,3.11 0 0 1 0.14,1 a0.27,0.27 0 0 1 -0.29000000000000004,0.29000000000000004 H168.54000091552734 s-0.06000000000000001,0 -0.06000000000000001,0.05000000000000001 a1.42,1.42 0 0 0 0.08000000000000002,0.52 a1,1 0 0 0 1.09,0.7500000000000001 a1.53,1.53 0 0 0 1,-0.37000000000000005 a0.42000000000000004,0.42000000000000004 0 0 1 0.26,-0.11000000000000001 a0.32000000000000006,0.32000000000000006 0 0 1 0.32000000000000006,0.32000000000000006 a0.38000000000000006,0.38000000000000006 0 0 1 -0.12000000000000001,0.27 a2.23,2.23 0 0 1 -1.55,0.5900000000000001 A1.6700000000000002,1.6700000000000002 0 0 1 167.86000091552734,235.8999966430664 zm2.6900000000000004,-1.46 s0.05000000000000001,0 0.05000000000000001,-0.05000000000000001 a1.73,1.73 0 0 0 -0.06000000000000001,-0.49000000000000005 a1,1 0 0 0 -1,-0.6700000000000002 a1,1 0 0 0 -1,0.6700000000000002 a1.4100000000000001,1.4100000000000001 0 0 0 -0.07,0.49000000000000005 s0,0.05000000000000001 0.06000000000000001,0.05000000000000001 z" id="svg_58"/><path class="cls-1" d="M172.92000091552734,231.29999664306638 a0.49000000000000005,0.49000000000000005 0 0 1 0.5,-0.49000000000000005 a0.48000000000000004,0.48000000000000004 0 0 1 0.49000000000000005,0.49000000000000005 a0.5,0.5 0 0 1 -0.49000000000000005,0.5 A0.51,0.51 0 0 1 172.92000091552734,231.29999664306638 zm0.12000000000000001,1.7200000000000002 a0.38000000000000006,0.38000000000000006 0 1 1 0.7500000000000001,0 v3.59 a0.38000000000000006,0.38000000000000006 0 1 1 -0.7500000000000001,0 z" id="svg_59"/><path class="cls-1" d="M176.64000091552734,236.5199966430664 l-1.31,-3.38 a0.7400000000000001,0.7400000000000001 0 0 1 0,-0.19000000000000003 a0.35000000000000003,0.35000000000000003 0 0 1 0.37000000000000005,-0.36000000000000004 a0.38000000000000006,0.38000000000000006 0 0 1 0.36000000000000004,0.27 l1.11,3 h0 l1.09,-3 a0.37000000000000005,0.37000000000000005 0 0 1 0.36000000000000004,-0.27 a0.35000000000000003,0.35000000000000003 0 0 1 0.37000000000000005,0.36000000000000004 a0.5,0.5 0 0 1 0,0.19000000000000003 L177.63000091552735,236.5199966430664 c-0.14,0.35000000000000003 -0.25,0.47000000000000003 -0.5,0.47000000000000003 S176.77000091552733,236.8999966430664 176.64000091552734,236.5199966430664 z" id="svg_60"/><path class="cls-1" d="M180.35000091552735,235.8999966430664 a4.13,4.13 0 0 1 0,-2.17 a1.8,1.8 0 0 1 3.37,0 a3.09,3.09 0 0 1 0.15000000000000002,1 a0.28,0.28 0 0 1 -0.30000000000000004,0.29000000000000004 h-2.5300000000000002 s-0.05000000000000001,0 -0.05000000000000001,0.05000000000000001 a1.4300000000000002,1.4300000000000002 0 0 0 0.07,0.52 a1.06,1.06 0 0 0 1.09,0.7500000000000001 a1.53,1.53 0 0 0 1,-0.37000000000000005 a0.42000000000000004,0.42000000000000004 0 0 1 0.26,-0.11000000000000001 a0.32000000000000006,0.32000000000000006 0 0 1 0.32000000000000006,0.32000000000000006 a0.38000000000000006,0.38000000000000006 0 0 1 -0.12000000000000001,0.27 a2.23,2.23 0 0 1 -1.55,0.5900000000000001 A1.6500000000000001,1.6500000000000001 0 0 1 180.35000091552735,235.8999966430664 zm2.68,-1.46 s0,0 0,-0.05000000000000001 a1.73,1.73 0 0 0 -0.06000000000000001,-0.49000000000000005 a1.07,1.07 0 0 0 -2,0 a1.4300000000000002,1.4300000000000002 0 0 0 -0.06000000000000001,0.49000000000000005 s0,0.05000000000000001 0.05000000000000001,0.05000000000000001 z" id="svg_61"/><path class="cls-1" d="M185.85000091552735,235.98999664306643 a0.52,0.52 0 0 1 0.51,0.52 a0.51,0.51 0 0 1 -0.51,0.51 a0.52,0.52 0 0 1 -0.52,-0.51 A0.53,0.53 0 0 1 185.85000091552735,235.98999664306643 z" id="svg_62"/><path class="cls-1" d="M71.81000091552734,66.5199966430664 a1.55,1.55 0 0 1 -0.7400000000000001,-1.31 a1.36,1.36 0 0 1 1.3900000000000001,-1.37 a1.79,1.79 0 0 1 0.91,0.25 a5.890000000000001,5.890000000000001 0 0 0 3.09,0.93 c1.52,0 2.34,-0.7000000000000001 2.34,-1.6900000000000002 s-0.51,-1.37 -2.22,-1.61 l-0.7600000000000001,-0.1 c-2.94,-0.4 -4.54,-1.78 -4.54,-4.3100000000000005 s2,-4.4 5.09,-4.4 a8.4,8.4 0 0 1 4,0.9500000000000001 a1.42,1.42 0 0 1 0.7500000000000001,1.25 a1.33,1.33 0 0 1 -1.36,1.35 a2.08,2.08 0 0 1 -0.91,-0.23 a5.76,5.76 0 0 0 -2.47,-0.5900000000000001 c-1.27,0 -1.94,0.6300000000000001 -1.94,1.54 s0.5700000000000001,1.35 2.24,1.59 l0.7600000000000001,0.1 c3,0.42000000000000004 4.52,1.7600000000000002 4.52,4.35 s-1.9,4.53 -5.640000000000001,4.53 A8.57,8.57 0 0 1 71.81000091552734,66.5199966430664 z" id="svg_63"/><path class="cls-1" d="M86.18000091552733,62.24999664306641 v-7.54 a1.56,1.56 0 1 1 3.11,0 v7.65 a2.39,2.39 0 0 0 2.41,2.68 c1.4300000000000002,0 2.38,-1 2.38,-2.68 v-7.65 a1.56,1.56 0 1 1 3.11,0 v7.54 c0,3.59 -2.26,5.54 -5.49,5.54 S86.18000091552733,65.8399966430664 86.18000091552733,62.24999664306641 z" id="svg_64"/><path class="cls-1" d="M101.99000091552733,54.519996643066406 a1.28,1.28 0 0 1 1.36,-1.3800000000000001 h4.45 c3.13,0 4.59,1.55 4.59,3.83 a3.26,3.26 0 0 1 -1.6700000000000002,3.06 v0 a3.41,3.41 0 0 1 1.92,3.25 c0,2.83 -1.8800000000000001,4.18 -5,4.18 h-4.3100000000000005 a1.25,1.25 0 0 1 -1.36,-1.35 zm5.41,4.5 c1.19,0 1.9100000000000001,-0.6100000000000001 1.9100000000000001,-1.6900000000000002 s-0.7000000000000001,-1.6700000000000002 -1.9100000000000001,-1.6700000000000002 h-2.17 c-0.09000000000000002,0 -0.13,0 -0.13,0.13 v3.1 c0,0.09000000000000002 0,0.13 0.13,0.13 zm-2.17,6 H107.54000091552734 a1.73,1.73 0 0 0 2,-1.82 c0,-1.08 -0.7000000000000001,-1.77 -2,-1.77 h-2.34 c-0.09000000000000002,0 -0.13,0 -0.13,0.12000000000000001 v3.34 C105.10000091552735,64.99999664306641 105.14000091552734,65.0399966430664 105.23000091552734,65.0399966430664 z" id="svg_65"/><path class="cls-1" d="M117.26000091552734,66.5199966430664 a1.55,1.55 0 0 1 -0.7400000000000001,-1.31 a1.36,1.36 0 0 1 1.3900000000000001,-1.37 a1.79,1.79 0 0 1 0.91,0.25 a5.890000000000001,5.890000000000001 0 0 0 3.09,0.93 c1.52,0 2.34,-0.7000000000000001 2.34,-1.6900000000000002 s-0.51,-1.37 -2.22,-1.61 l-0.7600000000000001,-0.1 c-2.94,-0.4 -4.54,-1.78 -4.54,-4.3100000000000005 s2,-4.4 5.09,-4.4 a8.44,8.44 0 0 1 4,0.9500000000000001 a1.4300000000000002,1.4300000000000002 0 0 1 0.7400000000000001,1.25 a1.33,1.33 0 0 1 -1.36,1.35 a2.08,2.08 0 0 1 -0.91,-0.23 a5.76,5.76 0 0 0 -2.47,-0.5900000000000001 c-1.26,0 -1.94,0.6300000000000001 -1.94,1.54 s0.5700000000000001,1.35 2.24,1.59 l0.7600000000000001,0.1 c3,0.42000000000000004 4.52,1.7600000000000002 4.52,4.35 s-1.9,4.53 -5.640000000000001,4.53 A8.57,8.57 0 0 1 117.26000091552734,66.5199966430664 z" id="svg_66"/><path class="cls-1" d="M131.31000091552735,60.3699966430664 a11.33,11.33 0 0 1 0.41000000000000003,-3.89 a5.5,5.5 0 0 1 9.59,-1.25 a1.85,1.85 0 0 1 0.27,0.93 a1.37,1.37 0 0 1 -1.4100000000000001,1.4 a1.58,1.58 0 0 1 -1.37,-0.8 a2.17,2.17 0 0 0 -1.9500000000000002,-1.06 a2.09,2.09 0 0 0 -2.15,1.58 a9.75,9.75 0 0 0 -0.24000000000000002,3.09 a9.620000000000001,9.620000000000001 0 0 0 0.24000000000000002,3.08 a2.08,2.08 0 0 0 2.15,1.59 a2.17,2.17 0 0 0 1.9500000000000002,-1.06 a1.58,1.58 0 0 1 1.37,-0.8 a1.37,1.37 0 0 1 1.4100000000000001,1.3900000000000001 a1.8,1.8 0 0 1 -0.27,0.93 a5.49,5.49 0 0 1 -9.59,-1.24 A11.33,11.33 0 0 1 131.31000091552735,60.3699966430664 z" id="svg_67"/><path class="cls-1" d="M153.72000091552735,66.7099966430664 l-2.41,-4.63 h-2.11 c-0.09000000000000002,0 -0.13,0 -0.13,0.13 v3.8200000000000003 a1.55,1.55 0 1 1 -3.1,0 V54.519996643066406 a1.27,1.27 0 0 1 1.35,-1.3800000000000001 h4.5600000000000005 c3,0 4.91,1.84 4.91,4.46 a4.19,4.19 0 0 1 -2.37,3.89 l2.09,3.8 a1.83,1.83 0 0 1 0.21000000000000002,0.8700000000000001 a1.42,1.42 0 0 1 -1.48,1.48 A1.6600000000000001,1.6600000000000001 0 0 1 153.72000091552735,66.7099966430664 zm0,-9 a1.75,1.75 0 0 0 -1.94,-1.79 h-2.54 c-0.09000000000000002,0 -0.13,0 -0.13,0.12000000000000001 v3.3200000000000003 c0,0.09000000000000002 0,0.13 0.13,0.13 h2.54 A1.75,1.75 0 0 0 153.68000091552733,57.65999664306641 z" id="svg_68"/><path class="cls-1" d="M161.27000091552733,54.709996643066404 a1.56,1.56 0 1 1 3.11,0 v11.32 a1.56,1.56 0 1 1 -3.11,0 z" id="svg_69"/><path class="cls-1" d="M169.24000091552733,54.519996643066406 a1.28,1.28 0 0 1 1.36,-1.3800000000000001 h4.45 c3.13,0 4.59,1.55 4.59,3.83 a3.26,3.26 0 0 1 -1.6700000000000002,3.06 v0 a3.41,3.41 0 0 1 1.92,3.25 c0,2.83 -1.8800000000000001,4.18 -5,4.18 h-4.3100000000000005 a1.25,1.25 0 0 1 -1.36,-1.35 zm5.41,4.5 c1.19,0 1.9,-0.6100000000000001 1.9,-1.6900000000000002 s-0.6900000000000002,-1.6700000000000002 -1.9,-1.6700000000000002 h-2.17 c-0.09000000000000002,0 -0.13,0 -0.13,0.13 v3.1 c0,0.09000000000000002 0,0.13 0.13,0.13 zm-2.17,6 h2.34 a1.73,1.73 0 0 0 2,-1.82 c0,-1.08 -0.7000000000000001,-1.77 -2,-1.77 h-2.34 c-0.09000000000000002,0 -0.13,0 -0.13,0.12000000000000001 v3.34 C172.35000091552735,64.99999664306641 172.39000091552734,65.0399966430664 172.48000091552734,65.0399966430664 z" id="svg_70"/><path class="cls-1" d="M184.25000091552735,54.519996643066406 a1.27,1.27 0 0 1 1.35,-1.3800000000000001 h7 a1.35,1.35 0 1 1 0,2.6900000000000004 h-5.09 c-0.08000000000000002,0 -0.13,0 -0.13,0.12000000000000001 v2.8600000000000003 c0,0.08000000000000002 0.05000000000000001,0.12000000000000001 0.13,0.12000000000000001 H191.54000091552734 a1.34,1.34 0 1 1 0,2.67 h-4.08 c-0.08000000000000002,0 -0.13,0 -0.13,0.12000000000000001 v3 a0.12000000000000001,0.12000000000000001 0 0 0 0.13,0.13 H192.54000091552734 a1.34,1.34 0 1 1 0,2.68 h-7 a1.27,1.27 0 0 1 -1.35,-1.37 z" id="svg_71"/><path class="cls-1" d="M131.62000091552736,41.60999664306641 V23.429996643066403 h-4 V18.179996643066403 h9.84 V41.60999664306641 z" id="svg_72"/><g class="cls-2" id="svg_73"><path class="cls-1" d="M11.95000091552734,35.99999664306641 H0.010000915527342613 v-36 h36 V11.849996643066405 h-24 z" id="svg_74"/><path class="cls-1" d="M253.28000091552735,11.879996643066406 H229.07000091552732 V0.02999664306640426 h36 v36 H253.28000091552735 z" id="svg_75"/><path class="cls-1" d="M0.03000091552734574,229.04999664306638 H11.910000915527341 v24.08 H36.00000091552734 v11.86 h-36 z" id="svg_76"/><path class="cls-1" d="M229.06000091552733,265.0099966430664 V253.1599966430664 h24.07 v-24.1 h11.94 v35.95 z" id="svg_77"/></g><circle class="cls-3" cx="132.54000091552734" cy="132.5199966430664" r="48" id="svg_78"/><path class="cls-1" d="M132.54000091552734,182.4099966430664 A49.89,49.89 0 1 1 182.43000091552733,132.5199966430664 A49.95,49.95 0 0 1 132.54000091552734,182.4099966430664 zm0,-96 A46.11,46.11 0 1 0 178.65000091552736,132.5199966430664 A46.16,46.16 0 0 0 132.54000091552734,86.40999664306639 z" id="svg_79"/><path class="cls-1" d="M125.38000091552735,119.69999664306641 v12.06 a2.22,2.22 0 0 1 -1.49,2.09 a2.36,2.36 0 0 1 -0.7500000000000001,0.12000000000000001 h-10 a2.22,2.22 0 0 1 -2.19,-1.77 a2.58,2.58 0 0 1 0,-0.39000000000000007 V107.5899966430664 a2.2,2.2 0 0 1 1.7400000000000002,-2.12 a2.84,2.84 0 0 1 0.51,0 h10 a2.21,2.21 0 0 1 2.2,1.75 a2.59,2.59 0 0 1 0,0.48000000000000004 Q125.39000091552734,113.6799966430664 125.38000091552735,119.69999664306641 zm-1,8.69 V109.7699966430664 H111.84000091552736 v18.62 zm-6.28,3.95 a1.28,1.28 0 1 0 -1.28,-1.29 A1.28,1.28 0 0 0 118.12000091552736,132.3399966430664 zm0,-24.82 h2 a0.18000000000000002,0.18000000000000002 0 0 0 0.12000000000000001,-0.19000000000000003 a0.16000000000000003,0.16000000000000003 0 0 0 -0.12000000000000001,-0.17 l-0.14,0 h-3.77 a0.19000000000000003,0.19000000000000003 0 0 0 -0.15000000000000002,0.22000000000000003 a0.21000000000000002,0.21000000000000002 0 0 0 0.23,0.16000000000000003 z" id="svg_80"/><path class="cls-1" d="M143.54000091552734,125.5199966430664 v1.6400000000000001 h-9.6 a1.79,1.79 0 0 1 -1.8800000000000001,-1.8900000000000001 V110.91999664306641 a1.78,1.78 0 0 1 1.34,-1.73 a1.59,1.59 0 0 1 0.37000000000000005,-0.06000000000000001 c0.24000000000000002,0 0.48000000000000004,0 0.7500000000000001,0 v0.78 a1.6400000000000001,1.6400000000000001 0 1 0 3.2800000000000002,0 c0,-0.26 0,-0.52 0,-0.79 h9.84 c0,0.24000000000000002 0,0.49000000000000005 0,0.7300000000000001 a1.7200000000000002,1.7200000000000002 0 0 0 0.26,1 a1.6500000000000001,1.6500000000000001 0 0 0 3,-0.8900000000000001 v-0.78 a1.8800000000000001,1.8800000000000001 0 0 1 2.45,1.84 q0,3 0,6.08 v0.24000000000000002 h-1.6300000000000001 v-3.26 H133.69000091552735 v11.17 c0,0.28 0,0.30000000000000004 0.31000000000000005,0.30000000000000004 H143.54000091552734 z" id="svg_81"/><path class="cls-1" d="M158.30000091552733,125.5199966430664 a6.57,6.57 0 1 1 -6.5600000000000005,-6.57 A6.5600000000000005,6.5600000000000005 0 0 1 158.30000091552733,125.5199966430664 zm-1.6400000000000001,0 a4.93,4.93 0 1 0 -4.93,4.91 A4.92,4.92 0 0 0 156.66000091552735,125.5199966430664 z" id="svg_82"/><path class="cls-1" d="M138.60000091552735,115.69999664306641 v3.26 h-3.25 v-3.26 z" id="svg_83"/><path class="cls-1" d="M140.27000091552733,115.69999664306641 H143.54000091552734 v3.25 h-3.25 z" id="svg_84"/><path class="cls-1" d="M148.44000091552735,118.9599966430664 h-3.25 v-3.26 h3.25 z" id="svg_85"/><path class="cls-1" d="M138.60000091552735,123.87999664306642 H135.34000091552736 V120.6199966430664 h3.26 z" id="svg_86"/><path class="cls-1" d="M140.27000091552733,120.6199966430664 H143.54000091552734 v3.25 h-3.25 z" id="svg_87"/><path class="cls-1" d="M135.33000091552734,108.29999664306641 v-1.61 a0.8200000000000001,0.8200000000000001 0 1 1 1.6400000000000001,0 v3.25 a0.8200000000000001,0.8200000000000001 0 1 1 -1.6400000000000001,0 z" id="svg_88"/><path class="cls-1" d="M150.10000091552735,108.3099966430664 v1.62 a0.8300000000000001,0.8300000000000001 0 0 1 -0.8200000000000001,0.8300000000000001 a0.81,0.81 0 0 1 -0.8200000000000001,-0.8300000000000001 v-3.24 a0.81,0.81 0 0 1 0.8200000000000001,-0.8400000000000001 a0.8200000000000001,0.8200000000000001 0 0 1 0.8200000000000001,0.8400000000000001 z" id="svg_89"/><path class="cls-1" d="M151.74000091552733,125.5199966430664 h2.48 a0.8200000000000001,0.8200000000000001 0 0 1 0.8,0.81 a0.81,0.81 0 0 1 -0.8,0.8200000000000001 c-1.11,0 -2.22,0 -3.34,0 a0.79,0.79 0 0 1 -0.78,-0.81 v-3.2800000000000002 a0.8200000000000001,0.8200000000000001 0 0 1 0.8200000000000001,-0.8200000000000001 a0.8300000000000001,0.8300000000000001 0 0 1 0.8200000000000001,0.81 z" id="svg_90"/><path class="cls-1" d="M118.94000091552735,139.84999664306642 h20.48 v16.28 H118.94000091552735 z" id="svg_91"/><path class="cls-1" d="M140.18000091552733,156.12999664306642 V139.8399966430664 h3.8600000000000003 a1.47,1.47 0 0 1 1.29,0.6400000000000001 a1.29,1.29 0 0 1 0.24000000000000002,0.78 V154.5199966430664 a1.6800000000000002,1.6800000000000002 0 0 1 -0.24000000000000002,1 a1.4,1.4 0 0 1 -1.22,0.6400000000000001 h-3.93 zm1.8,-13.28 a0.91,0.91 0 1 0 0.91,-0.9 A0.93,0.93 0 0 0 141.98000091552734,142.84999664306642 zm0.91,2.11 a0.38000000000000006,0.38000000000000006 0 0 0 -0.37000000000000005,0.37000000000000005 a0.36000000000000004,0.36000000000000004 0 0 0 0.36000000000000004,0.37000000000000005 a0.46,0.46 0 0 0 0.38000000000000006,-0.39000000000000007 A0.38000000000000006,0.38000000000000006 0 0 0 142.89000091552734,144.9599966430664 z" id="svg_92"/><path class="cls-1" d="M118.14000091552734,139.84999664306642 v16.28 h-2.95 a1.45,1.45 0 0 1 -1.46,-1.11 a1.53,1.53 0 0 1 0,-0.30000000000000004 q0,-6.72 0,-13.44 a1.5,1.5 0 0 1 1.5,-1.45 h2.94 z" id="svg_93"/><path class="cls-1" d="M148.54000091552734,141.5199966430664 h-1.61 a0.29000000000000004,0.29000000000000004 0 0 1 -0.26,-0.29000000000000004 a0.29000000000000004,0.29000000000000004 0 0 1 0.28,-0.28 h3.12 a0.32000000000000006,0.32000000000000006 0 0 1 0.29000000000000004,0.13 a0.26,0.26 0 0 1 -0.16000000000000003,0.43000000000000005 l-0.16000000000000003,0 z" id="svg_94"/><path class="cls-1" d="M144.54000091552734,136.9799966430664 v1.59 a0.27,0.27 0 0 1 -0.24000000000000002,0.28 a0.28,0.28 0 0 1 -0.31000000000000005,-0.17 a0.30000000000000004,0.30000000000000004 0 0 1 0,-0.13 c0,-1.05 0,-2.09 0,-3.13 c0,-0.2 0.1,-0.31000000000000005 0.28,-0.31000000000000005 a0.27,0.27 0 0 1 0.29000000000000004,0.31000000000000005 z" id="svg_95"/><path class="cls-1" d="M147.60000091552735,138.2299966430664 a0.56,0.56 0 0 1 -0.09000000000000002,0.17 c-0.3400000000000001,0.35000000000000003 -0.6900000000000002,0.6900000000000002 -1,1 a0.26,0.26 0 0 1 -0.38000000000000006,0 a0.28,0.28 0 0 1 0,-0.41000000000000003 l0.35000000000000003,-0.36000000000000004 l0.6900000000000002,-0.6800000000000002 a0.26,0.26 0 0 1 0.33000000000000007,-0.07 A0.31000000000000005,0.31000000000000005 0 0 1 147.60000091552735,138.2299966430664 z" id="svg_96"/><path class="cls-1" d="M140.88000091552735,137.5199966430664 a1.1400000000000001,1.1400000000000001 0 0 1 0.19000000000000003,0.1 l1,1 a0.26,0.26 0 0 1 0,0.41000000000000003 a0.28,0.28 0 0 1 -0.41000000000000003,0 l-1,-1 a0.28,0.28 0 0 1 -0.07,-0.3400000000000001 A0.32000000000000006,0.32000000000000006 0 0 1 140.88000091552735,137.5199966430664 z" id="svg_97"/><path class="cls-1" d="M146.39000091552734,143.6499966430664 a0.3400000000000001,0.3400000000000001 0 0 1 0.17,-0.32000000000000006 a0.26,0.26 0 0 1 0.31000000000000005,0.05000000000000001 l1.06,1.06 a0.26,0.26 0 0 1 0,0.4 a0.27,0.27 0 0 1 -0.4,0 l-0.56,-0.55 c-0.15000000000000002,-0.15000000000000002 -0.30000000000000004,-0.29000000000000004 -0.44000000000000006,-0.45 A1.11,1.11 0 0 1 146.39000091552734,143.6499966430664 z" id="svg_98"/><path class="cls-1" d="M142.89000091552734,143.3899966430664 a0.54,0.54 0 1 1 0.54,-0.54 A0.54,0.54 0 0 1 142.89000091552734,143.3899966430664 z" id="svg_99"/></g></svg>